<svg xmlns="http://www.w3.org/2000/svg" xmlns:xlink="http://www.w3.org/1999/xlink" width="498.857" height="140.572" viewBox="0 0 498.857 140.572"><defs><linearGradient id="a" x1="0.5" x2="0.581" y2="4.469" gradientUnits="objectBoundingBox"><stop offset="0" stop-color="#f4f4f4"/><stop offset="1" stop-color="#1293d6"/></linearGradient><linearGradient id="b" x1="0.798" y1="-0.197" x2="0.438" y2="2.872" gradientUnits="objectBoundingBox"><stop offset="0" stop-color="#1293d6"/><stop offset="1" stop-color="#094a6b"/></linearGradient><linearGradient id="c" x1="0.5" x2="-0.132" y2="3.49" gradientUnits="objectBoundingBox"><stop offset="0" stop-color="#f4f4f4"/><stop offset="1" stop-color="#7a7a7a"/></linearGradient></defs><g transform="translate(-1421.469 0.564)"><path d="M1.124,80.461H201.6s-3.8-17.3-13.955-23.583-17.914-2.471-17.914-2.471-.985-21.141-20.9-30.308-32.69,4.138-32.69,4.138S102.845-8.839,65.449,1.978s-37,45.116-37,45.116S18.133,42.04,11.734,49.731,8.076,66.505,8.076,66.505s-4.424-1.714-6.952,3.878A11.731,11.731,0,0,0,1.124,80.461Z" transform="translate(1827.463 140.008) rotate(180)" fill="url(#a)"/><path d="M1354.938,910.5h-444.3s8.411-24.955,30.927-34.018,39.7-3.564,39.7-3.564,2.184-30.5,46.323-43.719,72.447,5.969,72.447,5.969,29.465-53.482,112.342-37.878,82,65.079,82,65.079,22.863-7.289,37.045,3.8,8.106,24.2,8.106,24.2,9.8-2.473,15.408,5.594S1354.938,910.5,1354.938,910.5Z" transform="translate(2778.897 909.936) rotate(180)" fill="url(#b)"/><path d="M912.175,875.814h273.783s-5.183-17.5-19.057-23.852-24.465-2.5-24.465-2.5-1.346-21.382-28.545-30.654-44.643,4.185-44.643,4.185-18.157-37.5-69.227-26.558-50.529,45.63-50.529,45.63-14.089-5.111-22.828,2.667-5,16.966-5,16.966a8.6,8.6,0,0,0-9.495,3.922A9.186,9.186,0,0,0,912.175,875.814Z" transform="translate(2830.966 875.436) rotate(180)" fill="url(#c)"/></g></svg>