<svg xmlns="http://www.w3.org/2000/svg" xmlns:xlink="http://www.w3.org/1999/xlink" width="403" height="156" viewBox="0 0 403 156"><defs><clipPath id="b"><rect width="403" height="156"/></clipPath></defs><g id="a" clip-path="url(#b)"><rect width="403" height="156" fill="#fff"/><g transform="translate(-148 -269)"><text transform="translate(155 399)" fill="#868686" font-size="76" font-family="Raleway-Bold, Raleway" font-weight="700"><tspan x="0" y="0" letter-spacing="-0.01em">cloudy</tspan><tspan y="0" fill="#106bac" font-family="Raleway-ExtraBold, Raleway" font-weight="800">Box</tspan></text><g transform="translate(215 273.738)"><path d="M0,0H90.262V90.262H0Z" fill="none"/><path d="M72.774,26.716a28.179,28.179,0,0,0-52.653-7.522,22.556,22.556,0,0,0,2.445,44.98H71.457a18.751,18.751,0,0,0,1.316-37.459Z" transform="translate(0 11.044)" fill="#d5d5d5"/></g><path d="M72.774,26.716a28.179,28.179,0,0,0-52.653-7.522,22.556,22.556,0,0,0,2.445,44.98H71.457a18.751,18.751,0,0,0,1.316-37.459Z" transform="translate(253 274.782)" fill="#1293d6"/><path d="M5,20.78h6.837V33.8H22.093V20.78H28.93L16.965,5.586Z" transform="translate(304.233 307.708)" fill="#fff"/></g></g></svg>