<svg xmlns="http://www.w3.org/2000/svg" xmlns:xlink="http://www.w3.org/1999/xlink" width="403" height="156" viewBox="0 0 403 156"><defs><clipPath id="b"><rect width="403" height="156"/></clipPath></defs><g id="a" clip-path="url(#b)"><g transform="translate(7 59)"><text transform="translate(0 71)" fill="#868686" font-size="76" font-family="Raleway-Bold, Raleway" font-weight="700" letter-spacing="-0.01em"><tspan x="0" y="0">cloudy</tspan></text><text transform="translate(246 71)" fill="#106bac" font-size="76" font-family="Raleway-ExtraBold, Raleway" font-weight="800"><tspan x="0" y="0">Box</tspan></text></g><g transform="translate(67 4.738)"><path d="M0,0H90.262V90.262H0Z" fill="none"/><path d="M72.774,26.716a28.179,28.179,0,0,0-52.653-7.522,22.556,22.556,0,0,0,2.445,44.98H71.457a18.751,18.751,0,0,0,1.316-37.459Z" transform="translate(0 11.044)" fill="#d5d5d5"/></g><path d="M-1962.931,60.175h-40.5A22.591,22.591,0,0,1-2026,37.609a22.5,22.5,0,0,1,5.815-15.115,22.465,22.465,0,0,1,14.305-7.3,28.33,28.33,0,0,1,10.193-10.982A28.091,28.091,0,0,1-1980.87,0a28.105,28.105,0,0,1,9.735,1.725,28.025,28.025,0,0,1,8.261,4.768,28.207,28.207,0,0,1,6.174,7.2,28.035,28.035,0,0,1,3.473,9.023,18.8,18.8,0,0,1,12.411,5.858,18.571,18.571,0,0,1,5.078,12.8,18.755,18.755,0,0,1-4.9,12.66,18.755,18.755,0,0,1-12.032,6.052V49.706h6.836L-1957.8,34.512l-11.965,15.194h6.836V60.174Z" transform="translate(2131 9.782)" fill="#1293d6"/></g></svg>