<svg xmlns="http://www.w3.org/2000/svg" xmlns:xlink="http://www.w3.org/1999/xlink" width="300.62" height="327.005" viewBox="0 0 300.62 327.005"><defs><clipPath id="a"><path d="M199.278-153.688c-19.255,0-38.537-4.255-53.276-12.765L47.554-223.292c-29.483-17.023-29.636-44.62-.347-61.641,14.645-8.51,33.877-12.765,53.134-12.765s38.539,4.256,53.281,12.766l98.449,56.84c29.481,17.021,29.636,44.617.347,61.638-14.646,8.511-33.879,12.766-53.139,12.766" transform="translate(-25.34 297.699)" fill="none" clip-rule="evenodd"/></clipPath><clipPath id="b"><path d="M-260-320.922H284.078V-865H-260Z" transform="translate(260 865)" fill="rgba(248,242,242,0.93)"/></clipPath><clipPath id="c"><path d="M217.46-511.81q-.241-.127-.482-.25c-.124-.063-.249-.131-.373-.193-.2-.1-.4-.187-.593-.279-.142-.067-.285-.137-.426-.2-.058-.027-.117-.057-.175-.083q-.593-.265-1.178-.5h0q-.6-.24-1.188-.447c-.051-.018-.1-.033-.153-.05-.143-.049-.284-.093-.425-.139-.2-.066-.4-.137-.6-.2-.1-.031-.2-.053-.3-.082-.174-.05-.347-.1-.52-.144-.133-.035-.269-.078-.4-.111s-.276-.06-.415-.092c-.174-.04-.346-.08-.518-.115-.091-.019-.184-.044-.275-.061-.162-.032-.322-.052-.483-.08-.2-.035-.4-.07-.6-.1-.07-.01-.142-.026-.211-.035-.165-.022-.325-.032-.488-.05-.213-.023-.426-.048-.636-.065-.062,0-.126-.015-.187-.019-.144-.01-.283-.007-.425-.014-.251-.012-.5-.023-.749-.025-.069,0-.141-.007-.21-.007-.274,0-.546.01-.815.023l-.1.007c-.2.011-.409.023-.61.042-.129.012-.254.03-.381.045-.1.012-.192.021-.288.034-.348.046-.692.1-1.03.167l-.031.007c-.093.019-.182.045-.274.065-.281.063-.56.128-.834.205-.134.038-.264.083-.4.124-.175.055-.353.1-.525.165l-.128.052c-.265.1-.523.206-.78.318-.125.054-.253.1-.376.16-.376.176-.744.365-1.1.574l-3.418,1.986c.358-.208.727-.4,1.1-.573.124-.058.252-.106.377-.16.257-.112.515-.221.78-.318.214-.078.433-.148.652-.217.132-.041.262-.087.4-.125.273-.077.553-.143.834-.205.092-.02.182-.046.274-.065.348-.071.7-.128,1.061-.176.1-.013.192-.023.288-.034.326-.037.656-.069.991-.087l.1-.007c.337-.017.681-.018,1.026-.016.247,0,.5.013.749.024.2.01.406.017.612.033s.423.042.636.065c.232.026.464.051.7.084.2.029.4.064.6.1.251.043.5.088.758.141.172.036.345.076.518.115q.406.094.817.2c.173.046.346.093.52.143.3.086.6.18.9.279.142.046.283.089.425.139q1.329.459,2.7,1.08c.142.064.284.134.426.2q.48.227.965.472.24.123.482.25c.428.226.858.458,1.291.708l3.418-1.986q-.47-.272-.938-.525c-.118-.064-.235-.121-.353-.183" transform="translate(-194.355 515.147)" fill="none" clip-rule="evenodd"/></clipPath><clipPath id="d"><path d="M-260-320.922H284.078V-865H-260Z" transform="translate(260 865)" fill="none"/></clipPath><clipPath id="e"><path d="M414.452-405.112c0-.067-.007-.135-.009-.2-.005-.145-.013-.289-.02-.434-.009-.17-.013-.339-.024-.509-.009-.13-.022-.261-.031-.391-.012-.153-.023-.306-.037-.459-.009-.1-.014-.2-.024-.3-.021-.217-.048-.436-.073-.655-.014-.127-.026-.253-.042-.38l-.014-.126q-.075-.594-.17-1.19l0-.026c-.009-.057-.02-.114-.03-.171-.054-.334-.11-.667-.173-1-.011-.059-.025-.119-.036-.178-.031-.159-.064-.317-.1-.476-.039-.194-.075-.387-.118-.581-.023-.108-.05-.216-.075-.323-.039-.173-.08-.345-.121-.518-.032-.134-.06-.267-.094-.4-.039-.16-.084-.32-.125-.479s-.09-.348-.138-.521c-.023-.086-.043-.171-.067-.257-.063-.227-.133-.454-.2-.682-.043-.148-.085-.3-.13-.443l-.037-.126q-.188-.613-.393-1.225l0-.015-.037-.105c-.123-.363-.248-.725-.379-1.088-.02-.057-.043-.114-.064-.171-.049-.136-.1-.271-.153-.406-.073-.194-.144-.389-.219-.583-.048-.124-.1-.246-.149-.37q-.089-.226-.181-.451c-.045-.11-.087-.22-.132-.33-.092-.22-.188-.438-.282-.658-.049-.115-.1-.231-.148-.346l-.053-.125q-.254-.574-.521-1.144l-.024-.048c-.05-.108-.1-.214-.156-.321-.14-.294-.28-.588-.426-.88-.023-.046-.047-.091-.07-.137-.119-.238-.244-.474-.367-.71-.1-.191-.2-.385-.3-.575l-.058-.1q-.494-.921-1.023-1.824c-.03-.051-.057-.1-.087-.154-.09-.154-.185-.3-.276-.456-.148-.246-.3-.492-.448-.736-.135-.218-.274-.434-.412-.65-.154-.241-.308-.481-.466-.719-.052-.08-.1-.16-.155-.239s-.1-.146-.155-.221c-.437-.648-.883-1.289-1.344-1.915h0l-.01-.012q-.491-.666-1-1.312l-.045-.058c-.249-.317-.5-.628-.759-.938-.049-.06-.1-.121-.145-.18l-.009-.011q-.452-.543-.916-1.072l-.047-.052c-.094-.106-.189-.208-.283-.313-.2-.22-.392-.441-.592-.656l-.114-.12c-.134-.143-.271-.284-.406-.425-.15-.157-.3-.316-.449-.47-.056-.057-.114-.112-.171-.168-.147-.149-.3-.294-.444-.44-.128-.126-.254-.255-.383-.379-.074-.07-.149-.137-.223-.208q-.241-.228-.484-.45c-.112-.1-.222-.21-.335-.312-.089-.08-.179-.155-.269-.234q-.243-.215-.488-.426c-.1-.086-.2-.175-.3-.259s-.218-.178-.327-.268q-.239-.2-.478-.39c-.083-.067-.165-.137-.249-.2-.136-.108-.274-.209-.411-.314s-.3-.229-.447-.341c-.061-.046-.121-.094-.182-.139-.184-.136-.371-.264-.557-.4-.125-.089-.249-.179-.375-.266l-.1-.07q-.5-.343-1.007-.665l-.009-.006-.072-.044c-.305-.193-.612-.383-.921-.564l-.233-.135-10.236-5.91c-.014-.05-.028-.1-.042-.151-.048-.175-.1-.349-.153-.524-.118-.413-.236-.827-.362-1.239-.015-.049-.028-.1-.043-.148-.061-.2-.129-.4-.192-.6-.112-.356-.224-.712-.342-1.068-.023-.07-.044-.14-.067-.21-.066-.2-.139-.393-.206-.59-.114-.331-.228-.663-.346-.994-.032-.086-.06-.174-.091-.26-.07-.195-.146-.388-.219-.583-.113-.3-.226-.607-.342-.91-.036-.094-.069-.188-.106-.282-.075-.192-.155-.383-.231-.574q-.175-.44-.354-.879c-.04-.1-.077-.193-.117-.291-.08-.192-.165-.384-.247-.576-.12-.283-.241-.567-.364-.85-.042-.1-.081-.192-.123-.288-.081-.182-.166-.363-.248-.546-.138-.306-.276-.611-.417-.916-.047-.1-.092-.205-.14-.307-.074-.159-.153-.316-.229-.474q-.247-.519-.5-1.034c-.06-.121-.116-.243-.176-.364s-.123-.237-.183-.355q-.329-.652-.669-1.3c-.074-.141-.144-.283-.218-.424-.045-.083-.091-.164-.135-.247-.141-.262-.284-.523-.428-.785-.157-.285-.313-.57-.474-.854-.147-.26-.3-.519-.446-.778-.109-.187-.214-.377-.323-.564-.039-.067-.081-.132-.121-.2q-.631-1.069-1.29-2.119c-.076-.121-.155-.241-.231-.362q-.578-.909-1.179-1.8c-.066-.1-.129-.2-.2-.3s-.128-.184-.192-.276c-.16-.234-.322-.466-.483-.7q-.284-.409-.573-.814-.247-.344-.5-.686c-.11-.15-.217-.3-.328-.453-.062-.083-.127-.164-.189-.247q-.594-.8-1.2-1.575c-.053-.068-.1-.138-.158-.207l-.041-.05q-.638-.81-1.293-1.6l-.06-.074c-.107-.128-.217-.251-.324-.379-.3-.359-.606-.716-.914-1.068-.047-.055-.094-.111-.142-.166-.116-.132-.236-.26-.354-.392q-.417-.469-.84-.931c-.075-.081-.148-.167-.224-.248-.1-.111-.208-.216-.311-.326q-.423-.45-.851-.892c-.1-.1-.2-.213-.3-.318-.078-.079-.158-.155-.237-.234-.314-.318-.631-.629-.949-.939-.118-.114-.233-.234-.352-.348-.046-.044-.092-.085-.138-.128q-.639-.61-1.29-1.2c-.053-.048-.1-.1-.158-.147l-.02-.017q-.738-.664-1.488-1.3l-.1-.088c-.121-.1-.244-.2-.365-.3-.345-.287-.691-.571-1.039-.849-.071-.056-.14-.116-.211-.172-.122-.1-.247-.187-.37-.282q-.456-.355-.917-.7c-.1-.076-.2-.156-.3-.23s-.211-.148-.315-.224q-.433-.314-.869-.618c-.126-.088-.25-.181-.377-.268-.085-.059-.172-.113-.258-.171-.283-.192-.567-.378-.852-.563-.146-.095-.29-.195-.436-.289-.069-.044-.14-.083-.209-.127-.274-.173-.55-.339-.825-.506-.163-.1-.325-.2-.489-.3q-.176-.1-.354-.206-.577-.333-1.15-.643l-.034-.018q-.682-.368-1.359-.7l-.079-.041c-.1-.049-.2-.092-.3-.141-.325-.158-.65-.312-.972-.458-.061-.028-.123-.059-.184-.087-.1-.044-.194-.081-.292-.124q-.444-.194-.885-.375c-.09-.037-.181-.079-.271-.115-.07-.028-.138-.051-.208-.078-.319-.126-.635-.244-.951-.358-.1-.035-.195-.076-.291-.11l-.094-.031c-.446-.155-.889-.3-1.329-.435l-.039-.013q-.53-.16-1.054-.3l-.035-.128c-.052-.188-.111-.375-.164-.563-.147-.517-.3-1.035-.453-1.553-.016-.05-.029-.1-.045-.152-.073-.237-.153-.474-.228-.711-.136-.43-.271-.86-.414-1.29-.025-.075-.047-.151-.072-.226-.079-.237-.166-.472-.247-.708-.137-.4-.273-.8-.417-1.2-.034-.095-.065-.19-.1-.285-.086-.237-.179-.473-.267-.711-.134-.36-.268-.721-.406-1.08-.04-.1-.077-.209-.117-.312-.092-.234-.189-.467-.282-.7-.139-.35-.278-.7-.421-1.047-.045-.107-.085-.215-.13-.322-.1-.234-.2-.467-.3-.7-.144-.339-.288-.678-.435-1.016-.047-.108-.091-.215-.139-.323-.1-.221-.2-.44-.3-.661-.164-.364-.328-.728-.5-1.091-.053-.115-.1-.23-.157-.345-.09-.193-.186-.382-.278-.574q-.292-.614-.593-1.225c-.068-.138-.132-.276-.2-.414s-.152-.291-.226-.438q-.383-.758-.778-1.51c-.086-.165-.168-.333-.257-.5-.058-.109-.119-.217-.177-.326-.164-.3-.331-.609-.5-.913-.187-.341-.375-.682-.566-1.022q-.256-.454-.518-.9c-.119-.207-.235-.416-.356-.622-.052-.089-.109-.176-.16-.264q-.754-1.279-1.542-2.536c-.073-.116-.149-.231-.223-.347q-.708-1.117-1.444-2.213c-.078-.116-.151-.235-.229-.351s-.166-.239-.249-.359c-.193-.283-.388-.563-.583-.843q-.333-.478-.671-.952-.3-.418-.6-.832c-.124-.169-.244-.342-.369-.51-.075-.1-.155-.2-.23-.3q-.7-.934-1.41-1.849c-.069-.088-.135-.179-.2-.267l-.057-.07q-.76-.964-1.541-1.9l-.067-.083c-.126-.151-.256-.3-.382-.447-.359-.426-.72-.851-1.085-1.269-.055-.063-.108-.129-.163-.191-.14-.159-.282-.31-.423-.468q-.5-.557-1-1.106c-.087-.095-.172-.193-.258-.287-.123-.132-.249-.258-.372-.39q-.5-.536-1.013-1.061c-.119-.123-.235-.249-.353-.371-.095-.1-.192-.187-.286-.283q-.558-.563-1.124-1.111c-.14-.135-.276-.276-.416-.41-.056-.053-.112-.1-.169-.157q-.748-.714-1.509-1.4c-.069-.063-.136-.129-.205-.191l-.028-.024q-.876-.789-1.768-1.543l-.114-.1c-.141-.119-.285-.23-.427-.348-.413-.344-.828-.684-1.245-1.016-.082-.066-.164-.136-.246-.2-.145-.115-.294-.222-.44-.335q-.543-.422-1.091-.832c-.119-.089-.236-.184-.355-.271s-.251-.177-.375-.267q-.515-.375-1.034-.735c-.148-.1-.3-.213-.444-.315-.1-.07-.2-.134-.306-.2-.337-.228-.677-.451-1.016-.672-.171-.111-.341-.23-.513-.339-.082-.052-.165-.1-.247-.152-.327-.205-.656-.4-.984-.6-.193-.116-.384-.239-.577-.353l-.42-.245c-.42-.243-.84-.476-1.257-.7l-.108-.061c-.062-.033-.122-.062-.184-.1q-.7-.377-1.4-.726c-.057-.029-.115-.061-.172-.089l-.075-.035c-.508-.25-1.013-.487-1.516-.714-.048-.022-.1-.047-.146-.069s-.124-.052-.187-.079c-.5-.224-1.008-.439-1.507-.64l-.022-.009,0,0c-.52-.208-1.036-.4-1.55-.583-.06-.021-.12-.047-.179-.067s-.089-.028-.134-.044q-.751-.262-1.494-.489l-.092-.03c-.054-.016-.107-.028-.161-.044-.523-.156-1.043-.3-1.559-.43l-.052-.015-.016,0c-.543-.135-1.08-.252-1.613-.359-.052-.01-.1-.024-.157-.034l-.154-.027c-.139-.027-.278-.051-.417-.075-.184-.032-.367-.065-.55-.093-.14-.022-.28-.043-.42-.063l-.3-.046c-.073-.01-.145-.016-.219-.026q-.242-.03-.483-.057c-.164-.018-.329-.035-.493-.051s-.319-.029-.478-.041c-.089-.007-.178-.016-.267-.023-.069,0-.137-.006-.206-.01-.18-.012-.359-.02-.538-.028-.15-.007-.3-.013-.448-.016-.178,0-.356-.007-.533-.008-.1,0-.193,0-.288,0-.046,0-.091,0-.137,0-.241,0-.479.01-.716.018-.1,0-.207.006-.309.011q-.507.025-1.006.068h-.011l-.053.006c-.357.033-.709.075-1.06.123l-.313.046q-.449.067-.89.151c-.055.011-.111.017-.165.029l-.049.011c-.448.09-.888.195-1.324.311l-.232.062q-.64.177-1.262.39l-.092.029c-.071.025-.139.053-.209.079-.183.066-.365.133-.545.2-.114.045-.227.09-.34.136-.179.074-.357.152-.534.23-.108.047-.215.1-.322.145-.19.088-.376.181-.563.274-.089.046-.179.089-.268.135q-.41.214-.809.444l-3.418,1.986q.4-.231.809-.445c.089-.046.179-.089.268-.134.186-.094.373-.187.563-.275.107-.049.215-.1.323-.146q.264-.119.533-.229c.113-.047.226-.093.34-.137q.271-.106.545-.2c.1-.036.2-.073.3-.108q.622-.214,1.262-.391l.232-.062c.436-.115.876-.221,1.324-.31.071-.015.144-.027.215-.04.294-.056.591-.107.89-.152l.313-.045c.351-.049.7-.091,1.06-.123l.065-.007c.332-.03.668-.052,1.006-.069.1,0,.206-.006.309-.01.237-.009.476-.016.716-.018.141,0,.283,0,.425,0,.177,0,.354,0,.533.008.148,0,.3.01.447.016.179.007.358.016.539.027q.236.014.473.033c.159.012.318.025.478.041s.328.033.493.051.322.037.484.058.347.046.522.071c.14.02.28.041.42.063.182.029.366.061.549.093.139.025.278.049.418.075.1.019.206.042.309.062.534.107,1.071.224,1.614.358l.068.018c.515.129,1.036.274,1.559.43l.252.075q.741.225,1.494.488l.314.112c.514.183,1.03.375,1.55.583l.026.01c.5.2,1,.417,1.509.641l.332.147q.756.341,1.517.715c.082.04.165.083.247.125q.7.348,1.4.725l.294.157c.418.227.836.461,1.257.7.334.193.665.4,1,.6s.657.4.983.6c.255.161.508.326.762.492.339.22.678.442,1.015.671.251.17.5.344.75.518q.519.362,1.034.735.367.266.731.538.547.408,1.09.831c.229.178.459.356.687.537.418.332.831.673,1.244,1.016.18.15.362.3.541.449q.891.755,1.768,1.542c.08.072.158.146.237.219q.758.688,1.506,1.4c.2.187.389.379.584.568q.564.55,1.123,1.11.322.326.642.656.509.524,1.011,1.059c.212.225.423.451.633.679q.5.546,1,1.1c.2.219.392.437.586.66.366.418.726.843,1.085,1.27.149.177.3.351.449.529q.78.94,1.541,1.9c.088.112.174.226.261.338q.714.914,1.41,1.849c.2.27.4.54.6.813s.4.552.6.83q.339.475.673.955.292.419.581.841c.161.236.32.474.479.711q.734,1.095,1.443,2.209c.075.117.151.233.225.351q.788,1.255,1.54,2.534.262.444.519.89t.516.9q.287.511.568,1.025c.166.3.333.606.5.911.147.274.29.55.434.825q.4.752.778,1.51.215.426.426.852.3.612.594,1.227c.145.3.291.61.433.917.169.363.333.728.5,1.092.147.328.3.655.439.983s.291.676.435,1.015.289.682.43,1.024.282.7.421,1.047.269.676.4,1.014c.138.359.272.718.4,1.078.124.333.248.666.368,1,.142.4.278.793.415,1.189.108.313.217.627.322.94.143.429.277.858.413,1.287.091.288.185.576.273.865.158.517.306,1.036.453,1.553.066.231.136.461.2.691.362.1.726.2,1.093.312q.66.2,1.329.435c.128.045.257.094.385.14.316.114.633.232.952.358.159.063.319.128.479.193q.44.18.884.375c.159.07.317.139.476.211.323.146.647.3.973.458.126.061.252.119.378.182q.676.336,1.358.7.59.319,1.185.661c.282.163.561.336.842.5s.551.333.825.506c.216.136.43.276.645.416.285.185.569.371.852.563.212.144.424.291.635.438q.436.3.868.617.31.225.619.455.46.343.915.7c.194.151.389.3.582.455.348.277.693.561,1.038.848.156.129.312.256.466.386q.751.636,1.488,1.3c.06.054.119.11.178.165q.649.589,1.29,1.2c.164.157.326.318.49.476q.477.464.949.938c.181.182.36.367.54.552q.428.441.85.891.269.287.537.576c.282.306.56.617.838.929.165.186.332.37.5.559.307.352.611.709.914,1.068.128.151.258.3.384.453q.655.788,1.293,1.6c.067.085.132.172.2.257q.61.778,1.2,1.575.259.348.515.7c.167.229.334.458.5.689q.288.4.572.813.242.347.483.7c.131.193.26.387.39.581q.6.893,1.178,1.8c.077.121.155.241.232.362q.66,1.049,1.29,2.119c.15.254.3.509.445.764s.3.516.445.775c.16.284.317.57.474.856.144.261.288.523.428.786.119.222.235.446.353.669q.339.647.668,1.3.182.359.36.721.254.516.5,1.036.185.388.368.777c.142.306.281.614.419.921.124.276.249.553.37.83s.244.568.365.853.244.575.363.864.237.586.353.879.227.571.337.857c.117.3.229.607.342.91.1.28.208.561.309.841.119.332.233.664.347,1,.091.266.184.533.273.8.118.356.23.712.343,1.069.079.248.159.5.234.744.127.415.246.831.364,1.246.064.223.131.446.193.669l10.236,5.909c.387.224.772.458,1.155.7l.072.045c.374.238.745.486,1.114.74.126.087.25.178.375.267.247.175.494.352.74.534.149.112.3.227.447.341.221.17.441.341.66.517.16.128.319.259.478.39q.314.26.625.527.244.21.487.425.3.27.605.547.242.223.483.45c.2.193.405.389.607.586.148.146.3.291.444.439.209.21.414.424.62.639.135.142.272.282.406.426.238.254.472.514.706.775.094.1.189.207.282.313q.492.559.972,1.135c.048.058.1.119.143.177.271.329.541.661.805,1q.5.64.988,1.3l.02.027c.462.626.907,1.268,1.345,1.915.1.153.208.305.309.459.157.238.312.479.466.72.138.216.276.432.412.65.151.243.3.49.447.736.122.2.244.406.364.611q.528.9,1.024,1.825c.121.224.237.45.354.676s.248.473.368.712c.169.336.332.673.494,1.012.052.109.107.217.159.327q.307.655.6,1.316c.051.117.1.234.15.351q.212.491.413.984.092.226.181.451.189.475.368.952c.051.136.1.272.153.408q.23.627.442,1.257l.037.105q.228.683.434,1.366c.045.146.085.292.129.438.092.315.182.629.268.944.047.174.091.347.136.52q.114.439.219.879.062.26.121.52c.068.3.131.6.193.9.033.159.066.318.1.477q.114.594.21,1.185c.009.055.019.11.029.164.071.449.132.9.188,1.343.016.127.028.253.042.38q.054.479.1.957c.013.152.025.305.036.458q.034.452.055.9c.007.145.015.289.02.434.015.426.025.851.024,1.272l-.005,1.857c0,.442-.013.876-.032,1.3-.005.121-.016.237-.022.356-.017.293-.036.585-.062.871-.015.165-.033.327-.051.49-.026.242-.054.482-.086.717-.024.174-.05.346-.078.516-.034.218-.071.432-.111.644q-.054.286-.113.566t-.13.567c-.053.219-.11.435-.169.648-.046.167-.093.333-.143.5-.079.256-.162.506-.25.753-.048.133-.093.268-.142.4-.157.414-.325.817-.507,1.2q-.211.448-.442.87l0,.005c-.159.288-.325.564-.5.834-.035.054-.072.105-.107.158-.132.2-.267.393-.407.581-.056.076-.113.151-.171.225-.133.171-.269.337-.407.5-.054.062-.106.125-.16.186-.192.214-.387.421-.59.618l-.089.081q-.266.252-.544.486c-.067.057-.136.111-.205.166q-.238.191-.485.368c-.068.049-.135.1-.2.146-.229.157-.463.308-.7.448l3.418-1.986c.24-.139.473-.291.7-.448.069-.047.136-.1.2-.146q.247-.177.485-.368c.069-.055.137-.11.205-.166q.278-.233.543-.486l.089-.081c.2-.2.4-.4.59-.618.055-.061.106-.124.16-.186q.208-.242.407-.5c.058-.074.115-.148.172-.225.14-.188.275-.383.407-.581.035-.053.072-.1.107-.158l.032-.047q.243-.381.466-.787l0,0q.221-.4.424-.829l.017-.041c.182-.386.35-.788.507-1.2l.044-.1c.035-.1.063-.2.1-.295.087-.247.171-.5.249-.753.021-.068.047-.131.066-.2.029-.1.05-.2.077-.3.059-.214.116-.43.17-.65.021-.09.048-.174.068-.264s.04-.2.061-.3q.06-.281.114-.568c.018-.1.041-.192.058-.291.02-.115.034-.236.053-.353.027-.171.053-.343.078-.517.012-.088.028-.173.039-.263.018-.148.031-.3.047-.454s.036-.324.051-.49c.006-.066.015-.129.02-.2.018-.221.029-.449.042-.675.007-.119.016-.235.022-.355l0-.089q.025-.563.027-1.145v-.068l.006-1.857c0-.354,0-.711-.015-1.069" transform="translate(-263.323 562.068)" fill="none" clip-rule="evenodd"/></clipPath><clipPath id="g"><path d="M284.753-401.019c0-.067-.007-.135-.01-.2,0-.145-.013-.29-.02-.435-.009-.169-.013-.338-.024-.508-.008-.13-.021-.261-.031-.392-.012-.153-.023-.306-.037-.459-.009-.1-.015-.2-.024-.3-.021-.217-.048-.436-.073-.654-.014-.128-.026-.254-.042-.382l-.014-.125q-.075-.593-.169-1.19l0-.026c-.009-.059-.021-.117-.031-.176-.054-.332-.11-.663-.172-1-.012-.06-.025-.119-.036-.179-.031-.159-.064-.318-.1-.477-.039-.193-.075-.386-.117-.579-.024-.107-.051-.215-.075-.323q-.059-.26-.121-.52c-.032-.132-.06-.265-.093-.4-.04-.159-.084-.319-.126-.479s-.091-.349-.138-.524c-.023-.085-.044-.17-.067-.255-.063-.227-.133-.454-.2-.681-.044-.149-.085-.3-.131-.447l-.036-.124q-.188-.613-.393-1.225l0-.015-.04-.114q-.182-.54-.376-1.078c-.021-.057-.043-.113-.065-.171-.049-.136-.1-.272-.153-.408-.073-.193-.144-.388-.218-.581-.049-.124-.1-.247-.149-.37q-.089-.225-.181-.451c-.045-.11-.087-.22-.132-.33-.091-.219-.186-.435-.28-.653-.051-.118-.1-.236-.152-.353l-.052-.122q-.254-.574-.521-1.144l-.023-.048c-.052-.111-.107-.22-.16-.329-.139-.292-.278-.583-.422-.873-.023-.046-.048-.091-.071-.137-.119-.238-.244-.475-.368-.711-.1-.191-.194-.384-.3-.574l-.058-.1q-.495-.922-1.024-1.825c-.029-.051-.056-.1-.086-.155-.09-.153-.185-.3-.277-.455-.147-.247-.3-.493-.448-.737-.135-.218-.273-.434-.412-.649-.154-.241-.308-.482-.466-.72-.052-.079-.1-.16-.155-.239s-.1-.146-.155-.221c-.437-.648-.883-1.289-1.345-1.915h0l-.013-.017q-.489-.663-1-1.307l-.045-.059c-.249-.316-.5-.626-.757-.935-.049-.061-.1-.122-.147-.182l-.009-.012q-.452-.543-.915-1.071l-.046-.051c-.1-.108-.193-.213-.289-.32-.195-.218-.389-.437-.587-.65l-.112-.118c-.135-.145-.273-.286-.408-.428s-.3-.316-.449-.469c-.056-.057-.113-.112-.17-.168-.147-.148-.3-.294-.446-.441-.128-.126-.254-.255-.384-.379-.073-.07-.148-.136-.222-.206-.16-.151-.322-.3-.483-.45-.112-.1-.223-.21-.336-.312-.089-.08-.179-.156-.268-.234q-.243-.215-.488-.425c-.1-.085-.2-.175-.3-.259s-.217-.176-.325-.266c-.16-.132-.32-.263-.481-.392-.083-.067-.165-.137-.248-.2-.135-.107-.273-.208-.409-.312s-.3-.23-.449-.342c-.061-.046-.121-.094-.182-.139-.183-.135-.369-.262-.554-.393-.127-.09-.252-.182-.379-.27l-.1-.069q-.5-.343-1.007-.665l-.008-.005-.075-.046q-.458-.289-.919-.562l-.233-.136-10.239-5.911c-.014-.052-.028-.1-.043-.154-.048-.174-.1-.347-.152-.521-.118-.414-.237-.828-.363-1.241-.015-.05-.028-.1-.043-.148-.061-.2-.128-.4-.191-.594-.113-.358-.225-.716-.344-1.073-.023-.07-.044-.14-.067-.209-.065-.194-.137-.389-.2-.583-.114-.334-.23-.668-.349-1-.031-.086-.059-.172-.09-.258-.07-.193-.146-.386-.218-.579-.113-.3-.226-.61-.343-.914-.036-.094-.069-.188-.106-.282-.075-.191-.154-.381-.23-.571-.117-.294-.234-.589-.355-.883-.04-.1-.077-.193-.117-.289-.079-.191-.164-.381-.245-.572-.121-.285-.241-.57-.366-.854-.042-.1-.081-.192-.123-.288-.08-.181-.165-.361-.247-.542-.138-.307-.277-.615-.419-.921-.047-.1-.092-.2-.139-.306-.074-.158-.153-.314-.228-.471q-.247-.519-.5-1.036c-.06-.121-.116-.243-.177-.365s-.123-.236-.183-.355q-.329-.653-.67-1.3c-.074-.14-.143-.281-.217-.42-.043-.082-.089-.163-.133-.245-.142-.265-.287-.528-.432-.791-.156-.284-.311-.567-.47-.85-.147-.261-.3-.52-.447-.78-.108-.187-.213-.376-.322-.563-.039-.067-.081-.132-.121-.2q-.631-1.069-1.291-2.121c-.076-.119-.153-.238-.229-.357q-.58-.911-1.181-1.806c-.066-.1-.129-.2-.2-.3s-.128-.184-.191-.276q-.241-.352-.485-.7-.284-.407-.571-.81-.247-.345-.5-.689c-.109-.15-.216-.3-.327-.452-.062-.084-.127-.164-.189-.248q-.593-.8-1.2-1.575c-.053-.068-.1-.138-.157-.206l-.041-.051q-.639-.809-1.294-1.6l-.059-.073c-.105-.127-.213-.248-.32-.373-.3-.361-.609-.721-.918-1.074-.047-.054-.093-.111-.141-.165-.116-.132-.236-.26-.353-.392q-.418-.469-.841-.932c-.075-.081-.148-.166-.223-.247-.1-.111-.209-.217-.312-.327q-.423-.45-.851-.892c-.1-.1-.2-.212-.3-.316-.078-.079-.158-.155-.236-.234q-.473-.476-.951-.94c-.117-.114-.232-.233-.35-.346-.046-.044-.093-.085-.139-.129q-.637-.608-1.285-1.195c-.055-.049-.108-.1-.162-.151l-.021-.018q-.738-.664-1.488-1.3l-.1-.087c-.121-.1-.243-.2-.364-.3-.346-.287-.691-.572-1.041-.85-.071-.056-.14-.116-.211-.172-.123-.1-.248-.188-.371-.283q-.455-.354-.915-.7c-.1-.076-.2-.156-.3-.231s-.211-.149-.316-.225q-.433-.314-.868-.618c-.126-.087-.25-.181-.377-.267-.085-.059-.172-.113-.258-.171-.284-.193-.569-.379-.854-.565-.145-.094-.289-.194-.434-.287-.069-.044-.139-.084-.208-.128-.275-.173-.552-.34-.828-.507-.162-.1-.323-.2-.487-.3l-.353-.206q-.578-.333-1.151-.643l-.034-.018q-.682-.368-1.358-.7l-.081-.042c-.1-.049-.2-.093-.3-.142-.325-.157-.649-.311-.971-.457-.062-.028-.124-.06-.186-.088-.1-.044-.193-.081-.29-.123q-.447-.2-.891-.378c-.09-.037-.182-.079-.273-.115-.068-.027-.134-.049-.2-.077-.325-.128-.649-.248-.971-.366-.095-.034-.19-.073-.284-.106l-.085-.028q-.671-.235-1.334-.437l-.05-.016q-.516-.156-1.027-.292c-.013-.045-.025-.09-.038-.135-.052-.189-.111-.377-.165-.565-.146-.516-.294-1.031-.451-1.547-.016-.051-.03-.1-.045-.155-.073-.237-.153-.473-.228-.71-.135-.43-.27-.858-.413-1.287-.025-.076-.048-.152-.073-.228-.079-.235-.165-.47-.246-.706-.137-.4-.274-.8-.417-1.2-.034-.095-.065-.19-.1-.285-.086-.237-.178-.472-.267-.709-.133-.36-.267-.72-.405-1.079-.04-.1-.077-.209-.118-.313-.091-.235-.189-.468-.282-.7-.139-.349-.277-.7-.42-1.045-.044-.108-.085-.216-.13-.323-.1-.234-.2-.466-.3-.7-.144-.339-.288-.678-.435-1.016-.047-.107-.091-.215-.138-.322-.1-.221-.2-.44-.3-.659-.164-.365-.328-.73-.5-1.094-.053-.114-.1-.229-.156-.344-.09-.191-.186-.381-.277-.572q-.293-.615-.594-1.228c-.068-.138-.131-.276-.2-.413s-.152-.291-.226-.437q-.383-.759-.779-1.512c-.086-.165-.168-.332-.256-.5-.058-.109-.119-.216-.177-.325-.164-.306-.332-.611-.5-.915q-.281-.511-.566-1.021c-.171-.3-.344-.6-.518-.906-.119-.207-.235-.415-.355-.621-.052-.088-.108-.175-.16-.263q-.755-1.279-1.542-2.537c-.073-.116-.15-.231-.224-.348q-.709-1.117-1.445-2.214c-.078-.115-.151-.235-.228-.35s-.166-.239-.249-.359c-.193-.283-.388-.563-.584-.844q-.332-.478-.67-.95-.3-.418-.6-.833c-.124-.169-.244-.341-.368-.509-.075-.1-.154-.2-.23-.3q-.7-.935-1.411-1.849c-.068-.088-.134-.179-.2-.267l-.058-.071q-.76-.964-1.54-1.9l-.067-.082c-.125-.151-.254-.3-.38-.445-.36-.428-.723-.854-1.089-1.273-.055-.062-.107-.127-.161-.189-.139-.158-.282-.31-.421-.467q-.5-.559-1-1.107c-.087-.1-.172-.193-.258-.287-.123-.132-.25-.259-.373-.391q-.5-.535-1.012-1.06c-.119-.122-.235-.25-.354-.371-.1-.1-.193-.188-.287-.284-.371-.375-.746-.743-1.122-1.109-.14-.135-.276-.276-.416-.411-.056-.053-.113-.1-.17-.158q-.741-.707-1.495-1.39c-.073-.067-.145-.137-.218-.2l-.03-.026q-.874-.788-1.766-1.54l-.114-.1c-.141-.119-.286-.231-.428-.349-.413-.343-.827-.684-1.244-1.016-.082-.066-.163-.136-.246-.2-.145-.114-.294-.222-.44-.335q-.543-.423-1.091-.832c-.119-.089-.236-.183-.355-.271s-.251-.177-.375-.267q-.515-.373-1.034-.734c-.149-.1-.3-.214-.444-.316-.1-.07-.206-.134-.307-.2-.336-.228-.675-.449-1.013-.67-.172-.112-.343-.231-.515-.34-.082-.053-.166-.1-.248-.152-.326-.206-.654-.4-.981-.6-.193-.116-.384-.24-.578-.354l-.42-.245c-.42-.242-.839-.475-1.256-.7l-.11-.061c-.062-.034-.124-.064-.187-.1q-.7-.376-1.4-.724c-.058-.029-.116-.062-.175-.091l-.076-.036c-.507-.25-1.012-.486-1.514-.714l-.147-.069c-.063-.029-.126-.052-.189-.08-.505-.224-1.008-.439-1.508-.64l-.02-.008h0c-.52-.208-1.035-.4-1.548-.583-.06-.021-.121-.047-.181-.068-.045-.016-.089-.028-.135-.044q-.751-.261-1.493-.488l-.092-.031c-.054-.016-.107-.028-.161-.044-.523-.156-1.044-.3-1.559-.43l-.052-.015-.016,0c-.543-.135-1.08-.252-1.615-.358-.051-.01-.1-.025-.156-.034s-.1-.017-.152-.027l-.418-.075c-.184-.032-.368-.064-.55-.093-.14-.022-.28-.043-.419-.063-.1-.015-.2-.033-.306-.046-.073-.01-.145-.016-.218-.026q-.242-.031-.483-.057c-.165-.018-.329-.036-.493-.051s-.32-.029-.479-.041c-.089-.007-.179-.017-.268-.023-.069,0-.136-.006-.205-.011-.18-.011-.359-.02-.537-.027-.15-.006-.3-.013-.45-.017-.177,0-.354-.006-.531-.007-.1,0-.194,0-.29,0-.047,0-.092,0-.138,0-.24,0-.478.009-.714.018-.1,0-.207.006-.31.01-.338.017-.673.039-1.005.069h-.012l-.056.007c-.355.032-.707.075-1.056.123l-.315.046q-.447.068-.887.152c-.055.01-.113.017-.167.028l-.05.012c-.448.089-.888.194-1.323.31l-.233.062q-.64.178-1.261.391l-.093.029c-.071.024-.14.053-.21.079q-.273.1-.543.2c-.114.045-.228.09-.341.137-.179.074-.357.151-.533.229-.107.048-.215.1-.321.145-.19.089-.378.181-.564.276-.089.045-.179.087-.267.134q-.41.214-.809.444L51.6-505.41q.4-.232.809-.444c.088-.047.178-.089.267-.134.187-.094.374-.187.563-.275.107-.05.215-.1.322-.145.177-.079.354-.156.533-.23q.169-.07.341-.137.27-.105.543-.2l.3-.107q.621-.214,1.261-.391l.233-.062c.435-.115.876-.221,1.323-.31.072-.015.145-.026.218-.04q.441-.084.888-.151l.314-.046c.338-.046.679-.087,1.024-.119L18.155-483.576c.358-.208.727-.4,1.1-.574.123-.058.251-.106.376-.16.257-.111.516-.221.781-.318.215-.079.434-.148.653-.217.132-.042.262-.087.4-.125.274-.078.554-.144.836-.206.091-.02.18-.046.272-.065.348-.07.7-.127,1.062-.175.1-.013.192-.023.288-.034.327-.038.658-.069.993-.088l.1-.007c.338-.016.681-.018,1.026-.016.248,0,.5.013.751.025.2.009.405.017.611.033s.424.041.637.065c.232.026.464.05.7.085.2.028.4.064.6.1.252.044.5.088.758.141.172.035.345.075.518.115q.406.094.816.2c.174.046.347.094.521.144.3.086.6.18.9.278.142.047.283.091.426.14q1.328.459,2.7,1.08c.141.064.284.133.425.2q.482.227.967.474.239.121.479.248c.429.226.859.459,1.293.708l39.341-22.862c.174.083.346.16.52.245l.249.125q.7.348,1.4.725c.1.053.2.1.3.158q.626.34,1.256.7c.335.193.666.4,1,.6s.656.4.981.6c.256.161.51.327.764.493.338.22.676.441,1.012.669.252.171.5.345.753.52q.517.361,1.031.733.367.266.733.539.547.409,1.089.831c.229.178.46.356.688.538.417.332.831.672,1.243,1.014.18.151.363.3.543.45q.89.754,1.766,1.541c.082.074.162.151.244.225q.756.685,1.5,1.394c.2.187.389.378.584.567.377.367.752.736,1.124,1.111q.322.324.641.654.508.524,1.011,1.06.318.338.634.679.5.546,1,1.1c.2.219.392.437.585.659.366.418.727.844,1.087,1.271.149.176.3.351.448.529q.78.939,1.541,1.9c.088.111.173.225.261.337q.715.914,1.41,1.849.3.4.6.811t.6.831q.338.475.672.954.292.419.581.84c.161.237.319.475.479.712q.735,1.1,1.444,2.211c.074.117.15.231.224.349q.789,1.255,1.542,2.536.26.441.516.885c.174.3.347.6.518.9.192.34.38.682.567,1.024.166.3.333.606.5.911.147.274.291.55.435.826q.394.751.776,1.508.215.425.427.853.3.61.592,1.223c.146.306.292.612.435.92q.252.543.5,1.089c.148.328.3.655.439.984s.292.677.436,1.016.289.68.429,1.022.282.7.421,1.047.269.675.4,1.013c.138.359.272.719.4,1.078.124.333.248.664.367,1,.142.4.278.793.415,1.19.108.313.217.626.321.939.142.428.276.856.412,1.285.091.289.185.578.273.867.156.513.3,1.026.45,1.54.067.236.14.472.2.708.357.1.716.2,1.077.308q.663.2,1.335.437c.122.043.245.09.368.134.323.117.646.238.972.366.158.063.317.128.476.192q.442.181.888.377c.16.069.319.139.479.211.322.146.645.3.97.457.128.062.255.121.384.184q.676.336,1.358.7.59.319,1.184.661c.282.163.562.336.842.5s.552.333.826.506c.216.135.431.276.645.416.285.185.569.371.852.563.213.144.424.291.635.439q.436.3.869.617.31.225.618.455.46.343.916.7c.194.151.389.3.582.455.348.277.694.562,1.039.849.155.129.311.255.466.386q.75.635,1.488,1.3c.062.056.123.114.184.171q.647.586,1.284,1.193c.165.157.328.319.491.478q.476.463.948.937c.181.183.361.368.541.553q.427.441.849.89c.179.191.359.382.536.576q.423.46.838.929c.166.186.332.371.5.559.307.353.611.71.913,1.069.128.151.257.3.383.451q.655.788,1.293,1.6c.067.086.133.174.2.26q.608.777,1.2,1.572.259.348.515.7t.5.689c.192.268.382.539.57.81.162.233.325.466.485.7.131.192.259.385.388.578q.6.895,1.179,1.8c.077.12.155.239.231.36q.661,1.05,1.29,2.12.225.38.444.763c.15.259.3.517.446.778.16.284.317.569.474.854.144.262.288.523.429.786.119.223.235.447.353.67q.34.647.669,1.3.181.359.359.72.255.517.5,1.037.185.388.367.777.213.46.419.921c.125.277.249.553.37.83s.244.567.365.852.245.577.363.866.238.586.354.88.226.569.336.855c.117.3.23.607.342.91.1.281.209.562.309.842.119.331.233.664.348,1,.091.265.184.531.272.8.118.357.231.714.344,1.071.078.248.158.5.234.743.125.412.243.824.361,1.236.065.227.134.454.2.681l10.239,5.912q.579.335,1.152.7l.075.046c.373.237.744.485,1.112.74.127.087.252.179.378.269q.37.261.736.533c.15.112.3.226.448.341q.331.254.659.516.241.193.48.392.313.258.622.525.245.211.489.426.3.269.6.546.243.223.484.45.3.289.605.586c.149.145.3.291.446.44.208.209.413.423.618.638.136.142.273.283.407.427.238.254.471.514.7.773.095.106.191.209.285.315q.492.559.971,1.134c.051.061.1.124.15.185q.4.49.8.992.506.645,1,1.307l.013.017c.462.626.908,1.268,1.346,1.916.1.153.207.3.308.458.158.239.313.48.467.722.138.215.276.431.411.648.152.244.3.491.448.738.122.2.244.4.363.609q.528.9,1.023,1.825c.12.224.237.45.354.676s.248.474.369.712q.252.5.493,1.011c.052.11.107.218.158.327q.308.655.6,1.316c.051.116.1.233.15.35.141.327.28.655.414.984.062.15.122.3.181.451q.189.475.368.952c.051.136.1.272.153.407q.23.628.442,1.257l.037.106q.228.682.435,1.365c.045.148.086.3.129.443.092.313.182.626.266.939.048.174.093.349.138.523q.114.439.219.878.062.26.121.519c.068.3.131.6.193.9.032.159.066.318.1.477q.114.591.21,1.181c.01.056.02.113.03.169q.106.674.188,1.342c.016.127.028.253.042.379.036.32.069.639.1.957.014.153.025.305.037.458q.033.452.055.9c.007.145.015.29.02.434.015.426.025.85.024,1.271l-.006,1.86c0,.443-.013.875-.032,1.3-.006.121-.016.238-.022.357-.017.293-.037.583-.062.869-.015.165-.033.327-.051.49-.026.241-.054.481-.086.717-.023.174-.05.346-.077.517-.034.217-.071.432-.111.643-.035.192-.074.38-.114.567s-.084.379-.129.566q-.08.329-.169.649c-.047.167-.093.333-.144.5-.078.256-.162.505-.249.752-.047.133-.093.269-.142.4-.158.415-.325.817-.507,1.2-.142.3-.289.593-.445.875h0q-.238.43-.5.832c-.035.055-.072.106-.108.16q-.2.3-.406.58c-.056.076-.113.15-.172.225q-.2.256-.407.5c-.054.062-.106.126-.16.186-.191.214-.387.421-.59.618l-.089.082q-.265.252-.543.485c-.067.056-.136.111-.2.166-.159.128-.321.25-.485.369-.068.049-.135.1-.2.146-.23.158-.463.308-.7.448l85.442-49.653c.241-.14.474-.291.7-.448.069-.048.137-.1.2-.146q.247-.177.486-.369c.069-.055.137-.109.2-.165q.278-.234.543-.485l.089-.082c.2-.2.4-.4.591-.618.054-.061.106-.124.159-.186.139-.162.275-.328.408-.5q.087-.111.171-.224c.14-.188.275-.382.407-.58.035-.054.073-.105.108-.16l.032-.048c.16-.251.315-.512.462-.779l.007-.011q.223-.4.425-.831l.017-.041c.182-.385.35-.788.507-1.2l.044-.1c.035-.1.064-.2.1-.295.087-.247.171-.5.25-.752.02-.068.046-.132.066-.2.029-.1.05-.2.077-.3.059-.213.116-.429.169-.648.022-.09.048-.175.069-.266s.039-.2.061-.3q.06-.28.113-.566c.018-.1.041-.193.058-.292.02-.115.034-.236.053-.352.027-.171.053-.343.078-.517.012-.089.028-.174.039-.263.018-.149.03-.3.047-.453s.036-.325.051-.491c.006-.066.015-.13.02-.2.018-.221.028-.447.042-.672.006-.12.016-.237.022-.357l.005-.088q.024-.564.027-1.145v-.068l.005-1.861c0-.354,0-.711-.015-1.068" transform="translate(-18.155 557.972)" fill="none" clip-rule="evenodd"/></clipPath><clipPath id="i"><path d="M73.042-449.686c18.328,10.582,33.935,32.813,40.037,54.944a39.407,39.407,0,0,1,9.49,4.033c15.455,8.923,28.613,27.677,33.748,46.342l10.239,5.912c13.084,7.554,23.657,25.866,23.614,40.9l-.006,1.86c-.043,15.034-10.684,21.1-23.768,13.549l-142.4-82.216C10.911-371.917.338-390.232.381-405.267l.005-1.86c0-.769.038-1.51.1-2.233C.429-410.22.4-411.076.4-411.923c.053-18.713,13.3-26.257,29.579-16.857,1.809-24.544,20.415-33.982,43.063-20.906" transform="translate(-0.38 455.577)" fill="none" clip-rule="evenodd"/></clipPath><clipPath id="k"><path d="M368.7-528.029c.015-5.3-3.713-11.751-8.323-14.412l-85.472-49.348c-4.61-2.662-8.359-.525-8.374,4.772l-.369,130.146.085.066c.349.277.694.562,1.039.849.155.129.311.255.466.386q.75.635,1.488,1.3c.062.056.123.114.184.171q.647.586,1.284,1.193c.165.157.328.319.492.478q.476.463.947.937c.181.183.361.368.542.553q.426.441.849.89c.179.191.358.382.536.576q.423.46.838.929c.166.186.333.371.5.559.307.353.611.71.914,1.069.127.151.257.3.383.451q.655.788,1.293,1.6c.067.086.133.174.2.26q.608.777,1.2,1.572.259.348.515.7t.5.689c.192.268.382.539.571.81q.244.349.485.7c.13.192.259.385.388.578q.6.895,1.179,1.8c.076.12.155.239.231.36q.66,1.05,1.29,2.12.224.38.444.763c.149.259.3.517.446.778.16.284.317.569.473.854.144.262.288.523.429.786.119.223.235.447.353.67q.34.647.669,1.3.182.359.359.72.255.517.5,1.037c.124.259.247.517.368.777.142.306.281.614.419.921.125.277.249.553.37.83s.244.567.365.852.244.577.363.866.237.586.354.88.226.569.336.855c.117.3.23.607.343.91.1.281.209.562.309.842.119.331.233.664.348,1,.091.265.184.531.272.8.118.357.231.714.344,1.071.078.248.158.5.234.743.125.412.243.824.361,1.236.065.227.134.454.2.681l10.239,5.912q.579.335,1.152.7l.075.046c.373.237.744.485,1.112.739.127.087.252.179.378.269.246.174.493.351.737.533.149.112.3.226.448.341q.331.254.659.516.241.193.48.392.313.258.622.525.245.211.489.426.3.269.6.546.243.222.484.449.3.289.605.586c.149.145.3.291.446.44.208.209.413.423.619.638.135.142.272.283.407.427.237.254.471.513.7.773.094.106.19.208.285.315q.491.559.971,1.134c.05.061.1.124.149.185.269.327.537.657.8.992q.506.645,1,1.307l.014.017c.462.626.908,1.268,1.345,1.916.1.153.207.3.308.458.158.239.313.48.467.722.138.215.276.431.411.648.152.244.3.491.448.738.122.2.244.4.363.609q.528.9,1.024,1.825c.12.224.236.45.354.676s.248.474.369.712c.168.336.332.673.493,1.011.052.11.107.218.159.327q.308.655.6,1.316c.051.116.1.233.15.35q.212.49.413.984c.062.15.122.3.181.451q.189.475.368.952c.051.136.1.272.153.407q.23.628.443,1.257l.037.106q.228.682.434,1.365c.045.148.086.3.13.443.092.313.182.626.267.939.047.174.092.349.137.523q.114.439.219.878c.041.173.082.346.121.519.068.3.131.6.193.9.033.159.066.318.1.477.062.323.117.645.171.967l16.809,9.7,25.023-14.542.336-148.76" transform="translate(-266.165 592.934)" fill="none" clip-rule="evenodd"/></clipPath><clipPath id="m"><path d="M367.911-487.2l-69.4-39.37c-.95-.548-1.724-.108-1.727.985a3.781,3.781,0,0,0,1.716,2.971l69.4,39.369c.95.549,1.723.108,1.727-.984a3.784,3.784,0,0,0-1.716-2.972" transform="translate(-296.786 526.806)" fill="none" clip-rule="evenodd"/></clipPath><clipPath id="o"><path d="M367.911-437.171l-69.4-39.369c-.95-.549-1.724-.108-1.727.984a3.781,3.781,0,0,0,1.716,2.972l69.4,39.369c.95.549,1.723.108,1.727-.984a3.783,3.783,0,0,0-1.716-2.972" transform="translate(-296.786 476.776)" fill="none" clip-rule="evenodd"/></clipPath><clipPath id="q"><path d="M367.911-387.141l-69.4-39.369c-.95-.549-1.724-.108-1.727.984a3.782,3.782,0,0,0,1.716,2.972l69.4,39.37c.95.548,1.723.108,1.727-.985a3.783,3.783,0,0,0-1.716-2.972" transform="translate(-296.786 426.746)" fill="none" clip-rule="evenodd"/></clipPath><clipPath id="s"><path d="M367.911-337.111l-69.4-39.37c-.95-.548-1.724-.108-1.727.984a3.781,3.781,0,0,0,1.716,2.972l69.4,39.369c.95.549,1.723.108,1.727-.984a3.783,3.783,0,0,0-1.716-2.972" transform="translate(-296.786 376.716)" fill="none" clip-rule="evenodd"/></clipPath><clipPath id="u"><path d="M367.911-287.081l-69.4-39.37c-.95-.548-1.724-.108-1.727.985a3.781,3.781,0,0,0,1.716,2.972l69.4,39.369c.95.549,1.723.108,1.727-.984a3.783,3.783,0,0,0-1.716-2.972" transform="translate(-296.786 326.686)" fill="none" clip-rule="evenodd"/></clipPath><clipPath id="w"><path d="M322.79-511.987c.015-5.3-3.713-11.751-8.323-14.412L229-575.747c-4.61-2.661-8.359-.525-8.374,4.772l-.222,98.136c.126.259.252.518.376.778.146.306.292.612.435.92.168.362.332.726.5,1.09.147.328.3.655.439.984s.292.677.435,1.016.289.681.43,1.022.282.7.421,1.047.269.675.4,1.014c.138.359.272.718.4,1.078.123.332.247.664.367,1,.142.4.278.793.415,1.19.108.314.217.627.321.94.142.427.277.856.412,1.284.091.289.185.578.273.867.156.513.3,1.026.45,1.539.067.236.14.473.2.708.357.1.716.2,1.078.309q.663.2,1.335.437c.122.043.245.09.368.134.322.117.646.238.972.366.158.063.317.128.476.193q.442.181.888.376c.16.07.319.139.478.212.322.146.646.3.97.457.128.062.255.121.383.184q.676.336,1.359.7.59.318,1.184.661c.282.162.562.336.842.5s.552.333.826.506c.216.136.43.277.645.417.285.185.569.371.852.563.212.144.424.291.635.438q.436.3.869.618.31.225.618.455.46.343.916.7c.194.151.389.3.583.456.348.277.694.562,1.039.849.155.129.311.255.465.386q.75.636,1.488,1.3c.062.056.122.114.184.17q.647.587,1.284,1.194c.165.157.328.318.491.478q.476.463.948.937.271.274.541.553.427.44.849.889c.179.191.358.382.536.575.282.306.561.617.838.929.166.186.332.371.5.56.307.352.611.709.914,1.068.127.151.256.3.383.451q.654.788,1.293,1.6c.067.086.133.175.2.26q.608.778,1.2,1.572.26.348.516.7c.167.229.334.458.5.689q.287.4.57.81c.162.233.325.466.485.7.13.192.259.385.388.578q.6.893,1.179,1.8c.077.121.155.24.231.36q.66,1.05,1.29,2.12.225.38.444.762c.15.259.3.517.446.778.16.283.317.569.474.854.143.262.288.523.428.786.119.223.236.447.353.67q.34.647.669,1.3.181.359.359.719.255.517.5,1.037c.123.258.246.517.367.777.142.306.281.614.419.921.125.276.249.552.37.83s.244.567.365.852.244.576.363.865.237.586.353.88.227.57.337.855c.116.3.229.607.342.911.1.28.209.561.309.841.12.332.234.664.348,1,.092.266.184.531.273.8.118.357.23.714.343,1.071.078.248.159.5.234.743.126.411.243.823.361,1.236.065.227.134.454.2.681l10.239,5.911q.58.335,1.152.7l.075.045c.374.238.744.485,1.112.74.127.087.253.179.378.269.247.175.493.351.737.533.15.112.3.227.448.341.221.17.44.341.659.516.16.129.321.26.48.392q.313.259.622.524.246.211.488.427c.2.179.4.362.6.546.161.149.323.3.483.45.2.193.4.388.605.585.148.146.3.292.446.441.208.209.413.423.618.638.136.142.273.283.407.427.237.254.471.513.7.773.095.106.191.209.285.315q.492.559.971,1.134c.05.061.1.124.149.184q.4.491.8.992.506.644,1,1.307l.013.017c.462.626.908,1.268,1.345,1.916.1.152.207.3.309.458q.236.359.467.722c.138.216.276.431.411.648.151.244.3.491.448.738.121.2.243.405.363.61q.527.9,1.023,1.824c.121.225.236.451.353.676s.248.474.369.713c.169.336.332.673.494,1.011.052.109.107.217.158.327q.308.655.6,1.316c.051.116.1.233.15.35q.212.491.413.984c.062.15.122.3.181.451q.189.475.368.952c.051.136.1.271.153.407q.229.627.443,1.256l.037.107q.228.682.434,1.366c.045.147.086.3.13.443.092.312.181.626.267.938.047.175.092.349.137.523.076.293.149.585.219.878.041.173.082.346.121.519.068.3.132.6.193.9.032.16.066.318.1.477q.114.591.21,1.181c.009.057.02.113.029.169.072.449.133.9.188,1.343.016.126.028.252.042.378q.055.48.1.957c.013.153.025.305.036.458q.033.453.055.9c.007.145.016.289.02.434.016.426.025.85.024,1.271l-.005,1.861c0,.442-.013.875-.033,1.3-.006.121-.015.238-.022.358-.017.292-.036.583-.062.869-.015.165-.033.327-.05.489-.026.242-.054.482-.086.717-.024.174-.05.346-.077.517q-.052.326-.112.643-.053.287-.113.567c-.041.191-.084.38-.129.566q-.08.329-.169.649c-.046.167-.094.333-.143.5-.079.256-.163.506-.25.752-.048.134-.092.269-.142.4-.157.414-.325.817-.507,1.2-.142.3-.289.593-.445.875h0c-.076.138-.159.266-.238.4l1.622.936,19.633-11.41.351-155" transform="translate(-220.399 576.892)" fill="none" clip-rule="evenodd"/></clipPath><clipPath id="y"><path d="M274.842-371.653c.138.215.276.431.411.648.152.244.3.491.448.738.122.2.244.4.363.609q.528.9,1.023,1.825c.12.224.237.45.354.676s.248.474.368.712q.252.5.493,1.011c.052.11.107.218.158.327q.308.655.6,1.316c.051.116.1.233.15.35.141.327.28.655.414.984.062.15.122.3.181.451q.189.475.368.952c.051.136.1.272.153.407q.23.628.442,1.257l.037.106q.228.682.435,1.365c.045.148.086.3.129.443.092.313.182.626.266.939.048.174.093.349.138.523q.114.439.219.878.062.26.121.519c.068.3.131.6.193.9.033.159.066.318.1.477q.114.591.209,1.181c.01.056.02.112.03.169.06.38.111.759.159,1.137L283.1-485c.014-5.3-3.714-11.751-8.323-14.412l-85.472-49.347c-4.61-2.662-8.359-.525-8.374,4.772l-.13,57.322c.074.074.149.145.223.22q.322.324.641.654.508.524,1.011,1.06.318.338.634.679.5.546,1,1.1c.2.219.392.437.585.659.366.419.727.844,1.087,1.271.149.176.3.351.448.529q.78.939,1.541,1.9c.088.111.173.225.261.337q.715.914,1.41,1.849.3.4.6.811t.6.831q.338.475.672.954.292.419.581.84c.161.237.319.475.479.712q.735,1.1,1.444,2.211c.074.117.15.231.224.349q.789,1.255,1.542,2.536.26.441.516.885c.174.3.347.6.518.9.192.34.38.682.567,1.024.166.3.333.606.5.911.147.274.291.55.435.826q.394.751.776,1.508.215.426.427.853.3.61.592,1.223c.146.306.292.612.435.92q.252.543.5,1.089c.148.328.3.655.439.984s.292.677.436,1.016.289.68.429,1.022.282.7.421,1.047.269.675.4,1.013c.138.359.272.719.4,1.078.124.333.248.664.367,1,.142.4.278.793.415,1.19.108.313.217.626.322.939.142.428.276.856.412,1.285.091.289.185.578.273.867.156.513.3,1.026.45,1.54.067.236.14.472.2.708.357.1.716.2,1.077.308q.663.2,1.335.437c.122.043.245.09.368.134.323.117.646.238.972.366.158.063.317.128.476.192q.442.181.888.377c.16.069.319.139.479.211.322.146.645.3.97.457.128.062.255.121.384.184q.676.336,1.358.7.59.319,1.184.661c.282.163.562.336.842.5s.552.333.826.506c.216.135.431.276.645.416.285.185.569.371.852.563.213.144.424.291.635.439q.436.3.869.617.31.225.618.455.46.343.916.7c.194.151.389.3.582.455.348.277.694.562,1.039.849.155.129.311.255.465.386q.75.635,1.488,1.3c.062.056.123.114.184.171q.647.586,1.284,1.193c.165.157.328.319.491.478q.476.463.948.937c.181.183.361.368.541.553q.427.441.849.89c.179.191.359.382.536.576q.423.46.838.929c.166.186.332.371.5.559.307.353.611.71.913,1.069.128.151.257.3.383.451q.655.788,1.293,1.6c.067.086.133.174.2.26q.608.777,1.2,1.572.259.348.515.7t.5.689c.192.268.382.539.57.81.162.233.325.466.485.7.131.192.259.385.388.578q.6.895,1.179,1.8c.077.12.155.239.231.36q.661,1.05,1.29,2.12.225.38.444.763c.15.259.3.517.446.778.16.284.317.569.474.854.144.262.288.523.429.786.119.223.235.447.353.67q.34.647.669,1.3.181.359.359.72.255.517.5,1.037.185.388.367.777.213.46.419.921c.125.277.249.553.37.83s.244.567.365.852.245.577.363.866.238.586.354.88.226.569.336.855c.117.3.23.607.342.91.1.281.209.562.309.842.119.331.233.664.348,1,.091.265.184.531.272.8.118.357.231.714.344,1.071.078.248.158.5.234.743.125.412.243.824.361,1.236.065.227.134.454.2.681l10.239,5.912q.579.335,1.152.7l.075.046c.373.237.744.485,1.112.74.127.087.252.179.378.269q.37.261.736.533c.15.112.3.226.448.341q.331.254.659.516.241.193.48.392.313.258.622.525.245.211.489.426.3.269.6.546.243.223.484.45.3.289.605.586c.149.145.3.291.446.44.208.209.413.423.618.638.136.142.273.283.407.427.238.254.471.514.7.773.095.106.191.208.285.315q.492.559.971,1.134c.051.061.1.124.15.185q.4.49.8.992.506.645,1,1.307l.013.017c.462.626.908,1.268,1.346,1.916.1.153.207.3.308.458.158.239.313.48.467.722" transform="translate(-180.804 549.908)" fill="none" clip-rule="evenodd"/></clipPath><clipPath id="aa"><path d="M384.09-117.215l-.009.056c-.034.217-.071.432-.111.643-.035.192-.074.38-.114.567s-.084.379-.129.566q-.08.329-.169.649c-.047.167-.093.333-.144.5-.078.256-.162.505-.249.752-.047.133-.093.269-.142.4-.158.415-.325.817-.507,1.2-.142.3-.289.593-.445.875h0q-.238.43-.5.832c-.035.055-.072.106-.108.16q-.2.3-.406.58c-.056.076-.113.15-.172.225q-.2.256-.407.5c-.054.062-.106.126-.16.186-.191.214-.387.421-.59.618l-.089.082q-.265.252-.543.485c-.067.056-.136.111-.2.166-.159.128-.321.25-.485.369-.068.048-.135.1-.2.145-.23.158-.463.308-.7.448l6.574-3.82.016-7.182" transform="translate(-377.5 117.215)" fill="none" clip-rule="evenodd"/></clipPath><clipPath id="ac"><path d="M282.045-444.175l-69.4-39.369c-.95-.549-1.724-.108-1.727.984a3.784,3.784,0,0,0,1.716,2.972l69.4,39.369c.95.548,1.724.108,1.727-.984a3.782,3.782,0,0,0-1.716-2.972" transform="translate(-210.92 483.78)" fill="none" clip-rule="evenodd"/></clipPath><clipPath id="ae"><path d="M282.045-394.146l-69.4-39.369c-.95-.548-1.724-.108-1.727.984a3.782,3.782,0,0,0,1.716,2.972l69.4,39.37c.95.549,1.724.108,1.727-.984a3.784,3.784,0,0,0-1.716-2.972" transform="translate(-210.92 433.75)" fill="none" clip-rule="evenodd"/></clipPath><clipPath id="ag"><path d="M282.045-344.115l-69.4-39.369c-.95-.549-1.724-.108-1.727.984a3.782,3.782,0,0,0,1.716,2.972l69.4,39.37c.95.549,1.724.108,1.727-.984a3.783,3.783,0,0,0-1.716-2.972" transform="translate(-210.92 383.721)" fill="none" clip-rule="evenodd"/></clipPath><clipPath id="ai"><path d="M282.045-294.085l-69.4-39.369c-.95-.549-1.724-.108-1.727.984a3.783,3.783,0,0,0,1.716,2.972l69.4,39.369c.95.549,1.724.108,1.727-.984a3.783,3.783,0,0,0-1.716-2.972" transform="translate(-210.92 333.69)" fill="none" clip-rule="evenodd"/></clipPath><clipPath id="ak"><path d="M282.045-244.055l-69.4-39.369c-.95-.549-1.724-.108-1.727.984a3.784,3.784,0,0,0,1.716,2.972l69.4,39.369c.95.548,1.724.108,1.727-.984a3.782,3.782,0,0,0-1.716-2.972" transform="translate(-210.92 283.66)" fill="none" clip-rule="evenodd"/></clipPath><clipPath id="am"><path d="M41.261-409.355c-.161-.085-.321-.168-.482-.25-.124-.063-.249-.131-.373-.193-.2-.1-.4-.187-.593-.279-.142-.067-.285-.136-.426-.2-.058-.027-.117-.057-.175-.082q-.593-.266-1.178-.5l0,0q-.6-.239-1.189-.447c-.051-.018-.1-.032-.153-.05-.143-.049-.283-.093-.425-.139-.2-.066-.4-.137-.6-.2-.1-.03-.2-.053-.3-.082-.174-.05-.347-.1-.52-.144-.133-.035-.269-.078-.4-.111s-.276-.06-.415-.093c-.173-.04-.346-.08-.518-.115-.092-.019-.185-.044-.275-.061-.163-.032-.321-.052-.483-.08-.2-.035-.4-.07-.6-.1-.07-.01-.141-.026-.21-.035-.165-.022-.325-.031-.488-.049-.213-.024-.426-.049-.637-.065-.062,0-.125-.015-.187-.019-.144-.01-.283-.007-.425-.014-.251-.012-.5-.023-.75-.025-.069,0-.141-.007-.21-.007-.274,0-.546.009-.815.023l-.1.007c-.2.011-.409.024-.611.042-.128.012-.254.03-.381.045-.1.012-.192.021-.288.034-.348.046-.692.1-1.03.167l-.031.008c-.093.018-.182.045-.274.065-.281.063-.56.128-.834.205-.134.038-.264.083-.4.125-.175.055-.353.1-.525.164l-.128.052c-.265.1-.523.207-.78.318-.125.054-.253.1-.376.16-.376.176-.745.366-1.1.574l-3.418,1.986c.358-.208.726-.4,1.1-.573.124-.058.252-.106.377-.161.257-.112.515-.221.78-.318.214-.079.433-.148.652-.217.132-.041.262-.086.4-.125.273-.077.553-.143.834-.2.092-.02.181-.046.274-.065.348-.071.7-.128,1.061-.176.1-.012.192-.022.288-.033.327-.038.657-.068.991-.088l.1-.007c.338-.017.681-.018,1.026-.016.247,0,.5.013.749.025.2.01.406.017.612.033s.423.041.636.065c.232.025.464.05.7.084.2.029.4.064.6.1.252.044.5.088.758.141.172.036.345.075.518.115q.406.093.817.2c.173.046.346.093.52.144.3.086.6.18.9.279.141.047.282.089.424.139q1.329.459,2.7,1.08c.142.064.284.134.426.2q.481.226.966.472.24.122.482.25c.429.226.858.457,1.291.707l3.418-1.986q-.471-.271-.938-.525c-.118-.064-.235-.121-.354-.183" transform="translate(-18.156 412.692)" fill="none" clip-rule="evenodd"/></clipPath><clipPath id="ao"><path d="M238.253-302.658c0-.067-.007-.135-.009-.2-.005-.145-.014-.289-.02-.434-.009-.17-.014-.339-.024-.509-.009-.13-.022-.261-.032-.392-.011-.153-.023-.306-.036-.459-.009-.1-.015-.2-.024-.3-.021-.217-.048-.436-.073-.655-.014-.127-.027-.253-.042-.38l-.014-.126q-.076-.594-.17-1.19l0-.025c-.009-.057-.02-.114-.029-.171-.054-.333-.111-.667-.174-1-.011-.06-.024-.119-.036-.179-.031-.159-.065-.317-.1-.476-.039-.193-.075-.387-.118-.581-.023-.108-.051-.216-.075-.323-.039-.173-.08-.345-.12-.518-.032-.133-.061-.267-.094-.4-.039-.16-.084-.319-.126-.479s-.09-.348-.137-.521c-.023-.086-.044-.171-.067-.257-.063-.227-.133-.454-.2-.682-.043-.148-.084-.3-.129-.443l-.037-.126q-.188-.612-.393-1.225l-.005-.015-.036-.105c-.123-.363-.248-.725-.379-1.088-.02-.057-.043-.114-.064-.171-.05-.135-.1-.271-.152-.406-.074-.194-.144-.389-.22-.583-.048-.124-.1-.246-.148-.37q-.089-.225-.181-.451c-.045-.11-.087-.22-.133-.33-.091-.22-.187-.438-.282-.657-.049-.116-.1-.231-.148-.347l-.054-.125q-.253-.574-.521-1.143l-.024-.049c-.05-.108-.1-.214-.155-.321-.141-.294-.28-.588-.426-.881-.023-.046-.048-.091-.07-.136-.12-.238-.244-.474-.367-.711-.1-.191-.2-.385-.3-.575l-.058-.1q-.494-.922-1.023-1.825c-.03-.05-.057-.1-.087-.154-.09-.153-.185-.3-.276-.455-.148-.246-.3-.492-.448-.737-.136-.218-.274-.434-.413-.65-.154-.241-.308-.481-.466-.719-.052-.079-.1-.16-.154-.239s-.1-.146-.155-.221c-.438-.648-.883-1.289-1.345-1.915h0l-.009-.012q-.491-.666-1-1.312l-.044-.058c-.249-.317-.5-.628-.759-.938-.049-.059-.1-.121-.146-.179l-.009-.012q-.452-.543-.916-1.071l-.047-.052c-.093-.106-.189-.209-.283-.313-.2-.22-.392-.441-.592-.656l-.114-.119c-.134-.144-.271-.284-.406-.426-.149-.157-.3-.316-.448-.47-.057-.057-.114-.112-.171-.168-.147-.148-.3-.294-.444-.44-.128-.125-.254-.255-.383-.379-.074-.07-.149-.137-.223-.208q-.241-.228-.484-.45c-.112-.1-.222-.21-.335-.312-.089-.079-.18-.155-.269-.234q-.243-.216-.488-.426c-.1-.085-.2-.175-.3-.259s-.219-.177-.327-.267q-.239-.2-.478-.391c-.083-.067-.165-.137-.249-.2-.136-.107-.274-.209-.411-.314s-.3-.229-.447-.341c-.061-.046-.121-.094-.182-.139-.185-.136-.371-.264-.557-.4-.125-.089-.249-.18-.375-.267l-.1-.07q-.5-.343-1.007-.665l-.009-.006-.072-.044c-.306-.193-.612-.383-.921-.565l-.233-.135-10.235-5.91-.042-.151c-.048-.175-.1-.349-.152-.524-.119-.413-.237-.826-.363-1.239-.015-.049-.028-.1-.043-.148-.061-.2-.129-.4-.192-.6-.112-.356-.225-.712-.342-1.068-.023-.07-.044-.14-.067-.21-.066-.2-.138-.393-.206-.59-.114-.331-.228-.663-.346-.994-.032-.087-.06-.174-.091-.26-.07-.194-.147-.388-.219-.583-.112-.3-.225-.607-.342-.91-.036-.094-.069-.188-.106-.282-.075-.192-.155-.383-.231-.574-.117-.293-.234-.586-.354-.879-.04-.1-.077-.193-.116-.29-.08-.193-.166-.384-.247-.577-.12-.284-.241-.567-.364-.85-.042-.1-.081-.192-.123-.289-.081-.182-.166-.363-.248-.545-.138-.306-.276-.611-.418-.916-.047-.1-.092-.206-.14-.308-.074-.159-.153-.315-.229-.474q-.247-.517-.5-1.033c-.06-.121-.116-.243-.176-.365s-.123-.237-.183-.355q-.329-.652-.669-1.3c-.074-.141-.144-.283-.218-.424-.044-.082-.091-.164-.135-.247-.141-.262-.284-.523-.428-.784-.157-.286-.314-.571-.474-.855-.146-.26-.3-.519-.446-.778-.108-.188-.213-.377-.323-.564-.039-.067-.081-.132-.121-.2q-.631-1.069-1.289-2.119c-.077-.121-.155-.241-.232-.361q-.578-.91-1.179-1.8c-.067-.1-.13-.2-.2-.3s-.129-.184-.192-.276c-.16-.234-.322-.466-.483-.7q-.284-.408-.573-.814-.246-.345-.5-.687c-.11-.15-.217-.3-.328-.453-.062-.083-.127-.164-.189-.247q-.593-.8-1.2-1.575c-.053-.068-.1-.138-.158-.206l-.041-.05q-.638-.809-1.293-1.6l-.06-.074c-.106-.128-.216-.252-.323-.379-.3-.359-.606-.716-.913-1.068-.048-.054-.094-.111-.142-.166-.117-.132-.237-.26-.354-.392q-.418-.469-.839-.93c-.076-.082-.148-.167-.224-.248-.1-.111-.208-.216-.311-.326q-.423-.45-.851-.892c-.1-.1-.2-.213-.3-.317-.078-.08-.159-.155-.237-.234-.314-.318-.63-.629-.948-.939-.118-.114-.233-.234-.352-.348-.046-.043-.093-.084-.138-.128q-.64-.61-1.29-1.2c-.053-.049-.1-.1-.158-.147l-.02-.018q-.738-.664-1.488-1.3l-.1-.087c-.121-.1-.244-.2-.365-.3-.345-.287-.691-.571-1.04-.849-.071-.057-.14-.117-.211-.173-.122-.1-.247-.187-.369-.282-.3-.236-.61-.47-.917-.7-.1-.076-.2-.156-.3-.231s-.211-.148-.315-.224q-.434-.314-.869-.617c-.126-.088-.25-.181-.377-.268-.085-.059-.172-.112-.258-.171-.283-.192-.567-.378-.852-.563-.146-.095-.29-.195-.436-.288-.069-.044-.139-.084-.208-.128-.274-.173-.55-.339-.825-.506-.163-.1-.325-.2-.489-.3l-.353-.206q-.577-.333-1.15-.643l-.034-.018q-.683-.369-1.358-.7l-.08-.041c-.1-.049-.2-.092-.3-.141-.325-.158-.65-.312-.973-.458-.061-.028-.123-.059-.184-.087-.1-.044-.194-.081-.292-.124q-.444-.195-.884-.375c-.09-.037-.181-.079-.271-.115-.07-.028-.138-.051-.208-.078q-.478-.188-.951-.358c-.1-.035-.195-.076-.291-.11l-.094-.031q-.668-.233-1.329-.435l-.039-.013q-.53-.16-1.054-.3l-.035-.128c-.052-.188-.111-.375-.164-.563-.147-.517-.3-1.035-.453-1.553-.016-.05-.029-.1-.045-.152-.073-.237-.153-.474-.228-.71-.136-.431-.271-.86-.414-1.29-.025-.075-.048-.151-.073-.226-.08-.237-.166-.472-.247-.708-.137-.4-.274-.8-.417-1.2-.034-.095-.065-.19-.1-.285-.086-.237-.179-.473-.267-.71-.134-.361-.268-.721-.406-1.081-.04-.1-.077-.208-.117-.312-.091-.235-.189-.467-.282-.7-.139-.349-.278-.7-.421-1.046-.044-.108-.085-.215-.13-.323-.1-.234-.2-.467-.3-.7-.144-.339-.288-.678-.435-1.016-.047-.108-.091-.215-.138-.323-.1-.221-.2-.44-.3-.66-.164-.365-.328-.728-.5-1.092-.053-.115-.1-.23-.157-.345-.09-.192-.186-.382-.277-.574q-.292-.615-.593-1.226c-.068-.137-.131-.276-.2-.414s-.152-.291-.225-.438q-.382-.758-.778-1.51c-.087-.166-.169-.334-.257-.5-.058-.109-.119-.217-.178-.327-.164-.3-.331-.609-.5-.913q-.281-.512-.566-1.022c-.171-.3-.344-.6-.518-.905-.119-.207-.235-.416-.356-.622-.052-.089-.109-.175-.161-.264q-.754-1.279-1.541-2.536c-.074-.116-.149-.231-.223-.347q-.708-1.117-1.445-2.213c-.078-.116-.151-.235-.229-.351s-.167-.239-.249-.359q-.289-.423-.583-.843-.333-.478-.671-.952-.3-.418-.6-.832c-.124-.169-.244-.341-.369-.51-.076-.1-.155-.2-.23-.3q-.7-.934-1.41-1.848c-.069-.088-.135-.179-.2-.267l-.057-.07q-.76-.965-1.541-1.9l-.067-.083c-.126-.151-.256-.3-.382-.447-.36-.427-.72-.852-1.085-1.269-.055-.063-.108-.129-.163-.191-.139-.159-.282-.31-.422-.467q-.5-.558-1-1.106c-.087-.095-.172-.193-.259-.287-.122-.132-.249-.259-.372-.39q-.5-.537-1.013-1.062c-.119-.123-.235-.249-.354-.371-.094-.1-.191-.187-.286-.282q-.558-.564-1.124-1.111c-.139-.136-.275-.277-.415-.411-.056-.053-.113-.1-.169-.157q-.748-.715-1.509-1.4c-.069-.063-.136-.128-.205-.191l-.028-.024q-.876-.789-1.768-1.543l-.114-.1c-.141-.119-.285-.23-.426-.348-.413-.344-.828-.684-1.246-1.016-.082-.066-.163-.136-.246-.2-.145-.115-.293-.222-.439-.335q-.543-.422-1.091-.832c-.119-.089-.237-.183-.356-.271s-.251-.177-.375-.267q-.515-.374-1.034-.735c-.149-.1-.295-.213-.444-.315-.1-.07-.2-.133-.306-.2-.337-.228-.676-.45-1.016-.672-.171-.111-.341-.229-.514-.339-.082-.052-.165-.1-.247-.151-.327-.206-.656-.4-.984-.6-.193-.116-.383-.239-.577-.353l-.419-.245c-.421-.243-.84-.476-1.257-.7l-.108-.06c-.062-.034-.123-.063-.185-.1q-.7-.377-1.4-.726c-.057-.028-.115-.061-.173-.089l-.075-.035q-.762-.375-1.516-.715c-.049-.022-.1-.047-.146-.069s-.124-.051-.187-.079c-.5-.224-1.008-.439-1.507-.639l-.022-.01-.005,0c-.52-.208-1.035-.4-1.549-.583-.059-.021-.12-.046-.179-.067s-.089-.029-.134-.044q-.751-.262-1.494-.489l-.091-.03c-.054-.016-.107-.028-.161-.044-.523-.156-1.043-.3-1.559-.43l-.052-.015-.015,0c-.543-.135-1.08-.252-1.614-.358-.052-.011-.1-.025-.156-.035l-.154-.027c-.14-.027-.278-.051-.417-.075-.184-.033-.367-.064-.55-.093-.141-.022-.28-.043-.42-.063-.1-.015-.2-.031-.3-.046-.073-.01-.145-.016-.218-.025-.162-.021-.323-.04-.484-.058s-.329-.036-.493-.051-.319-.029-.478-.041c-.089-.007-.178-.016-.267-.023-.069,0-.137-.006-.206-.01-.18-.012-.36-.02-.539-.028-.149-.006-.3-.012-.447-.016-.178,0-.356-.007-.533-.008-.1,0-.193,0-.288,0-.046,0-.091,0-.138,0-.24,0-.478.01-.715.018-.1,0-.207.006-.309.011q-.507.025-1.006.068h-.012l-.052.006c-.357.033-.709.075-1.06.124-.1.014-.209.03-.313.046q-.449.067-.89.152c-.055.011-.111.017-.165.028l-.049.012c-.448.09-.888.195-1.324.31l-.232.062q-.64.178-1.262.39l-.092.029c-.071.025-.139.053-.209.078q-.274.1-.545.2-.171.067-.34.137c-.179.074-.357.151-.534.23-.108.048-.215.1-.322.146-.19.088-.377.181-.563.275-.089.045-.18.088-.269.134q-.409.214-.808.444l-3.418,1.986q.4-.231.809-.444c.089-.047.179-.089.268-.134.186-.094.373-.187.563-.275.107-.049.215-.1.323-.145.177-.079.354-.156.533-.23.112-.047.226-.093.34-.137q.271-.106.545-.2c.1-.036.2-.073.3-.107.414-.143.835-.272,1.262-.391l.232-.062c.435-.116.876-.221,1.324-.31l.215-.04q.442-.084.89-.152c.1-.016.208-.031.313-.045.35-.048.7-.091,1.06-.123l.064-.007c.333-.03.668-.051,1.006-.068.1,0,.207-.007.309-.011.237-.009.475-.016.716-.018.141,0,.283,0,.425,0,.177,0,.354,0,.533.007.148,0,.3.01.447.016q.268.011.539.027.236.014.472.033t.479.041c.163.015.328.032.493.051s.322.036.484.057.347.046.522.071c.14.02.28.041.42.063.182.029.366.06.549.093.139.024.278.049.418.075.1.019.207.042.31.063.534.106,1.071.223,1.614.358l.067.018c.516.129,1.036.274,1.559.43l.252.074c.495.15.993.314,1.494.488l.314.112c.514.183,1.029.375,1.549.583l.025.011c.5.2,1,.416,1.509.64.111.049.221.1.332.148q.754.34,1.516.714l.247.125q.7.348,1.4.726l.294.157c.418.227.836.461,1.257.7.334.193.664.4,1,.6s.657.4.983.6c.255.161.508.327.762.492.339.22.678.442,1.015.671.251.17.5.344.75.518q.519.361,1.034.735.366.266.731.538.548.409,1.09.831c.229.178.459.355.687.537q.626.5,1.244,1.016c.18.15.362.3.542.448q.89.755,1.767,1.542c.08.071.158.146.237.219q.759.688,1.506,1.4c.2.187.389.379.584.567q.564.55,1.123,1.11.323.326.642.656.508.524,1.01,1.06c.212.225.423.451.633.679q.5.546,1,1.1c.2.219.392.437.586.659.365.418.726.843,1.085,1.269.149.177.3.351.449.53q.78.94,1.541,1.9c.088.112.173.225.261.338q.714.914,1.41,1.848.3.405.6.813t.6.83q.339.475.673.955.292.419.582.841c.161.236.319.474.478.711q.735,1.095,1.443,2.209c.074.118.151.233.225.351q.788,1.255,1.54,2.534.262.444.519.89c.173.3.346.6.515.9.192.34.381.683.569,1.025.166.3.333.606.5.911.147.274.29.55.434.825q.395.753.778,1.51.215.425.426.851.3.612.593,1.227c.146.305.291.61.434.917q.252.545.5,1.092c.147.327.3.655.439.983s.291.676.435,1.015.289.682.43,1.024.282.7.421,1.046.27.676.4,1.014c.138.358.272.718.4,1.077.124.333.248.666.368,1,.142.4.278.793.415,1.189.108.314.218.627.322.941.143.428.277.858.413,1.287.091.289.185.576.273.865.158.517.306,1.036.453,1.554.065.23.136.46.2.691q.543.144,1.093.312.66.2,1.33.435c.128.045.256.094.384.14q.474.171.952.358c.159.063.318.128.478.193q.441.18.884.375c.159.07.317.139.477.211.322.147.647.3.972.458.126.061.251.119.378.182.45.224.9.457,1.358.7q.59.319,1.184.661c.282.163.562.336.842.5s.552.333.826.506c.216.136.43.276.644.416.285.185.569.372.852.563.212.144.424.291.635.438q.436.3.868.617.311.225.619.455.46.343.915.7c.194.151.389.3.583.455q.522.417,1.038.848c.156.13.312.256.466.387q.749.636,1.488,1.3c.06.054.119.111.178.165q.65.589,1.29,1.2c.164.157.326.318.49.477q.477.464.949.938.271.274.54.552.428.441.85.89c.179.192.359.383.537.576.282.306.561.617.838.929.165.186.332.37.5.558.307.352.611.709.913,1.068.128.152.257.3.384.453q.655.788,1.293,1.6c.067.084.132.172.2.257q.609.779,1.2,1.576.26.348.516.7t.5.689q.289.4.572.813c.161.231.323.464.482.7.131.193.26.387.39.581q.6.892,1.177,1.8c.077.121.156.24.232.362q.66,1.049,1.289,2.119c.15.254.3.509.445.764s.3.516.445.776c.161.284.318.57.475.855.144.261.288.523.429.786.119.222.235.446.352.67q.34.647.669,1.3.182.36.36.721.255.516.5,1.036.185.388.367.778.213.459.42.921c.124.276.248.553.37.83s.245.568.366.853.244.576.363.864.237.586.354.879.227.571.337.857c.116.3.229.607.342.91.1.28.209.561.309.841.119.332.233.664.347,1,.091.267.184.533.273.8.118.356.23.713.343,1.069.078.248.159.5.235.743.126.415.245.831.364,1.246.064.223.131.446.193.669l10.236,5.909c.387.224.771.458,1.154.7l.072.044c.374.238.745.486,1.114.74.125.087.25.178.375.267.247.175.494.352.74.535.149.112.3.227.447.34.221.17.442.342.66.517q.24.193.478.391c.209.173.417.348.625.526q.244.211.487.425.3.271.605.547.242.223.483.449.305.289.607.586c.148.146.3.291.444.439.209.21.414.424.62.639.135.142.272.282.405.426.238.254.473.514.706.775.094.1.19.208.283.313q.492.559.972,1.135c.049.058.1.119.144.177.272.33.541.661.8,1q.5.64.989,1.3l.02.027c.462.627.908,1.268,1.345,1.915.1.153.208.3.309.459.158.239.312.479.466.72.138.216.276.432.412.65.151.243.3.489.447.735.122.2.244.406.364.611q.528.9,1.023,1.824c.121.225.237.451.354.676s.248.474.368.712q.252.5.494,1.012c.052.109.107.217.158.327q.308.655.6,1.316c.051.116.1.234.15.35q.212.492.414.984.092.225.181.451.189.475.368.952c.051.136.1.273.153.408q.23.628.442,1.257l.037.106q.229.682.435,1.367c.045.146.085.292.129.438.092.314.183.629.268.944.047.174.092.347.137.52.076.292.149.586.219.878q.062.26.121.52.1.451.193.9c.033.159.066.318.1.477q.114.594.21,1.185c.009.055.019.11.029.165.071.449.132.9.188,1.343.016.127.028.253.042.38.036.32.069.639.1.957.014.153.025.305.037.458q.033.452.055.9c.007.145.015.289.02.434.015.426.025.851.024,1.272l-.005,1.857c0,.443-.013.876-.032,1.3-.005.12-.015.236-.022.355-.017.293-.037.585-.062.871-.015.165-.033.327-.051.49-.026.242-.054.482-.086.717-.024.175-.05.346-.077.517q-.052.326-.111.644-.054.286-.114.566c-.041.191-.084.38-.129.567-.053.22-.11.435-.169.649-.047.167-.093.333-.144.5-.078.257-.162.506-.249.753-.048.133-.093.268-.142.4-.158.414-.325.818-.507,1.2-.141.3-.287.589-.442.869l0,.005c-.159.288-.325.564-.5.834-.034.054-.071.105-.107.158-.132.2-.267.393-.407.581-.056.076-.114.151-.172.225q-.2.256-.407.5c-.054.062-.105.125-.16.186q-.287.322-.59.618l-.089.081q-.265.252-.544.485c-.067.057-.136.111-.2.166q-.239.191-.485.368c-.068.049-.135.1-.2.146-.229.157-.463.308-.7.448l3.418-1.986c.24-.139.473-.29.7-.448.069-.047.136-.1.2-.146q.247-.177.485-.368c.068-.055.137-.11.205-.166q.278-.233.543-.485l.088-.081c.2-.2.4-.4.59-.618.055-.061.106-.124.16-.186.139-.162.275-.328.407-.5.058-.074.115-.148.172-.224q.209-.283.407-.582c.035-.053.072-.1.107-.158l.032-.047q.243-.382.466-.787l0,0q.222-.4.424-.829l.018-.041c.182-.386.35-.788.507-1.2l.043-.1c.036-.1.064-.2.1-.295.087-.247.172-.5.25-.753.021-.067.047-.13.066-.2.028-.1.05-.2.077-.3.059-.214.116-.43.17-.65.021-.089.048-.174.068-.264s.039-.2.061-.3q.06-.281.114-.568c.018-.1.041-.192.058-.291.02-.115.034-.236.053-.353.027-.171.053-.342.077-.517.012-.088.028-.173.039-.263.018-.148.031-.3.047-.454s.036-.324.051-.49c.006-.066.015-.129.02-.2.018-.221.029-.449.041-.674.007-.119.017-.235.022-.355l.005-.088q.024-.564.027-1.146v-.068l.005-1.857c0-.354,0-.711-.015-1.069" transform="translate(-87.124 459.614)" fill="none" clip-rule="evenodd"/></clipPath><clipPath id="aq"><path d="M73.038-449.629c18.332,10.584,33.936,32.816,40.041,54.949a39.224,39.224,0,0,1,9.49,4.029c15.455,8.923,28.613,27.68,33.748,46.342l10.236,5.909c13.087,7.556,23.66,25.868,23.617,40.906l-.005,1.857c-.043,15.038-10.684,21.1-23.771,13.547L23.994-364.3C10.911-371.858.338-390.17.381-405.208l.005-1.857c0-.772.038-1.513.093-2.234-.05-.863-.082-1.719-.08-2.566.053-18.709,13.295-26.259,29.579-16.856,1.809-24.541,20.415-33.982,43.059-20.908" transform="translate(-0.38 455.518)" fill="none" clip-rule="evenodd"/></clipPath><clipPath id="as"><path d="M533.68-246.7a.781.781,0,0,1-.217.011h-.005a1.053,1.053,0,0,1-.239-.052h0a1.43,1.43,0,0,1-.26-.12l-5.408-3.122-.043-.024-.055-.029-.054-.026-.053-.022-.052-.019-.008,0h0l-.041-.014-.053-.015-.053-.012-.055-.009-.036,0h-.079l-.067,0-.072.011h0l-.079.021-.106.048L516.4-244.129a.641.641,0,0,1,.184-.071h0a.734.734,0,0,1,.213-.011h.006a1.018,1.018,0,0,1,.239.052h0a1.54,1.54,0,0,1,.266.124l5.408,3.122.041.023.052.027.052.025.052.022.052.019.011,0h0l.037.012.053.015.053.012.057.009.039,0h.019l.061,0,.066,0,.075-.011h.005l.085-.023.1-.048,10.237-5.949a.642.642,0,0,1-.19.072h0" transform="translate(-516.396 250.163)" fill="none" clip-rule="evenodd"/></clipPath><clipPath id="au"><path d="M575.922-256.866v-.06l0-.062,0-.062-.007-.062-.009-.066,0-.018v0l-.008-.044-.014-.068-.016-.069-.018-.07-.02-.069-.022-.069-.014-.04v0l-.008-.023-.024-.065-.026-.064-.027-.064-.03-.064-.031-.064-.045-.086h0c-.025-.046-.051-.09-.077-.134l-.082-.129-.072-.1-.027-.036-.006-.008-.025-.032-.048-.06-.049-.058-.051-.055-.051-.053-.053-.053-.039-.036,0,0-.014-.013-.057-.049-.057-.047-.058-.045-.057-.041-.057-.037-.058-.035-.013-.008-5.408-3.122a2.011,2.011,0,0,1-.257-.178l-.006-.005a2.516,2.516,0,0,1-.237-.221l0,0a2.9,2.9,0,0,1-.217-.261h0a3.211,3.211,0,0,1-.187-.286l-.008-.015a3.049,3.049,0,0,1-.151-.3l0,0a2.933,2.933,0,0,1-.117-.317v0a2.4,2.4,0,0,1-.074-.319h0a1.931,1.931,0,0,1-.026-.313l.084-29.6c0-.046,0-.092,0-.138s0-.1-.007-.149-.007-.1-.012-.149-.01-.1-.016-.15-.014-.1-.022-.154v-.007c-.007-.049-.016-.1-.025-.149s-.021-.106-.033-.16-.024-.107-.037-.161-.028-.108-.043-.163l-.036-.125,0-.011-.008-.027c-.016-.053-.033-.105-.051-.159s-.035-.1-.054-.156-.037-.1-.057-.151-.039-.1-.06-.148l-.048-.112,0-.008-.011-.026c-.022-.049-.045-.1-.068-.148s-.051-.107-.078-.161-.063-.123-.1-.184-.072-.129-.109-.194l-.019-.034-.024-.042c-.073-.124-.149-.245-.228-.364-.062-.092-.125-.182-.19-.271l0,0v0c-.045-.061-.09-.12-.135-.178s-.078-.1-.118-.145-.078-.093-.118-.139-.079-.088-.119-.132l-.023-.023-.009-.01-.094-.1-.128-.127c-.045-.043-.089-.084-.135-.125s-.09-.081-.136-.119l-.068-.056-.015-.013-.052-.043-.135-.1c-.044-.032-.088-.063-.133-.094l-.13-.086-.13-.08-.03-.017-18.43-10.641-.1-.055-.125-.065-.081-.038-.018-.009-.024-.011-.123-.052-.124-.047-.021-.006-.019-.006-.083-.027-.127-.035-.061-.014-.025-.006-.04-.009q-.067-.013-.134-.022l-.081-.008-.028,0-.027,0c-.049,0-.1,0-.144,0l-.062,0-.048,0-.049,0a1.483,1.483,0,0,0-.176.026h0l-.04.011a1.653,1.653,0,0,0-.172.047l-.013.006a1.436,1.436,0,0,0-.236.109l-10.236,5.948a1.491,1.491,0,0,1,.235-.109,1.551,1.551,0,0,1,.185-.053l.039-.011a1.763,1.763,0,0,1,.229-.028l.048,0a1.969,1.969,0,0,1,.232,0l.028,0a2.1,2.1,0,0,1,.254.039l.026.005c.088.02.178.045.27.076l.019.006c.1.033.193.072.291.117l.018.008c.1.047.2.1.3.158L554.734-293.4a4.684,4.684,0,0,1,.609.422l.015.013a5.921,5.921,0,0,1,.561.524l.01.011a6.879,6.879,0,0,1,.514.619l0,0a7.313,7.313,0,0,1,.442.676l.019.035a7.3,7.3,0,0,1,.36.711l0,.01a6.78,6.78,0,0,1,.277.752l0,.011a5.847,5.847,0,0,1,.175.757v0a4.621,4.621,0,0,1,.06.745l-.084,29.6v.058l0,.062.005.063.006.063.01.065v0h0l.011.061.014.067.016.067.018.069.016.054,0,0,0,.01.021.067.023.066.024.063.025.063.02.048,0,0,0,.01.029.062.032.068.04.078.046.082.008.014.01.017c.03.052.062.1.1.153l.082.117.058.076.05.062.049.058.05.056.009.009,0,0,.039.041.054.054.057.053.057.05.029.024.006,0,.022.018.057.043.056.04.055.036.054.034.013.007,5.408,3.123a2.1,2.1,0,0,1,.37.274l0,0a2.645,2.645,0,0,1,.317.349l.005.007a3.109,3.109,0,0,1,.258.4h0a2.967,2.967,0,0,1,.191.431l0,0a2.593,2.593,0,0,1,.112.429v0a1.855,1.855,0,0,1,.026.405v0a.96.96,0,0,1-.246.638l-19.062,19.262a.63.63,0,0,1-.131.1l10.236-5.948a.627.627,0,0,0,.131-.1l19.062-19.262.1-.12.05-.091.03-.071.024-.071.016-.062.013-.063.009-.06.006-.06,0-.041v-.079" transform="translate(-534.124 310.411)" fill="none" clip-rule="evenodd"/></clipPath><clipPath id="aw"><path d="M545.2-287.083a6.732,6.732,0,0,1,3.054,5.293l-.084,29.6a2.837,2.837,0,0,0,1.286,2.228l5.408,3.123c1.053.608,1.658,2.327,1.039,2.952L536.839-224.62a.837.837,0,0,1-1.049.009,2.737,2.737,0,0,1-1.046-1.219L515.853-267c-.613-1.335,0-2.353,1.052-1.744l5.408,3.122c.712.411,1.293.081,1.295-.738l.084-29.6c.006-1.947,1.383-2.732,3.074-1.756L545.2-287.083" transform="translate(-515.609 298.144)" fill="none" clip-rule="evenodd"/></clipPath><clipPath id="ay"><path d="M147.521-631.556l0-.047v-.014l0-.061-.007-.062-.009-.063-.011-.064,0-.016v-.006l-.009-.044-.016-.066-.017-.068-.02-.068-.016-.049v-.005l-.027-.078-.025-.066-.026-.065-.028-.065-.018-.041-18.894-41.172-.01-.021-.032-.067-.039-.076-.064-.115-.06-.095-.021-.034-.026-.041-.074-.1L128-674.3l-.049-.061-.04-.047,0,0-.006-.007-.05-.055-.052-.055-.055-.054-.057-.053-.058-.051-.058-.047-.057-.044-.056-.04-.055-.037-.054-.033-.013-.007-.041-.023-.053-.028-.053-.025-.052-.022-.049-.018h0l-.052-.017-.053-.015-.054-.013-.056-.009-.018,0h-.007l-.032,0-.061,0-.065,0-.061.009h-.012l-.089.024-.105.049-10.236,5.948a.627.627,0,0,1,.2-.074h0a.776.776,0,0,1,.219-.006h.007a1.043,1.043,0,0,1,.237.056h0a1.452,1.452,0,0,1,.248.115,2.314,2.314,0,0,1,.573.483l0,0a2.958,2.958,0,0,1,.243.324l.022.034a3.167,3.167,0,0,1,.2.373l16.81,36.63-5.3,3.077a.656.656,0,0,0-.2.193l-.025.025-.048.088,0,0,0,0-.027.065-.023.068-.017.066-.006.029v.007l-.005.027-.009.062-.006.062,0,.061v.066l-.084,29.6c0,.117-.006.228-.016.337l0,.029q-.015.148-.042.286l-.007.036a2.482,2.482,0,0,1-.066.255l-.015.045a2.207,2.207,0,0,1-.085.219l-.01.023a1.791,1.791,0,0,1-.122.222,1.663,1.663,0,0,1-.212.263l-.057.055a1.48,1.48,0,0,1-.258.2l10.236-5.949a1.456,1.456,0,0,0,.258-.2l.057-.055a1.677,1.677,0,0,0,.212-.263l0,0a1.9,1.9,0,0,0,.115-.21l0-.008.009-.022c.021-.047.043-.094.061-.145l.025-.076.015-.045.014-.041c.015-.05.028-.1.041-.157l.012-.057.007-.036.011-.056c.008-.048.016-.1.022-.146l.009-.083,0-.029,0-.035c0-.047.007-.1.009-.144s0-.1,0-.148v-.009l.065-22.691,7.635-4.437a.6.6,0,0,0,.133-.106l.036-.044.057-.07.021-.037.013-.022.016-.029.032-.078.024-.073h0l.016-.063.013-.065.009-.062,0-.032v-.007l0-.022,0-.062v-.119" transform="translate(-116.188 675.071)" fill="none" clip-rule="evenodd"/></clipPath><clipPath id="ba"><path d="M96.448-662.625a2.727,2.727,0,0,1,1.044,1.218l18.894,41.171c.613,1.336,0,2.355-1.056,1.747l-5.4-3.12c-.716-.413-1.293-.081-1.3.738l-.084,29.6c-.005,1.948-1.386,2.73-3.077,1.754L87.043-600.152a6.734,6.734,0,0,1-3.058-5.3l.084-29.6a2.837,2.837,0,0,0-1.286-2.228L77.375-640.4c-1.053-.609-1.658-2.331-1.039-2.957L95.4-662.615a.833.833,0,0,1,1.047-.01" transform="translate(-76.086 662.803)" fill="none" clip-rule="evenodd"/></clipPath></defs><g transform="translate(-0.38 675.071)"><g transform="translate(12.484 -492.077)" clip-path="url(#a)"><g transform="translate(-138.366 -268.3)" clip-path="url(#b)"><path d="M20.34-302.7H274.132v148.86H20.34Z" transform="translate(115.602 575.369)" fill="rgba(230,230,230,0.3)"/></g></g><g transform="translate(94.442 -597.521)" clip-path="url(#c)"><g transform="translate(-220.325 -169.65)" clip-path="url(#d)"><path d="M189.355-520.147H218.6v10.88H189.355Z" transform="translate(28.545 687.372)" fill="#6f7abe"/></g></g><g transform="translate(127.886 -620.274)" clip-path="url(#e)"><g transform="translate(-253.769 -146.897)" clip-path="url(#d)"><path d="M258.323-567.068H414.316v181.915H258.323Z" transform="translate(-6.979 711.541)" fill="#353a67"/></g></g><g transform="translate(9 -618.288)" clip-path="url(#g)"><g transform="translate(-134.882 -148.883)" clip-path="url(#d)"><path d="M13.155-562.972H284.616V-333.39H13.155Z" transform="translate(119.303 709.431)" fill="#353a67"/></g></g><g transform="translate(0.38 -568.635)" clip-path="url(#i)"><g transform="translate(-126.263 -198.536)" clip-path="url(#d)"><path d="M-4.62-460.577H190.02v181.528H-4.62Z" transform="translate(128.458 656.689)" fill="#f6efe9"/></g></g><g transform="translate(129.264 -635.242)" clip-path="url(#k)"><g transform="translate(-255.147 -131.929)" clip-path="url(#d)"><path d="M261.165-597.934H368.552v233.056H261.165Z" transform="translate(-8.443 727.439)" fill="#f6efe9"/></g></g><g transform="translate(144.113 -603.175)" clip-path="url(#m)"><g transform="translate(-269.995 -163.996)" clip-path="url(#d)"><path d="M291.786-531.806h77.69v48.647h-77.69Z" transform="translate(-24.215 693.378)" fill="#f3c7b7"/></g></g><g transform="translate(144.113 -578.914)" clip-path="url(#o)"><g transform="translate(-269.995 -188.257)" clip-path="url(#d)"><path d="M291.786-481.776h77.69v48.646h-77.69Z" transform="translate(-24.215 667.608)" fill="#f3c7b7"/></g></g><g transform="translate(144.113 -554.654)" clip-path="url(#q)"><g transform="translate(-269.995 -212.517)" clip-path="url(#d)"><path d="M291.786-431.746h77.69V-383.1h-77.69Z" transform="translate(-24.215 641.839)" fill="#f3c7b7"/></g></g><g transform="translate(144.113 -530.394)" clip-path="url(#s)"><g transform="translate(-269.995 -236.777)" clip-path="url(#d)"><path d="M291.786-381.716h77.69v48.647h-77.69Z" transform="translate(-24.215 616.069)" fill="#f3c7b7"/></g></g><g transform="translate(144.113 -506.133)" clip-path="url(#u)"><g transform="translate(-269.995 -261.038)" clip-path="url(#d)"><path d="M291.786-331.686h77.69v48.647h-77.69Z" transform="translate(-24.215 590.3)" fill="#f3c7b7"/></g></g><g transform="translate(107.071 -627.462)" clip-path="url(#w)"><g transform="translate(-232.954 -139.709)" clip-path="url(#d)"><path d="M215.4-581.892H322.64v236.16H215.4Z" transform="translate(15.13 719.176)" fill="#353a67"/></g></g><g transform="translate(87.871 -614.377)" clip-path="url(#y)"><g transform="translate(-213.754 -152.794)" clip-path="url(#d)"><path d="M175.8-554.908H282.952V-350.9H175.8Z" transform="translate(35.525 705.277)" fill="#5f71a0"/></g></g><g transform="translate(183.252 -404.557)" clip-path="url(#aa)"><g transform="translate(-309.135 -362.614)" clip-path="url(#d)"><path d="M372.5-122.215h11.439v15.851H372.5Z" transform="translate(-65.789 482.405)" fill="#6f7abe"/></g></g><g transform="translate(102.475 -582.311)" clip-path="url(#ac)"><g transform="translate(-228.357 -184.86)" clip-path="url(#d)"><path d="M205.92-488.78h77.69v48.646H205.92Z" transform="translate(20.013 671.216)" fill="#f6efe9"/></g></g><g transform="translate(102.475 -558.05)" clip-path="url(#ae)"><g transform="translate(-228.357 -209.121)" clip-path="url(#d)"><path d="M205.92-438.75h77.69V-390.1H205.92Z" transform="translate(20.013 645.446)" fill="#f6efe9"/></g></g><g transform="translate(102.475 -533.79)" clip-path="url(#ag)"><g transform="translate(-228.357 -233.381)" clip-path="url(#d)"><path d="M205.92-388.721h77.69v48.647H205.92Z" transform="translate(20.013 619.677)" fill="#f6efe9"/></g></g><g transform="translate(102.475 -509.529)" clip-path="url(#ai)"><g transform="translate(-228.357 -257.642)" clip-path="url(#d)"><path d="M205.92-338.69h77.69v48.646H205.92Z" transform="translate(20.013 593.907)" fill="#f6efe9"/></g></g><g transform="translate(102.475 -485.269)" clip-path="url(#ak)"><g transform="translate(-228.357 -281.902)" clip-path="url(#d)"><path d="M205.92-288.66h77.69v48.646H205.92Z" transform="translate(20.013 568.137)" fill="#f6efe9"/></g></g><g transform="translate(9 -547.839)" clip-path="url(#am)"><g transform="translate(-134.883 -219.332)" clip-path="url(#d)"><path d="M13.156-417.692H42.4v10.88H13.156Z" transform="translate(119.302 634.6)" fill="#353a67"/></g></g><g transform="translate(42.444 -570.592)" clip-path="url(#ao)"><g transform="translate(-168.327 -196.579)" clip-path="url(#d)"><path d="M82.124-464.614H238.117V-282.7H82.124Z" transform="translate(83.778 658.768)" fill="#353a67"/></g></g><g transform="translate(0.38 -568.606)" clip-path="url(#aq)"><g transform="translate(-126.263 -198.565)" clip-path="url(#d)"><path d="M-4.62-460.518H190.019V-278.99H-4.62Z" transform="translate(128.458 656.659)" fill="#f6efe9"/></g></g><g transform="translate(250.606 -469.026)" clip-path="url(#as)"><g transform="translate(-376.488 -298.145)" clip-path="url(#d)"><path d="M511.4-255.163h22.327v14.277H511.4Z" transform="translate(-137.332 550.884)" fill="#5f71a0"/></g></g><g transform="translate(259.202 -498.241)" clip-path="url(#au)"><g transform="translate(-385.085 -268.93)" clip-path="url(#d)"><path d="M529.124-315.411h46.647v84.423H529.124Z" transform="translate(-146.464 581.916)" fill="#5f71a0"/></g></g><g transform="translate(250.224 -492.293)" clip-path="url(#aw)"><g transform="translate(-376.106 -274.878)" clip-path="url(#d)"><path d="M510.609-303.144H556v78.561h-45.39Z" transform="translate(-136.927 575.598)" fill="#f6efe9"/></g></g><g transform="translate(56.538 -675.071)" clip-path="url(#ay)"><g transform="translate(-182.42 -92.1)" clip-path="url(#d)"><path d="M111.188-680.071h36.183v84.3H111.188Z" transform="translate(68.808 769.746)" fill="#f6efe9"/></g></g><g transform="translate(37.092 -669.122)" clip-path="url(#ba)"><g transform="translate(-162.974 -98.049)" clip-path="url(#d)"><path d="M71.086-667.8h45.393v78.56H71.086Z" transform="translate(89.463 763.428)" fill="#5f71a0"/></g></g></g></svg>