<svg xmlns="http://www.w3.org/2000/svg" xmlns:xlink="http://www.w3.org/1999/xlink" width="796.452" height="866.357" viewBox="0 0 796.452 866.357"><defs><clipPath id="a"><path d="M486.167,83.839c-51.014,0-102.1-11.273-141.148-33.819L84.192-100.568c-78.113-45.1-78.517-118.215-.92-163.31,38.8-22.547,89.752-33.82,140.771-33.82s102.1,11.275,141.161,33.823L626.033-113.287c78.1,45.1,78.517,118.208.919,163.3-38.8,22.549-89.757,33.823-140.784,33.823" transform="translate(-25.34 297.699)" fill="none" clip-rule="evenodd"/></clipPath><clipPath id="b"><path d="M-260,576.462H1181.462V-865H-260Z" transform="translate(260 865)" fill="rgba(103,103,103,0.69)"/></clipPath><clipPath id="c"><path d="M255.57-506.307q-.64-.337-1.276-.662c-.329-.167-.66-.348-.988-.51-.525-.261-1.047-.495-1.57-.74-.376-.179-.754-.362-1.129-.532-.154-.071-.311-.152-.464-.22q-1.571-.7-3.121-1.323l-.01,0q-1.584-.636-3.148-1.185c-.136-.048-.27-.086-.4-.132-.378-.13-.752-.245-1.127-.369-.532-.175-1.069-.362-1.6-.522-.265-.081-.523-.141-.786-.217-.461-.134-.92-.257-1.378-.38-.353-.094-.712-.206-1.064-.294-.37-.091-.732-.159-1.1-.244-.46-.105-.917-.211-1.372-.3-.242-.05-.488-.116-.73-.162-.43-.085-.852-.139-1.28-.211-.528-.093-1.057-.186-1.58-.261-.185-.027-.375-.068-.559-.093-.437-.059-.861-.085-1.294-.132-.564-.062-1.128-.128-1.686-.172-.164-.013-.333-.039-.5-.05-.38-.027-.749-.019-1.127-.037-.665-.032-1.33-.06-1.985-.066-.184,0-.374-.019-.558-.019q-1.089.006-2.16.062l-.274.019c-.542.03-1.083.062-1.616.112-.34.031-.672.08-1.01.118-.254.031-.509.057-.762.091-.921.122-1.835.265-2.73.443l-.082.019c-.247.05-.483.119-.727.173-.744.166-1.484.338-2.208.543-.356.1-.7.22-1.051.329-.464.146-.934.276-1.39.437l-.338.139c-.7.256-1.386.546-2.067.841-.331.144-.671.272-1,.425-1,.465-1.972.967-2.921,1.52l-9.055,5.261c.948-.55,1.926-1.052,2.92-1.519.328-.153.668-.281,1-.425.681-.3,1.364-.585,2.066-.843.568-.207,1.147-.392,1.728-.574.349-.109.7-.23,1.051-.33.725-.2,1.465-.378,2.208-.543.244-.054.482-.122.727-.171.922-.189,1.863-.338,2.812-.465.253-.033.507-.06.763-.09.865-.1,1.738-.182,2.625-.231l.274-.018c.894-.045,1.8-.049,2.717-.042.655,0,1.319.035,1.985.064.54.027,1.077.045,1.623.089s1.122.111,1.686.172c.615.068,1.229.135,1.853.224.523.076,1.052.17,1.582.261.665.114,1.334.234,2.008.373.455.1.913.2,1.372.306q1.075.249,2.165.538c.457.122.916.247,1.377.38.79.227,1.585.478,2.383.74.375.121.749.236,1.125.367q3.521,1.216,7.148,2.862c.375.17.753.355,1.129.532.848.4,1.7.816,2.558,1.251q.636.326,1.277.662c1.134.6,2.273,1.213,3.42,1.876l9.055-5.262q-1.245-.721-2.485-1.39c-.313-.17-.623-.32-.937-.486" transform="translate(-194.355 515.147)" fill="none" clip-rule="evenodd"/></clipPath><clipPath id="d"><path d="M-260,576.462H1181.462V-865H-260Z" transform="translate(260 865)" fill="none"/></clipPath><clipPath id="e"><path d="M663.719-146.234c-.005-.179-.018-.358-.024-.537-.014-.383-.035-.767-.054-1.151-.023-.45-.035-.9-.063-1.349-.023-.344-.058-.691-.082-1.037-.031-.4-.062-.811-.1-1.217-.023-.267-.038-.532-.063-.8-.055-.576-.128-1.156-.194-1.734-.037-.337-.069-.671-.112-1.007l-.037-.334q-.2-1.572-.45-3.154l-.01-.068c-.024-.15-.054-.3-.078-.452-.144-.884-.292-1.766-.459-2.653-.029-.157-.065-.315-.1-.473-.081-.42-.17-.84-.257-1.262-.1-.514-.2-1.026-.312-1.539-.062-.285-.134-.572-.2-.856-.1-.459-.211-.915-.32-1.372-.085-.355-.159-.708-.248-1.061-.1-.423-.222-.847-.331-1.269-.121-.461-.239-.921-.365-1.381-.06-.227-.114-.454-.177-.681-.167-.6-.352-1.2-.528-1.808-.114-.392-.225-.782-.343-1.174l-.1-.333q-.5-1.624-1.041-3.245l-.013-.039-.1-.279c-.325-.961-.656-1.922-1-2.882-.054-.152-.114-.3-.17-.452-.131-.36-.27-.718-.4-1.077-.194-.515-.38-1.032-.579-1.544-.127-.328-.263-.653-.394-.979q-.237-.6-.481-1.2c-.119-.292-.231-.583-.351-.874-.243-.582-.5-1.16-.748-1.742-.131-.306-.26-.612-.393-.917l-.141-.331q-.672-1.52-1.381-3.032l-.063-.128c-.133-.285-.275-.568-.412-.852-.371-.779-.741-1.558-1.128-2.332-.06-.121-.125-.24-.186-.362-.316-.629-.646-1.255-.972-1.882-.263-.506-.517-1.019-.786-1.522l-.154-.274q-1.308-2.44-2.711-4.833c-.078-.135-.15-.275-.23-.409-.238-.407-.49-.8-.732-1.208-.393-.653-.784-1.3-1.187-1.95-.358-.577-.725-1.15-1.091-1.723-.408-.637-.817-1.273-1.234-1.9-.139-.211-.27-.425-.41-.633s-.276-.387-.411-.586c-1.159-1.716-2.34-3.416-3.561-5.075h0l-.026-.032q-1.3-1.763-2.647-3.476l-.118-.153c-.66-.84-1.334-1.665-2.011-2.486-.13-.158-.254-.32-.385-.477l-.023-.03q-1.2-1.44-2.427-2.839l-.123-.137c-.248-.281-.5-.552-.749-.83-.522-.582-1.039-1.168-1.569-1.737l-.3-.317c-.356-.38-.717-.752-1.075-1.127-.4-.415-.789-.838-1.19-1.246-.148-.152-.3-.3-.452-.446-.389-.394-.782-.779-1.177-1.165-.338-.333-.673-.676-1.015-1-.2-.186-.394-.364-.591-.55q-.638-.6-1.282-1.191c-.3-.274-.588-.558-.888-.827-.235-.212-.475-.411-.712-.621q-.644-.57-1.294-1.128c-.263-.227-.522-.464-.786-.686-.288-.243-.578-.472-.867-.709q-.632-.522-1.267-1.034c-.221-.177-.438-.364-.66-.538-.36-.285-.726-.554-1.089-.831-.394-.3-.788-.608-1.183-.9-.162-.121-.32-.249-.483-.369-.488-.36-.984-.7-1.476-1.05-.331-.235-.66-.475-.993-.705l-.26-.185q-1.328-.91-2.668-1.763l-.024-.015-.191-.117c-.809-.511-1.623-1.014-2.441-1.5-.206-.121-.411-.241-.617-.358l-27.118-15.657c-.037-.134-.073-.267-.112-.4-.127-.464-.272-.925-.4-1.387-.312-1.095-.626-2.19-.958-3.284-.04-.131-.074-.261-.114-.392-.162-.528-.342-1.055-.509-1.583-.3-.944-.595-1.887-.907-2.83-.062-.186-.117-.371-.177-.558-.176-.52-.367-1.041-.546-1.562-.3-.878-.6-1.756-.917-2.634-.083-.229-.158-.46-.242-.689-.186-.516-.388-1.029-.581-1.546-.3-.8-.6-1.607-.906-2.41-.1-.248-.182-.5-.28-.746-.2-.507-.41-1.014-.612-1.52q-.463-1.166-.938-2.329c-.105-.256-.2-.513-.31-.771-.212-.509-.438-1.018-.654-1.526-.319-.75-.637-1.5-.965-2.251-.111-.253-.215-.509-.326-.763-.213-.483-.441-.962-.658-1.445-.365-.811-.731-1.62-1.106-2.428-.125-.271-.244-.543-.371-.815-.2-.42-.406-.836-.606-1.255q-.653-1.374-1.326-2.739c-.158-.321-.307-.645-.466-.965s-.326-.627-.484-.942q-.871-1.727-1.773-3.44c-.2-.374-.382-.75-.578-1.123-.118-.22-.24-.436-.358-.655-.373-.7-.753-1.386-1.133-2.079-.415-.755-.83-1.511-1.255-2.264-.389-.69-.786-1.376-1.181-2.062-.288-.5-.567-1-.857-1.494-.1-.179-.216-.349-.321-.527q-1.673-2.831-3.419-5.613c-.2-.321-.41-.637-.613-.958q-1.532-2.409-3.123-4.777c-.176-.263-.343-.534-.52-.8-.167-.247-.34-.487-.509-.732-.423-.621-.852-1.235-1.28-1.85q-.753-1.083-1.517-2.157-.653-.911-1.315-1.818c-.29-.4-.576-.8-.87-1.2-.163-.221-.335-.434-.5-.655q-1.573-2.11-3.184-4.173c-.141-.18-.276-.366-.418-.547l-.108-.132q-1.69-2.145-3.426-4.233l-.158-.2c-.283-.338-.574-.665-.858-1-.8-.951-1.6-1.9-2.42-2.83-.125-.145-.248-.294-.375-.439-.308-.351-.626-.69-.937-1.038q-1.1-1.243-2.225-2.465c-.2-.216-.392-.442-.592-.658-.271-.293-.551-.572-.823-.863q-1.12-1.193-2.255-2.363c-.27-.277-.532-.565-.8-.841-.207-.211-.419-.41-.627-.619-.833-.842-1.671-1.666-2.514-2.487-.312-.3-.618-.619-.931-.921-.121-.116-.244-.225-.366-.339q-1.694-1.617-3.417-3.178c-.141-.128-.277-.262-.417-.391l-.054-.046q-1.956-1.759-3.943-3.439l-.267-.233c-.32-.27-.646-.523-.967-.79-.913-.759-1.831-1.512-2.753-2.248-.188-.149-.371-.308-.56-.456-.324-.256-.654-.495-.98-.746q-1.208-.94-2.428-1.853c-.268-.2-.532-.412-.8-.61s-.559-.392-.835-.594q-1.147-.833-2.3-1.637c-.333-.233-.663-.479-1-.709-.226-.156-.456-.3-.684-.452-.749-.507-1.5-1-2.257-1.492-.387-.251-.77-.516-1.155-.764-.184-.116-.37-.221-.554-.337-.727-.459-1.457-.9-2.187-1.34-.433-.261-.861-.537-1.295-.791q-.466-.277-.937-.546-1.528-.883-3.046-1.7l-.09-.049q-1.808-.975-3.6-1.863l-.209-.109c-.265-.131-.527-.244-.791-.373-.862-.418-1.722-.826-2.576-1.214-.162-.073-.326-.157-.488-.23-.259-.117-.515-.216-.773-.329q-1.177-.515-2.345-.993c-.238-.1-.48-.209-.717-.3-.185-.075-.365-.135-.55-.207-.844-.333-1.683-.646-2.521-.949-.256-.092-.517-.2-.772-.29l-.248-.082c-1.182-.411-2.356-.8-3.521-1.151l-.1-.035q-1.4-.424-2.792-.793l-.094-.339c-.139-.5-.294-.994-.436-1.492-.391-1.371-.784-2.743-1.2-4.115-.041-.134-.077-.27-.118-.4-.193-.628-.406-1.255-.6-1.883-.36-1.14-.718-2.279-1.1-3.417-.065-.2-.125-.4-.191-.6-.209-.627-.439-1.251-.655-1.877-.362-1.056-.725-2.112-1.1-3.167-.09-.25-.172-.5-.262-.754-.229-.628-.474-1.254-.708-1.883-.355-.955-.709-1.909-1.075-2.861-.107-.276-.2-.552-.311-.827-.243-.621-.5-1.238-.748-1.859-.369-.926-.736-1.85-1.115-2.774-.118-.284-.226-.569-.344-.854-.258-.621-.533-1.237-.8-1.856-.382-.9-.762-1.8-1.152-2.692-.125-.285-.241-.57-.367-.854-.258-.586-.534-1.166-.8-1.751-.435-.965-.868-1.928-1.316-2.891-.141-.3-.274-.61-.416-.913-.239-.51-.493-1.012-.736-1.521q-.775-1.627-1.57-3.247c-.18-.365-.349-.732-.529-1.1-.2-.389-.4-.772-.6-1.161q-1.014-2.008-2.061-4c-.229-.438-.446-.883-.68-1.321-.154-.289-.316-.574-.47-.865-.434-.808-.878-1.614-1.321-2.419-.5-.9-.993-1.808-1.5-2.707q-.678-1.2-1.372-2.4c-.316-.549-.623-1.1-.943-1.648-.139-.236-.288-.465-.425-.7q-2-3.388-4.084-6.719c-.194-.308-.4-.611-.591-.919q-1.877-2.96-3.826-5.862c-.207-.307-.4-.623-.608-.93s-.441-.633-.659-.952c-.51-.749-1.028-1.492-1.544-2.233q-.883-1.266-1.777-2.522-.792-1.108-1.593-2.2c-.328-.448-.648-.906-.978-1.352-.2-.271-.41-.531-.61-.8q-1.842-2.474-3.736-4.9c-.182-.234-.357-.474-.54-.708l-.152-.186q-2.014-2.553-4.082-5.043l-.177-.22c-.334-.4-.677-.786-1.012-1.185-.952-1.129-1.908-2.255-2.875-3.362-.146-.167-.286-.34-.432-.506-.37-.42-.748-.822-1.12-1.24q-1.312-1.476-2.643-2.929c-.23-.25-.455-.51-.685-.761-.325-.349-.66-.685-.987-1.033q-1.334-1.42-2.684-2.812c-.315-.325-.622-.66-.937-.983-.251-.256-.507-.5-.758-.749q-1.478-1.492-2.977-2.945c-.37-.358-.731-.732-1.1-1.087-.148-.141-.3-.275-.447-.416q-1.983-1.892-4-3.718c-.182-.166-.36-.342-.543-.5l-.073-.064q-2.32-2.091-4.684-4.087l-.3-.265c-.374-.315-.755-.61-1.131-.923-1.095-.911-2.193-1.813-3.3-2.693-.218-.175-.434-.361-.653-.533-.385-.3-.779-.588-1.165-.888q-1.44-1.118-2.891-2.2c-.315-.235-.626-.487-.942-.718s-.664-.468-.993-.707q-1.364-.992-2.74-1.948c-.393-.275-.782-.565-1.176-.835-.268-.185-.542-.355-.812-.537-.893-.605-1.793-1.195-2.693-1.779-.454-.294-.9-.609-1.359-.9-.217-.139-.438-.265-.655-.4-.866-.544-1.737-1.07-2.607-1.6-.511-.307-1.016-.633-1.528-.934q-.557-.328-1.113-.649c-1.114-.644-2.225-1.262-3.331-1.863l-.287-.161c-.163-.089-.324-.166-.488-.254q-1.865-1-3.714-1.923c-.152-.076-.3-.162-.456-.236l-.2-.094c-1.346-.663-2.685-1.29-4.017-1.892-.127-.058-.258-.125-.387-.182-.164-.073-.328-.136-.495-.209-1.337-.592-2.67-1.164-3.993-1.695l-.059-.024L336-555c-1.379-.551-2.744-1.059-4.106-1.544-.158-.057-.317-.125-.475-.179-.12-.042-.235-.075-.355-.116q-1.991-.694-3.957-1.295l-.243-.08c-.143-.044-.283-.075-.427-.117-1.386-.412-2.763-.8-4.13-1.14l-.137-.038-.041-.009c-1.438-.358-2.861-.668-4.274-.951-.137-.026-.278-.064-.415-.091s-.271-.048-.407-.072c-.369-.071-.736-.135-1.1-.2-.487-.086-.973-.171-1.457-.247-.371-.059-.743-.113-1.113-.167-.268-.039-.538-.083-.806-.121-.194-.026-.385-.044-.579-.069q-.642-.081-1.281-.151c-.436-.048-.872-.094-1.307-.135s-.845-.076-1.267-.108c-.235-.019-.473-.044-.707-.06-.182-.013-.362-.017-.545-.027-.478-.031-.952-.054-1.426-.073-.4-.018-.793-.033-1.186-.042-.473-.013-.943-.018-1.412-.022-.253,0-.51-.01-.763-.01-.122,0-.242.008-.364.009-.637.006-1.268.026-1.9.048-.274.01-.549.015-.82.028q-1.343.066-2.665.181h-.03l-.14.017c-.946.087-1.88.2-2.807.326-.279.039-.554.08-.83.122q-1.189.177-2.359.4c-.145.028-.293.046-.438.076l-.131.03c-1.186.239-2.354.516-3.509.823-.2.054-.41.108-.614.164q-1.7.468-3.343,1.034l-.244.076c-.188.066-.369.141-.555.209-.484.175-.966.353-1.443.542-.3.118-.6.238-.9.361-.475.2-.946.4-1.414.61-.285.126-.57.253-.853.385-.5.233-1,.479-1.492.727-.236.121-.475.235-.71.357q-1.085.567-2.143,1.177l-9.055,5.262q1.058-.613,2.143-1.178c.235-.122.474-.236.71-.355.493-.25.989-.495,1.492-.73.283-.131.569-.258.856-.385q.7-.314,1.412-.608c.3-.125.6-.245.9-.362q.717-.281,1.443-.542c.266-.1.532-.193.8-.285q1.648-.567,3.343-1.035c.2-.057.409-.11.614-.164,1.155-.306,2.321-.585,3.509-.821.189-.038.38-.071.57-.107.779-.148,1.566-.283,2.357-.4.276-.041.552-.082.829-.119.929-.128,1.863-.24,2.807-.326l.171-.019c.88-.08,1.769-.137,2.664-.182.271-.012.546-.017.82-.027.628-.023,1.26-.041,1.9-.048.374,0,.75,0,1.127,0,.469,0,.939.009,1.412.021.393.01.79.027,1.185.044.474.019.949.042,1.427.072q.624.038,1.253.089c.42.032.843.067,1.267.108s.868.087,1.305.135.853.1,1.282.153c.46.058.92.122,1.382.189.371.054.741.108,1.114.167.483.076.969.161,1.456.245.369.066.737.13,1.107.2.272.051.546.111.82.164,1.414.283,2.838.592,4.276.949l.18.049c1.366.342,2.744.727,4.13,1.138.222.067.443.13.667.2,1.309.4,2.63.832,3.957,1.294.277.1.555.2.831.3,1.362.486,2.729.993,4.106,1.544l.068.027c1.323.533,2.658,1.1,4,1.7q.439.193.879.391,2,.9,4.019,1.894c.217.107.437.221.655.33q1.848.921,3.712,1.922c.26.139.518.275.779.415,1.107.6,2.216,1.22,3.33,1.863.885.511,1.761,1.054,2.641,1.585s1.74,1.05,2.6,1.594c.674.425,1.346.865,2.018,1.3.9.583,1.8,1.172,2.69,1.777.665.45,1.326.911,1.987,1.372q1.374.958,2.74,1.948.971.7,1.937,1.425,1.449,1.081,2.887,2.2c.608.471,1.217.942,1.82,1.422,1.106.88,2.2,1.782,3.3,2.692.478.4.958.785,1.434,1.188q2.361,2,4.683,4.084c.211.19.418.388.628.581q2.008,1.823,3.989,3.708c.518.5,1.03,1,1.547,1.5q1.5,1.457,2.974,2.942.854.863,1.7,1.737,1.349,1.389,2.677,2.806c.561.6,1.122,1.195,1.678,1.8q1.33,1.447,2.64,2.925c.518.581,1.038,1.159,1.552,1.747.969,1.107,1.923,2.233,2.875,3.363.4.469.8.929,1.19,1.4q2.068,2.49,4.082,5.043c.233.3.46.6.691.9q1.892,2.42,3.736,4.9c.533.716,1.063,1.431,1.589,2.153s1.064,1.463,1.589,2.2q.9,1.258,1.782,2.53.775,1.11,1.54,2.228c.426.624.847,1.255,1.268,1.885q1.944,2.9,3.822,5.853c.2.311.4.618.6.929q2.089,3.324,4.08,6.714.694,1.176,1.375,2.359t1.367,2.386q.761,1.353,1.506,2.716c.441.8.883,1.606,1.316,2.414.389.726.77,1.457,1.151,2.185q1.046,1.993,2.061,4,.569,1.127,1.128,2.256.8,1.621,1.573,3.252c.384.808.771,1.616,1.148,2.428.447.962.883,1.928,1.317,2.893.391.868.782,1.734,1.164,2.605.391.894.771,1.792,1.152,2.69s.767,1.808,1.14,2.712c.38.922.748,1.849,1.116,2.774.356.894.713,1.79,1.059,2.686.365.951.719,1.9,1.073,2.855.328.883.658,1.764.974,2.648.376,1.048.737,2.1,1.1,3.151.285.829.576,1.66.852,2.491.378,1.136.735,2.273,1.093,3.411.242.763.491,1.526.723,2.291.418,1.371.811,2.744,1.2,4.115.175.612.361,1.22.529,1.831.958.254,1.924.532,2.9.826q1.748.532,3.521,1.154c.339.118.681.248,1.019.371.838.3,1.678.615,2.522.948.421.166.845.339,1.268.513q1.166.478,2.342.993c.421.185.84.367,1.262.559.856.387,1.715.8,2.577,1.214.334.162.667.315,1,.482q1.792.89,3.6,1.863,1.563.844,3.139,1.751c.746.432,1.486.89,2.23,1.337s1.461.883,2.187,1.34c.572.361,1.139.732,1.709,1.1.754.491,1.508.983,2.257,1.492.563.382,1.123.772,1.683,1.161q1.154.805,2.3,1.635.821.6,1.639,1.206,1.218.91,2.424,1.849c.515.4,1.03.8,1.543,1.206.922.735,1.837,1.486,2.751,2.246.412.343.826.677,1.235,1.024q1.989,1.684,3.943,3.439c.159.143.315.292.473.437q1.721,1.561,3.417,3.177c.435.416.865.842,1.3,1.262q1.264,1.23,2.514,2.486c.479.483.955.973,1.43,1.462q1.133,1.168,2.252,2.36.713.759,1.422,1.525c.746.812,1.484,1.635,2.22,2.461.438.492.88.982,1.313,1.48.815.931,1.619,1.88,2.42,2.83.338.4.682.8,1.016,1.2q1.736,2.089,3.426,4.232c.177.225.349.456.524.681q1.615,2.062,3.185,4.173.686.921,1.366,1.853c.443.606.884,1.213,1.322,1.826q.763,1.072,1.515,2.153.642.919,1.278,1.845c.348.511.69,1.025,1.033,1.539q1.588,2.365,3.121,4.771c.2.32.411.638.614.96q1.75,2.779,3.417,5.613c.4.672.789,1.349,1.179,2.025s.79,1.367,1.178,2.054c.424.753.84,1.511,1.256,2.267.38.693.762,1.385,1.134,2.081.316.588.623,1.182.935,1.773q.9,1.715,1.77,3.44.482.952.954,1.909.673,1.368,1.327,2.744c.328.686.654,1.371.974,2.059.376.812.744,1.626,1.111,2.441.329.732.659,1.465.98,2.2.328.752.647,1.506.967,2.26s.646,1.524.962,2.289.627,1.552.937,2.328c.3.757.6,1.512.893,2.27.31.8.608,1.607.906,2.411.276.743.552,1.485.82,2.229.315.879.618,1.759.92,2.639.242.705.488,1.412.722,2.117.314.944.61,1.887.908,2.832.208.658.421,1.314.62,1.971.335,1.1.651,2.2.965,3.3.168.591.348,1.182.511,1.773l27.118,15.656c1.026.592,2.045,1.214,3.059,1.855l.19.118c.992.63,1.975,1.287,2.952,1.962.333.23.662.471.993.707.655.464,1.309.933,1.959,1.416.4.3.789.6,1.184.9.585.451,1.169.9,1.749,1.371.424.339.845.686,1.267,1.034q.832.688,1.655,1.4.648.557,1.291,1.125.806.715,1.6,1.45.642.592,1.278,1.191c.54.51,1.074,1.03,1.607,1.553.393.387.789.772,1.177,1.164.552.556,1.1,1.123,1.642,1.693.359.375.719.746,1.075,1.128.629.673,1.25,1.362,1.871,2.053.248.277.5.549.748.83q1.3,1.48,2.576,3.008c.127.154.252.315.38.47.718.871,1.432,1.752,2.134,2.645q1.33,1.7,2.618,3.439l.054.071c1.223,1.659,2.4,3.358,3.563,5.075.274.4.55.808.82,1.215.416.631.826,1.269,1.235,1.908.366.572.732,1.143,1.092,1.722.4.645.793,1.3,1.185,1.949.322.538.648,1.075.963,1.617q1.4,2.393,2.712,4.834c.32.594.627,1.194.938,1.792.326.627.656,1.254.974,1.886.447.889.88,1.783,1.309,2.681.139.288.283.576.42.866q.813,1.734,1.582,3.485c.135.31.265.619.4.929q.561,1.3,1.095,2.607.243.6.479,1.195.5,1.258.975,2.523c.135.36.274.719.406,1.082q.609,1.661,1.172,3.33l.1.279q.605,1.81,1.151,3.62c.118.387.226.775.34,1.161.244.834.483,1.668.711,2.5.123.46.241.919.361,1.379q.3,1.164.581,2.328.164.688.321,1.377c.18.8.348,1.594.51,2.392.087.421.176.843.258,1.263q.3,1.572.556,3.14c.023.145.051.292.076.436.188,1.191.351,2.377.5,3.559.042.335.075.671.112,1.007q.144,1.27.258,2.535c.035.4.066.808.1,1.213q.091,1.2.147,2.391c.019.383.04.767.054,1.149.04,1.129.067,2.253.063,3.37l-.014,4.919c0,1.172-.035,2.32-.086,3.449-.014.32-.041.628-.058.943-.045.777-.1,1.549-.164,2.307-.039.438-.087.867-.135,1.3-.068.64-.143,1.276-.227,1.9-.064.461-.134.916-.206,1.368-.091.577-.189,1.145-.294,1.707q-.143.757-.3,1.5-.164.759-.344,1.5c-.14.581-.292,1.154-.448,1.718-.122.443-.247.883-.379,1.314-.208.678-.43,1.341-.662,2-.126.352-.245.709-.375,1.055-.416,1.1-.862,2.163-1.344,3.186q-.559,1.187-1.17,2.3l-.008.014c-.42.762-.862,1.5-1.321,2.208-.093.143-.19.279-.284.419-.35.527-.708,1.042-1.078,1.54-.149.2-.3.4-.454.595-.352.454-.712.892-1.079,1.321-.143.163-.28.331-.423.492-.507.568-1.026,1.115-1.563,1.638l-.235.215q-.7.669-1.44,1.287c-.179.15-.361.294-.544.439q-.63.507-1.285.975c-.18.13-.358.262-.542.388-.608.415-1.226.817-1.862,1.186l9.055-5.262c.636-.369,1.254-.771,1.862-1.186.184-.125.361-.258.542-.388q.655-.468,1.286-.974c.182-.146.364-.29.543-.441q.736-.619,1.439-1.287l.235-.215c.537-.522,1.056-1.07,1.562-1.637.145-.161.281-.329.424-.493q.551-.642,1.078-1.321c.154-.2.306-.393.455-.595.37-.5.729-1.014,1.078-1.54.094-.141.191-.276.284-.419l.085-.125q.644-1.01,1.236-2.084l.008-.013q.586-1.068,1.124-2.2l.046-.109c.482-1.023.928-2.089,1.344-3.187l.116-.274c.094-.252.168-.525.26-.781.23-.655.453-1.317.66-2,.055-.18.123-.347.176-.529.076-.253.134-.525.2-.782.157-.568.308-1.14.45-1.723.057-.238.127-.461.181-.7.059-.26.105-.534.161-.8q.16-.746.3-1.5c.049-.26.109-.509.154-.771.054-.3.091-.626.14-.934.072-.454.141-.908.206-1.37.031-.234.073-.459.1-.7.049-.393.081-.8.123-1.2.046-.43.1-.859.135-1.3.015-.176.039-.343.054-.52.048-.586.076-1.19.11-1.787.018-.315.044-.623.059-.942l.013-.235q.065-1.492.072-3.035v-.181l.015-4.919c0-.939-.011-1.885-.039-2.833" transform="translate(-263.323 562.068)" fill="none" clip-rule="evenodd"/></clipPath><clipPath id="g"><path d="M724.47-142.146c-.005-.179-.018-.358-.026-.537-.013-.383-.033-.768-.053-1.152-.023-.448-.035-.9-.064-1.346-.021-.344-.057-.692-.081-1.038-.031-.4-.062-.811-.1-1.217-.023-.266-.039-.531-.063-.8-.055-.576-.128-1.155-.194-1.732-.037-.338-.069-.673-.112-1.011l-.037-.331q-.2-1.571-.447-3.153l-.013-.068c-.024-.155-.055-.311-.081-.466-.143-.879-.29-1.756-.455-2.638-.031-.158-.067-.316-.1-.474-.082-.421-.171-.843-.258-1.264-.1-.513-.2-1.023-.311-1.535-.063-.284-.135-.57-.2-.856q-.156-.688-.321-1.377c-.085-.351-.159-.7-.245-1.055-.105-.421-.224-.844-.333-1.268-.121-.463-.24-.924-.365-1.388-.062-.225-.116-.45-.177-.674-.167-.6-.352-1.2-.527-1.8-.116-.394-.226-.79-.347-1.183l-.1-.329q-.5-1.624-1.041-3.245l-.013-.039-.107-.3q-.482-1.43-1-2.857c-.055-.152-.114-.3-.171-.452-.131-.36-.27-.719-.4-1.08-.193-.513-.38-1.028-.578-1.54-.129-.328-.265-.654-.4-.982q-.237-.6-.48-1.194c-.118-.29-.231-.583-.351-.874-.242-.579-.493-1.154-.741-1.731-.135-.312-.266-.624-.4-.937l-.139-.324q-.673-1.52-1.381-3.031l-.06-.126c-.137-.293-.283-.582-.423-.872-.369-.773-.736-1.546-1.119-2.314-.06-.122-.126-.242-.187-.364-.316-.631-.646-1.258-.974-1.885-.262-.506-.515-1.016-.784-1.52l-.153-.271q-1.31-2.442-2.713-4.834c-.077-.136-.149-.275-.229-.41-.239-.406-.491-.8-.734-1.205-.391-.654-.784-1.307-1.186-1.953-.358-.577-.725-1.149-1.091-1.72-.409-.639-.817-1.276-1.235-1.907-.139-.209-.27-.424-.41-.632s-.276-.387-.41-.585c-1.159-1.716-2.339-3.416-3.563-5.075v0l-.035-.044q-1.3-1.758-2.636-3.464l-.118-.155c-.659-.836-1.33-1.659-2.005-2.477-.131-.161-.258-.324-.391-.483l-.024-.031q-1.2-1.44-2.426-2.838l-.122-.135c-.253-.287-.51-.564-.764-.848-.517-.577-1.032-1.158-1.556-1.723l-.3-.313c-.358-.383-.722-.757-1.082-1.134-.4-.415-.789-.836-1.188-1.244-.148-.15-.3-.3-.45-.445-.389-.393-.785-.78-1.181-1.168-.339-.334-.673-.676-1.016-1-.194-.186-.392-.361-.587-.546q-.636-.6-1.28-1.191c-.3-.274-.591-.558-.89-.827-.235-.212-.475-.412-.71-.621q-.644-.57-1.292-1.127c-.263-.226-.523-.464-.787-.687-.285-.24-.576-.466-.862-.7-.423-.349-.847-.7-1.273-1.039-.22-.177-.437-.362-.658-.537-.358-.283-.723-.55-1.084-.827-.4-.3-.792-.609-1.188-.907-.162-.121-.32-.248-.482-.367-.486-.357-.978-.7-1.467-1.041-.335-.239-.667-.482-1-.716l-.258-.184q-1.326-.908-2.667-1.761l-.022-.014-.2-.122q-1.212-.767-2.435-1.49c-.206-.121-.411-.242-.617-.36l-27.126-15.661c-.037-.137-.075-.274-.114-.409-.126-.461-.271-.92-.4-1.381-.312-1.1-.627-2.193-.961-3.289-.039-.132-.075-.262-.114-.393-.161-.524-.339-1.047-.5-1.573-.3-.948-.6-1.9-.911-2.843-.062-.185-.116-.371-.177-.555-.173-.515-.362-1.03-.539-1.546-.3-.885-.609-1.769-.925-2.654-.081-.227-.157-.456-.239-.685-.186-.511-.387-1.023-.577-1.534-.3-.807-.6-1.615-.91-2.42-.1-.248-.184-.5-.28-.748-.2-.506-.409-1.009-.609-1.513-.311-.78-.621-1.56-.94-2.338-.105-.254-.2-.51-.31-.767-.211-.506-.435-1.01-.65-1.515-.32-.755-.64-1.511-.969-2.264-.11-.253-.215-.509-.326-.762-.212-.48-.438-.957-.654-1.436-.366-.814-.734-1.629-1.111-2.44-.125-.27-.243-.542-.369-.811-.2-.419-.406-.832-.6-1.249q-.655-1.376-1.327-2.745c-.158-.321-.308-.645-.469-.966s-.326-.626-.484-.94q-.873-1.731-1.775-3.448c-.2-.37-.378-.745-.576-1.114-.114-.218-.236-.433-.353-.65-.376-.7-.761-1.4-1.145-2.1-.412-.752-.825-1.5-1.246-2.251-.389-.691-.788-1.379-1.185-2.066-.286-.5-.565-1-.854-1.492-.1-.177-.216-.349-.32-.525q-1.673-2.833-3.42-5.618c-.2-.316-.406-.629-.606-.946q-1.536-2.415-3.13-4.786c-.176-.263-.343-.534-.52-.8-.167-.247-.34-.487-.506-.732q-.64-.933-1.285-1.856-.752-1.079-1.512-2.147-.655-.915-1.321-1.824c-.289-.4-.573-.8-.866-1.2-.163-.222-.335-.436-.5-.657q-1.571-2.108-3.185-4.173c-.14-.18-.275-.365-.416-.545l-.108-.135q-1.692-2.143-3.429-4.234l-.156-.193c-.279-.335-.565-.658-.847-.989-.806-.956-1.612-1.909-2.432-2.846-.125-.144-.247-.294-.374-.437-.307-.351-.624-.689-.934-1.038q-1.108-1.243-2.228-2.468c-.2-.216-.392-.439-.591-.654-.272-.294-.552-.576-.826-.866q-1.12-1.193-2.255-2.363c-.268-.276-.531-.563-.8-.838-.206-.211-.419-.411-.626-.621q-1.253-1.262-2.519-2.491c-.311-.3-.615-.617-.928-.916-.121-.117-.245-.226-.367-.343q-1.688-1.611-3.4-3.166c-.145-.13-.287-.27-.43-.4l-.057-.049q-1.954-1.759-3.943-3.44l-.263-.23c-.32-.268-.645-.52-.965-.787-.916-.761-1.832-1.515-2.757-2.251-.189-.149-.371-.307-.56-.456-.326-.257-.656-.5-.984-.75q-1.206-.939-2.423-1.847c-.268-.2-.533-.414-.8-.612s-.56-.394-.838-.6q-1.147-.832-2.3-1.637c-.334-.231-.663-.479-1-.707-.226-.157-.456-.3-.683-.452-.752-.51-1.507-1-2.264-1.5-.385-.249-.764-.514-1.151-.761-.182-.116-.367-.222-.551-.338-.728-.457-1.462-.9-2.194-1.343-.43-.261-.857-.534-1.29-.79q-.466-.274-.935-.546-1.53-.883-3.049-1.7l-.091-.048q-1.808-.975-3.6-1.863l-.216-.112c-.267-.131-.531-.245-.8-.376-.861-.416-1.719-.824-2.573-1.211-.163-.075-.329-.159-.492-.233-.258-.116-.513-.213-.768-.326q-1.185-.518-2.36-1c-.239-.1-.483-.211-.722-.306-.18-.072-.356-.131-.534-.2-.862-.338-1.719-.658-2.573-.969-.25-.09-.5-.194-.753-.281l-.226-.075q-1.779-.622-3.536-1.158l-.134-.044q-1.366-.412-2.721-.775c-.033-.119-.065-.239-.1-.358-.137-.5-.294-1-.437-1.5-.388-1.367-.78-2.731-1.2-4.1-.042-.136-.078-.274-.119-.41-.193-.627-.406-1.254-.6-1.881-.358-1.138-.716-2.274-1.093-3.411-.067-.2-.127-.4-.194-.605-.209-.623-.438-1.246-.653-1.869-.364-1.056-.726-2.112-1.1-3.168-.09-.251-.173-.5-.263-.755-.229-.627-.473-1.251-.707-1.878-.353-.955-.708-1.908-1.074-2.86-.107-.276-.2-.554-.312-.83-.242-.622-.5-1.24-.748-1.859-.367-.925-.735-1.847-1.114-2.769-.117-.285-.226-.573-.346-.857-.257-.62-.532-1.236-.794-1.855-.382-.9-.762-1.8-1.154-2.693-.125-.284-.24-.57-.365-.852-.26-.585-.534-1.165-.8-1.747-.434-.967-.87-1.934-1.318-2.9-.14-.3-.272-.608-.414-.911-.239-.506-.492-1.009-.735-1.515q-.777-1.63-1.573-3.253c-.18-.365-.348-.731-.528-1.093-.194-.388-.4-.771-.6-1.158q-1.014-2.012-2.063-4.007c-.229-.437-.445-.879-.677-1.316-.153-.289-.315-.573-.47-.862-.434-.812-.879-1.617-1.321-2.424q-.744-1.355-1.5-2.7c-.452-.8-.912-1.6-1.373-2.4-.316-.547-.622-1.1-.94-1.644-.139-.234-.286-.463-.424-.7q-2-3.388-4.085-6.72c-.194-.308-.4-.613-.592-.921q-1.879-2.96-3.829-5.865c-.207-.306-.4-.622-.605-.926-.217-.32-.441-.632-.659-.951-.51-.75-1.029-1.493-1.547-2.237q-.881-1.266-1.774-2.518-.792-1.108-1.594-2.207c-.328-.448-.646-.9-.975-1.349-.2-.27-.409-.529-.609-.8q-1.844-2.476-3.739-4.9c-.181-.233-.356-.475-.537-.707l-.154-.188q-2.014-2.553-4.08-5.042l-.177-.217c-.331-.4-.673-.784-1.006-1.178-.955-1.133-1.914-2.262-2.884-3.374-.145-.164-.284-.337-.428-.5-.369-.419-.746-.821-1.116-1.236q-1.314-1.48-2.647-2.933c-.23-.252-.455-.51-.685-.759-.326-.351-.662-.687-.989-1.037q-1.332-1.418-2.68-2.808c-.315-.324-.622-.662-.938-.984-.252-.254-.51-.5-.761-.752-.984-.993-1.976-1.969-2.973-2.94-.37-.358-.731-.732-1.1-1.089-.148-.141-.3-.275-.45-.418q-1.964-1.873-3.961-3.683c-.194-.177-.383-.362-.578-.538l-.08-.069q-2.316-2.087-4.678-4.08l-.3-.265c-.374-.316-.758-.613-1.133-.925-1.095-.91-2.19-1.811-3.3-2.692-.218-.175-.433-.36-.653-.533-.385-.3-.779-.587-1.165-.886q-1.44-1.12-2.891-2.2c-.316-.236-.626-.486-.942-.718s-.664-.468-.993-.708q-1.364-.989-2.739-1.945c-.394-.275-.782-.567-1.177-.836-.27-.185-.545-.355-.815-.537-.89-.6-1.787-1.191-2.684-1.774-.456-.3-.908-.612-1.366-.9-.218-.14-.439-.267-.658-.4-.863-.545-1.732-1.068-2.6-1.592-.511-.308-1.017-.636-1.531-.938q-.555-.328-1.113-.649c-1.113-.642-2.223-1.259-3.329-1.862l-.29-.162c-.164-.09-.329-.168-.5-.258q-1.86-1-3.7-1.917c-.153-.077-.308-.164-.462-.24l-.2-.1c-1.344-.662-2.681-1.289-4.012-1.891-.128-.058-.261-.125-.389-.182-.167-.076-.333-.139-.5-.212-1.339-.592-2.671-1.164-4-1.7l-.053-.022-.013,0c-1.377-.552-2.742-1.059-4.1-1.544-.159-.057-.321-.125-.48-.181-.119-.041-.236-.074-.357-.117q-1.989-.692-3.956-1.292l-.244-.081c-.143-.042-.283-.075-.427-.117-1.386-.412-2.765-.8-4.13-1.14l-.137-.038-.041-.01c-1.439-.357-2.862-.667-4.278-.949-.136-.026-.276-.065-.412-.091s-.267-.046-.4-.072c-.37-.069-.739-.134-1.107-.2-.487-.085-.974-.169-1.457-.245-.371-.059-.741-.113-1.11-.167-.27-.04-.542-.086-.811-.122-.194-.027-.384-.044-.578-.068q-.642-.083-1.28-.152c-.437-.049-.872-.095-1.305-.135s-.847-.077-1.268-.109c-.235-.019-.474-.045-.71-.06-.182-.013-.361-.017-.543-.028-.477-.03-.951-.053-1.422-.072-.4-.017-.8-.033-1.191-.044-.47-.011-.938-.017-1.405-.019-.256,0-.515-.012-.77-.012-.123,0-.243.008-.365.009-.635.006-1.265.024-1.892.048-.274.01-.548.015-.821.027-.894.045-1.783.1-2.663.182h-.032l-.148.018c-.942.086-1.872.2-2.8.325-.279.039-.556.08-.834.121q-1.185.179-2.351.4c-.146.027-.3.046-.443.074l-.132.032c-1.186.236-2.352.515-3.506.821-.207.054-.412.108-.617.164q-1.7.47-3.342,1.035l-.245.077c-.188.064-.37.141-.558.208q-.723.26-1.438.541c-.3.118-.6.239-.9.364-.475.2-.946.4-1.413.608-.284.127-.57.253-.852.384-.5.235-1,.481-1.5.731-.235.118-.474.231-.707.355q-1.085.567-2.143,1.177L106.759-418.717q1.056-.615,2.143-1.177c.234-.123.473-.236.708-.356.495-.249.991-.5,1.493-.73.283-.132.569-.257.854-.384.468-.208.938-.412,1.412-.609q.449-.185.9-.364.715-.279,1.439-.541c.267-.1.533-.191.8-.284q1.646-.567,3.342-1.035c.2-.057.411-.111.617-.164,1.152-.306,2.32-.585,3.5-.822.191-.039.385-.069.577-.107q1.168-.224,2.352-.4c.277-.041.554-.084.832-.122.9-.122,1.8-.23,2.713-.315l-112.3,65.258c.949-.551,1.926-1.052,2.921-1.52.326-.153.665-.28,1-.424.682-.294,1.367-.586,2.068-.841.569-.208,1.149-.393,1.729-.574.351-.111.7-.231,1.05-.33.727-.206,1.468-.38,2.215-.545.242-.054.477-.122.721-.172.922-.186,1.863-.337,2.814-.463.253-.035.509-.062.763-.09.867-.1,1.742-.184,2.63-.233l.267-.019c.894-.044,1.8-.049,2.717-.041.656.005,1.323.033,1.99.066.538.024,1.074.045,1.617.087.559.044,1.124.109,1.688.172.615.068,1.229.134,1.851.225.524.075,1.053.17,1.581.259.667.116,1.334.234,2.008.374.455.094.913.2,1.373.3q1.075.249,2.162.538c.46.122.919.248,1.381.38.788.229,1.582.477,2.379.737.376.125.75.24,1.129.37q3.519,1.216,7.147,2.862c.374.171.752.353,1.127.531q1.276.6,2.563,1.255.632.322,1.268.656c1.137.6,2.277,1.215,3.425,1.877L177.967-416c.46.221.916.423,1.379.65.218.108.439.221.659.331q1.844.921,3.705,1.921c.262.14.524.275.786.419q1.659.9,3.329,1.862c.886.511,1.764,1.055,2.644,1.585s1.737,1.05,2.6,1.593c.677.426,1.35.867,2.025,1.305.9.582,1.791,1.168,2.681,1.772.667.452,1.331.913,2,1.377q1.37.956,2.733,1.942.973.705,1.941,1.427,1.449,1.083,2.885,2.2c.608.471,1.218.943,1.822,1.425,1.1.879,2.2,1.779,3.294,2.688.478.4.961.789,1.438,1.192q2.359,2,4.679,4.082c.217.2.43.4.646.6q2,1.815,3.972,3.694c.519.495,1.032,1,1.547,1.5,1,.971,1.993,1.949,2.977,2.943q.854.86,1.7,1.733,1.347,1.389,2.677,2.807.842.9,1.679,1.8,1.33,1.447,2.639,2.925c.518.581,1.038,1.158,1.551,1.745.97,1.109,1.926,2.235,2.879,3.367.394.468.8.929,1.187,1.4q2.066,2.488,4.082,5.043c.233.294.459.6.691.893q1.894,2.422,3.736,4.9.8,1.068,1.587,2.148.8,1.1,1.592,2.2.9,1.258,1.781,2.528.773,1.11,1.54,2.225c.427.627.845,1.258,1.268,1.887q1.946,2.9,3.825,5.858c.2.31.4.613.594.924q2.091,3.326,4.084,6.718.688,1.168,1.367,2.346c.46.8.92,1.594,1.372,2.4.507.9,1.006,1.806,1.5,2.712.441.8.883,1.606,1.316,2.413.391.727.771,1.458,1.154,2.189q1.044,1.991,2.057,3.994.57,1.127,1.131,2.261.8,1.617,1.567,3.241c.387.812.775,1.623,1.154,2.438q.667,1.44,1.313,2.885c.392.868.784,1.736,1.164,2.607.393.9.773,1.795,1.155,2.693s.766,1.8,1.137,2.707c.38.924.748,1.85,1.116,2.775.356.9.713,1.79,1.059,2.685.366.952.719,1.905,1.073,2.857.328.881.656,1.76.973,2.641.376,1.05.737,2.1,1.1,3.153.285.829.576,1.659.852,2.489.375,1.133.732,2.269,1.091,3.4.242.764.491,1.53.725,2.3.414,1.359.8,2.719,1.191,4.079.179.624.37,1.25.542,1.876.946.252,1.9.528,2.855.817q1.756.536,3.537,1.159c.322.113.649.238.974.355.856.31,1.713.631,2.576.97.419.166.84.338,1.26.509q1.172.48,2.352,1c.423.184.844.367,1.268.56.853.387,1.71.794,2.569,1.211.339.164.676.32,1.016.488q1.79.89,3.6,1.864,1.563.844,3.137,1.751c.746.432,1.488.889,2.23,1.337s1.462.883,2.189,1.341c.572.358,1.141.731,1.709,1.1.754.491,1.507.984,2.256,1.492.564.38,1.124.771,1.683,1.163q1.156.806,2.3,1.635.821.6,1.637,1.205,1.22.91,2.427,1.85c.515.4,1.03.8,1.543,1.206.922.735,1.84,1.489,2.753,2.248.411.34.825.674,1.233,1.023q1.987,1.682,3.942,3.437c.164.149.325.3.488.452q1.713,1.553,3.4,3.162c.437.416.869.844,1.3,1.265q1.262,1.228,2.51,2.482c.48.484.957.975,1.434,1.465q1.131,1.168,2.248,2.357c.475.506.951,1.011,1.421,1.525q1.12,1.218,2.221,2.462c.439.493.88.983,1.316,1.48.815.934,1.619,1.881,2.419,2.832.338.4.68.794,1.015,1.2q1.734,2.089,3.425,4.232c.179.227.353.46.532.689q1.611,2.058,3.178,4.165.686.923,1.366,1.853.663.908,1.321,1.826c.509.71,1.011,1.429,1.511,2.147.43.617.861,1.233,1.285,1.855.347.507.687,1.021,1.029,1.53q1.588,2.37,3.123,4.779c.2.319.411.633.612.953q1.752,2.783,3.419,5.616.6,1.008,1.177,2.021c.4.686.793,1.371,1.181,2.061.425.752.84,1.507,1.255,2.262.38.694.763,1.386,1.136,2.083.316.59.623,1.183.934,1.775q.9,1.713,1.773,3.439.48.952.951,1.907.676,1.37,1.33,2.747.491,1.029.973,2.058.565,1.218,1.111,2.44c.33.734.659,1.466.98,2.2.328.75.647,1.5.966,2.256s.649,1.528.962,2.293.63,1.553.939,2.332c.3.754.6,1.508.89,2.265.31.8.609,1.607.907,2.411.276.744.554,1.488.82,2.232.315.877.617,1.759.921,2.639.24.7.487,1.408.719,2.112.313.946.613,1.892.911,2.838.207.656.419,1.313.621,1.968.33,1.092.644,2.183.956,3.275.172.6.355,1.2.52,1.8l27.126,15.662q1.534.886,3.051,1.85l.2.122c.988.628,1.971,1.285,2.947,1.959.335.231.668.475,1,.713q.979.692,1.95,1.412c.4.3.791.6,1.186.9q.877.673,1.747,1.367.638.513,1.271,1.039.829.684,1.648,1.39.649.559,1.3,1.129.8.713,1.6,1.447.644.59,1.282,1.191.807.765,1.6,1.552c.394.385.789.772,1.181,1.167.551.555,1.095,1.122,1.638,1.689.36.376.722.749,1.078,1.131.629.672,1.249,1.361,1.865,2.049.251.28.5.552.754.835q1.3,1.48,2.572,3c.135.161.263.328.4.49q1.07,1.3,2.117,2.627Q469.3-85.349,470.6-83.6l.035.046c1.224,1.659,2.406,3.36,3.565,5.076.272.4.549.807.817,1.214.419.633.829,1.272,1.237,1.912.366.57.732,1.141,1.089,1.716.4.648.794,1.3,1.187,1.954.322.537.646,1.073.962,1.614q1.4,2.4,2.711,4.834c.319.594.627,1.192.938,1.791.328.628.658,1.255.976,1.887q.667,1.335,1.307,2.679c.139.29.283.577.419.867q.817,1.734,1.583,3.487c.135.308.265.618.4.928.374.866.741,1.736,1.1,2.608.163.4.322.8.48,1.195q.5,1.258.974,2.522c.135.361.274.719.406,1.079q.609,1.663,1.172,3.33l.1.281q.605,1.806,1.151,3.616c.119.392.229.784.343,1.174.243.83.482,1.657.705,2.487.126.461.245.924.365,1.385q.3,1.164.579,2.325.164.688.321,1.375c.18.8.348,1.6.511,2.393.086.42.176.841.256,1.263q.3,1.567.555,3.128c.026.148.054.3.078.447q.281,1.784.5,3.556c.041.335.075.669.112,1,.1.847.184,1.692.257,2.535.036.406.067.809.1,1.214q.087,1.2.145,2.39c.018.384.04.768.054,1.149.04,1.128.067,2.252.064,3.369l-.015,4.928c0,1.173-.033,2.319-.085,3.449-.015.32-.041.63-.059.947-.046.777-.1,1.546-.164,2.3-.04.438-.089.867-.135,1.3-.069.638-.143,1.273-.229,1.9-.062.461-.132.916-.2,1.37-.091.574-.189,1.143-.294,1.7-.094.507-.2,1.007-.3,1.5s-.222,1-.343,1.5q-.212.873-.448,1.72c-.123.443-.247.881-.38,1.313-.207.678-.43,1.339-.66,1.993-.125.353-.245.712-.375,1.057-.419,1.1-.862,2.165-1.344,3.187-.375.794-.766,1.571-1.179,2.319v0q-.63,1.139-1.321,2.2c-.093.145-.191.281-.285.423q-.524.79-1.077,1.538c-.149.2-.3.4-.455.6q-.526.678-1.078,1.319c-.143.164-.28.333-.424.493-.506.567-1.025,1.115-1.564,1.637l-.236.217q-.7.669-1.439,1.286c-.179.149-.36.294-.542.439-.42.338-.849.662-1.286.976-.181.128-.358.261-.541.385-.609.418-1.227.817-1.863,1.187L706.181-94.12c.637-.37,1.255-.771,1.863-1.187.184-.126.362-.257.541-.387q.655-.47,1.287-.976c.182-.145.364-.289.542-.438q.736-.621,1.439-1.286l.236-.217c.538-.523,1.057-1.07,1.565-1.638.143-.161.28-.329.421-.492q.553-.644,1.08-1.322.229-.293.452-.594c.37-.5.73-1.012,1.078-1.538.094-.143.193-.279.286-.423l.084-.126c.425-.665.834-1.355,1.224-2.063l.018-.03q.59-1.068,1.127-2.2l.045-.108c.483-1.021.927-2.089,1.344-3.186l.117-.276c.094-.252.169-.524.259-.781.231-.654.454-1.314.662-1.993.054-.181.122-.349.175-.531.076-.254.134-.527.2-.785.157-.564.308-1.136.448-1.716.058-.239.128-.464.184-.7.059-.26.1-.534.161-.8q.158-.742.3-1.5c.049-.261.109-.51.154-.773.054-.3.091-.624.14-.933.072-.454.141-.908.206-1.37.031-.235.073-.46.1-.7.049-.394.08-.8.123-1.2.048-.432.1-.861.135-1.3.015-.176.039-.344.054-.52.048-.585.075-1.185.111-1.781.017-.317.044-.627.058-.947l.014-.234q.064-1.5.072-3.035v-.181l.015-4.929c0-.938-.011-1.883-.039-2.83" transform="translate(-18.155 557.972)" fill="none" clip-rule="evenodd"/></clipPath><clipPath id="i"><path d="M192.887-439.969c48.559,28.035,89.906,86.934,106.073,145.567A104.4,104.4,0,0,1,324.1-283.718c40.947,23.64,75.806,73.326,89.412,122.776l27.126,15.662c34.664,20.012,62.675,68.529,62.563,108.36l-.016,4.928c-.113,39.832-28.305,55.909-62.971,35.9L62.943-213.916C28.279-233.93.268-282.455.381-322.287L.4-327.215c.005-2.036.1-4,.254-5.915-.141-2.28-.225-4.548-.218-6.791.14-49.578,35.23-69.565,78.367-44.66,4.793-65.026,54.087-90.03,114.089-55.388" transform="translate(-0.38 455.577)" fill="none" clip-rule="evenodd"/></clipPath><clipPath id="k"><path d="M537.825-420.977c.04-14.036-9.836-31.133-22.05-38.183L289.329-589.9c-12.214-7.052-22.146-1.391-22.186,12.643l-.978,344.8.225.176c.924.735,1.84,1.489,2.753,2.248.411.34.825.674,1.233,1.023q1.987,1.682,3.942,3.437c.164.149.325.3.488.452q1.713,1.553,3.4,3.162c.437.416.868.844,1.3,1.265q1.262,1.228,2.509,2.482c.48.484.957.975,1.435,1.465q1.129,1.168,2.248,2.357c.474.506.949,1.011,1.42,1.525q1.12,1.218,2.221,2.462c.439.493.881.983,1.316,1.48.815.934,1.619,1.881,2.42,2.832.337.4.68.794,1.014,1.2q1.734,2.089,3.425,4.232c.179.227.353.46.532.689q1.611,2.058,3.178,4.165.686.923,1.366,1.853.665.908,1.321,1.826c.509.71,1.011,1.429,1.512,2.147q.646.925,1.285,1.855c.346.507.686,1.021,1.028,1.53q1.59,2.37,3.124,4.779c.2.319.41.633.612.953q1.75,2.783,3.419,5.616.594,1.008,1.177,2.021c.4.686.791,1.371,1.181,2.061.424.752.839,1.507,1.254,2.262.38.694.763,1.386,1.136,2.083.316.59.623,1.183.935,1.775q.9,1.713,1.772,3.439.482.952.952,1.907.675,1.37,1.328,2.747c.328.686.654,1.371.974,2.058.376.812.744,1.626,1.11,2.44.33.734.66,1.466.982,2.2.328.75.647,1.5.966,2.256s.648,1.528.962,2.293.628,1.553.938,2.332c.3.754.6,1.508.89,2.265.311.8.609,1.607.908,2.411.275.744.552,1.488.818,2.232.315.877.618,1.759.921,2.639.24.7.487,1.408.721,2.112.313.946.612,1.892.911,2.838.207.656.419,1.313.619,1.968.331,1.092.644,2.183.956,3.275.172.6.355,1.2.52,1.8l27.127,15.662q1.534.886,3.051,1.85l.2.122c.988.628,1.971,1.285,2.947,1.959.337.231.668.475,1,.713.653.461,1.305.93,1.951,1.412.4.3.79.6,1.186.9q.877.673,1.746,1.367.638.513,1.271,1.039.829.684,1.648,1.39.649.559,1.295,1.129.8.713,1.6,1.447.644.59,1.282,1.191.807.765,1.6,1.552c.394.385.79.772,1.181,1.167.551.555,1.095,1.122,1.639,1.689.358.376.721.749,1.078,1.131.628.672,1.247,1.361,1.865,2.049.249.28.5.552.754.835q1.3,1.48,2.572,3c.134.161.263.328.4.489.713.866,1.422,1.74,2.119,2.627q1.339,1.709,2.636,3.462l.036.046c1.223,1.659,2.4,3.36,3.564,5.076.272.4.549.807.817,1.214.419.633.829,1.272,1.238,1.912.365.57.731,1.141,1.088,1.716.4.648.8,1.3,1.187,1.954.322.537.646,1.073.962,1.614q1.4,2.4,2.712,4.834c.319.594.626,1.192.937,1.791.328.628.658,1.255.976,1.887.446.89.879,1.783,1.307,2.679.139.29.283.577.42.867q.815,1.734,1.581,3.487c.136.308.265.618.4.928q.561,1.3,1.095,2.608c.163.4.322.8.48,1.195q.5,1.258.974,2.522c.136.361.274.719.406,1.079q.609,1.663,1.173,3.33l.1.281q.6,1.806,1.15,3.616c.12.392.229.784.343,1.174.243.83.482,1.657.707,2.487.125.461.244.924.364,1.385q.3,1.164.579,2.325.164.688.321,1.375c.181.8.348,1.6.511,2.393.086.42.176.841.257,1.263.164.856.311,1.71.454,2.563L470.639,11.67l66.3-38.526.89-394.12" transform="translate(-266.165 592.934)" fill="none" clip-rule="evenodd"/></clipPath><clipPath id="m"><path d="M485.222-421.877l-183.861-104.3c-2.518-1.453-4.567-.285-4.575,2.609a10.018,10.018,0,0,0,4.545,7.873L485.193-411.4c2.517,1.454,4.566.286,4.575-2.607a10.025,10.025,0,0,0-4.547-7.874" transform="translate(-296.786 526.806)" fill="none" clip-rule="evenodd"/></clipPath><clipPath id="o"><path d="M485.222-371.847,301.361-476.15c-2.518-1.454-4.567-.286-4.575,2.607a10.018,10.018,0,0,0,4.545,7.874l183.862,104.3c2.517,1.454,4.566.286,4.575-2.607a10.023,10.023,0,0,0-4.547-7.874" transform="translate(-296.786 476.776)" fill="none" clip-rule="evenodd"/></clipPath><clipPath id="q"><path d="M485.222-321.817,301.361-426.12c-2.518-1.454-4.567-.287-4.575,2.607a10.02,10.02,0,0,0,4.545,7.874l183.862,104.3c2.517,1.452,4.566.285,4.575-2.609a10.021,10.021,0,0,0-4.547-7.873" transform="translate(-296.786 426.746)" fill="none" clip-rule="evenodd"/></clipPath><clipPath id="s"><path d="M485.222-271.787l-183.861-104.3c-2.518-1.453-4.567-.286-4.575,2.608a10.016,10.016,0,0,0,4.545,7.873l183.862,104.3c2.517,1.454,4.566.286,4.575-2.607a10.023,10.023,0,0,0-4.547-7.874" transform="translate(-296.786 376.716)" fill="none" clip-rule="evenodd"/></clipPath><clipPath id="u"><path d="M485.222-221.757l-183.861-104.3c-2.518-1.453-4.567-.285-4.575,2.609a10.018,10.018,0,0,0,4.545,7.873l183.862,104.3c2.517,1.454,4.566.286,4.575-2.607a10.023,10.023,0,0,0-4.547-7.874" transform="translate(-296.786 326.686)" fill="none" clip-rule="evenodd"/></clipPath><clipPath id="w"><path d="M491.671-404.935c.04-14.034-9.836-31.133-22.05-38.183L243.173-573.859c-12.214-7.051-22.146-1.391-22.186,12.643l-.588,260c.334.686.668,1.373,1,2.061.387.812.775,1.623,1.152,2.437.446.96.88,1.923,1.314,2.887.391.868.784,1.736,1.164,2.608.392.9.773,1.793,1.154,2.691s.767,1.8,1.138,2.707c.38.922.748,1.849,1.116,2.775.356.894.713,1.788,1.059,2.686.366.951.719,1.9,1.073,2.856.326.88.655,1.759.973,2.641.376,1.05.737,2.1,1.1,3.151.285.831.576,1.66.85,2.491.376,1.132.734,2.268,1.092,3.4.242.766.491,1.53.725,2.3.414,1.359.8,2.718,1.191,4.078.177.626.37,1.253.542,1.877.946.252,1.9.527,2.855.818q1.756.534,3.537,1.158c.322.113.649.238.974.354.854.311,1.713.631,2.576.97.419.166.84.338,1.26.51q1.172.48,2.352,1c.423.186.844.369,1.267.561.853.387,1.711.794,2.571,1.212.338.164.676.32,1.015.488q1.792.89,3.6,1.864,1.563.842,3.137,1.751c.746.43,1.488.89,2.23,1.337s1.462.883,2.189,1.34c.572.361,1.14.734,1.709,1.1.754.49,1.507.983,2.256,1.49.563.382,1.123.771,1.683,1.161q1.156.807,2.3,1.637.821.6,1.637,1.205,1.218.91,2.426,1.849c.515.4,1.032.8,1.544,1.208.922.735,1.84,1.488,2.753,2.248.41.342.825.674,1.233,1.021q1.987,1.684,3.942,3.439c.163.148.324.3.488.45q1.713,1.555,3.4,3.163c.437.416.868.843,1.3,1.265q1.262,1.228,2.51,2.482.719.726,1.434,1.466,1.131,1.166,2.248,2.356c.475.506.949,1.012,1.421,1.524.746.812,1.485,1.635,2.221,2.462.439.493.88.983,1.316,1.483.815.931,1.617,1.878,2.42,2.83.337.4.678.794,1.014,1.2q1.732,2.089,3.425,4.231c.179.229.353.462.532.69q1.611,2.06,3.177,4.165.688.921,1.367,1.853c.442.606.884,1.213,1.321,1.826q.761,1.068,1.511,2.147c.43.617.861,1.235,1.285,1.855.346.509.686,1.02,1.029,1.531q1.588,2.366,3.123,4.777c.2.32.411.635.612.955q1.75,2.783,3.419,5.617.6,1.006,1.177,2.02c.4.686.793,1.371,1.181,2.061.424.75.839,1.507,1.255,2.262.379.694.762,1.385,1.134,2.083.316.59.626,1.183.935,1.775q.9,1.713,1.773,3.44.48.95.952,1.9.675,1.37,1.328,2.748c.326.685.653,1.371.973,2.058.376.812.744,1.626,1.11,2.441.33.732.66,1.463.982,2.2s.647,1.5.967,2.256.647,1.526.962,2.292.628,1.553.937,2.33c.3.755.6,1.51.893,2.265.308.8.606,1.608.906,2.414.276.743.552,1.485.818,2.229.317.88.619,1.759.921,2.64.243.7.487,1.407.722,2.112.312.947.61,1.892.91,2.838.207.657.42,1.312.619,1.97.333,1.089.645,2.181.956,3.273.172.6.356,1.2.522,1.805l27.126,15.661q1.536.886,3.051,1.851l.2.119c.991.63,1.971,1.286,2.947,1.96.337.231.669.475,1,.712.654.464,1.305.93,1.952,1.413.4.3.791.6,1.186.9.585.45,1.167.9,1.746,1.368.425.34.849.689,1.272,1.038q.829.686,1.648,1.389.651.559,1.294,1.131c.537.475,1.069.958,1.6,1.445.428.4.856.79,1.281,1.192.538.51,1.071,1.029,1.6,1.551.393.388.789.773,1.181,1.168.55.555,1.095,1.122,1.638,1.689.36.376.722.749,1.078,1.131.628.673,1.249,1.359,1.865,2.049.251.28.506.554.754.835q1.3,1.48,2.573,3c.132.161.262.328.394.488q1.071,1.3,2.118,2.629,1.341,1.707,2.639,3.462l.033.046c1.223,1.66,2.405,3.36,3.564,5.077.272.4.549.807.818,1.213q.626.95,1.237,1.912c.365.572.731,1.141,1.089,1.716.4.647.794,1.3,1.187,1.954.321.537.645,1.074.962,1.615q1.4,2.393,2.711,4.832c.32.595.626,1.194.937,1.791.328.63.658,1.256.976,1.89.447.889.88,1.782,1.308,2.679.138.289.283.576.419.866q.817,1.736,1.583,3.487c.136.307.263.618.4.928q.561,1.3,1.095,2.608c.163.4.322.8.48,1.195q.5,1.258.975,2.523c.135.36.274.718.406,1.079q.607,1.661,1.173,3.327l.1.283q.605,1.808,1.151,3.618c.118.391.227.782.343,1.174.243.827.48,1.657.707,2.486.125.462.243.924.364,1.385.2.776.394,1.549.579,2.325.109.457.217.917.32,1.375.181.8.349,1.6.513,2.392.085.423.175.843.256,1.263q.3,1.567.556,3.128c.023.15.053.3.076.448.19,1.19.352,2.375.5,3.557.041.334.073.668.112,1q.145,1.272.257,2.536c.035.406.067.809.1,1.213q.089,1.2.145,2.391c.019.383.041.767.054,1.15.041,1.128.067,2.252.064,3.367l-.014,4.93c0,1.172-.035,2.318-.086,3.448-.015.32-.04.631-.059.948-.045.775-.1,1.546-.164,2.3-.039.437-.087.866-.134,1.3-.069.64-.144,1.276-.229,1.9-.063.461-.134.917-.2,1.37q-.137.863-.3,1.7-.141.761-.3,1.5c-.108.506-.224,1.006-.343,1.5q-.212.873-.448,1.72c-.122.442-.248.881-.379,1.313-.208.678-.432,1.34-.662,1.991-.126.355-.244.713-.376,1.06-.416,1.1-.862,2.163-1.344,3.186-.375.794-.764,1.57-1.178,2.319h0c-.2.365-.421.7-.631,1.056l4.3,2.481,52.015-30.23.93-410.642" transform="translate(-220.399 576.892)" fill="none" clip-rule="evenodd"/></clipPath><clipPath id="y"><path d="M429.944-77.644c.366.57.732,1.141,1.089,1.716.4.648.794,1.3,1.187,1.954.323.537.646,1.073.962,1.614q1.4,2.4,2.711,4.834c.319.594.627,1.192.938,1.791.328.628.658,1.255.976,1.887q.667,1.335,1.307,2.679c.139.29.283.577.419.867q.817,1.734,1.583,3.487c.135.308.265.618.4.928.374.866.741,1.736,1.1,2.608.163.4.322.8.48,1.195q.5,1.258.974,2.522c.135.361.274.719.406,1.079q.609,1.663,1.172,3.33l.1.281q.605,1.806,1.151,3.616c.119.392.229.784.343,1.174.243.83.482,1.657.705,2.487.126.461.245.924.365,1.385q.3,1.164.579,2.325.164.688.321,1.375c.18.8.348,1.6.511,2.393.086.42.176.841.256,1.263q.3,1.567.555,3.128c.026.148.054.3.078.447.159,1.007.293,2.011.421,3.013l.806-355.688c.038-14.034-9.839-31.131-22.051-38.183L203.334-546.875c-12.214-7.052-22.146-1.391-22.186,12.643L180.8-382.366c.2.2.394.384.59.582q.854.859,1.7,1.733,1.347,1.389,2.677,2.807.842.9,1.679,1.8,1.33,1.447,2.639,2.925c.518.581,1.038,1.158,1.551,1.745.97,1.109,1.926,2.235,2.879,3.367.394.468.8.929,1.187,1.4q2.066,2.488,4.082,5.043c.233.294.459.6.691.893q1.894,2.422,3.736,4.9.8,1.068,1.587,2.148.8,1.1,1.592,2.2.9,1.258,1.781,2.528.773,1.11,1.54,2.225c.427.627.845,1.258,1.268,1.887q1.946,2.9,3.825,5.858c.2.31.4.613.594.924q2.091,3.326,4.084,6.718.688,1.168,1.367,2.346c.46.8.92,1.594,1.372,2.4.507.9,1.006,1.806,1.5,2.712.441.8.883,1.606,1.316,2.413.391.727.771,1.458,1.154,2.189q1.045,1.991,2.057,3.994.57,1.127,1.131,2.261.8,1.617,1.567,3.241c.387.812.775,1.623,1.154,2.438q.667,1.44,1.313,2.885c.392.868.784,1.736,1.164,2.607.393.9.773,1.795,1.155,2.693s.766,1.8,1.137,2.707c.38.924.748,1.85,1.116,2.775.356.9.713,1.79,1.059,2.685.366.952.719,1.905,1.073,2.857.328.881.656,1.76.973,2.641.376,1.05.737,2.1,1.1,3.153.285.829.576,1.659.852,2.489.375,1.133.732,2.269,1.091,3.4.242.764.491,1.53.725,2.3.414,1.359.8,2.718,1.191,4.079.179.624.37,1.25.542,1.876.946.252,1.9.528,2.855.817q1.756.536,3.537,1.159c.322.113.649.238.974.355.856.31,1.713.631,2.576.97.419.166.84.338,1.26.509q1.172.48,2.352,1c.423.184.844.367,1.268.56.853.387,1.71.794,2.569,1.211.339.164.676.32,1.016.488q1.79.89,3.6,1.864,1.563.844,3.137,1.751c.746.432,1.488.889,2.23,1.337s1.462.883,2.189,1.341c.572.358,1.141.731,1.709,1.1.754.491,1.507.984,2.256,1.492.564.38,1.124.771,1.683,1.163q1.156.806,2.3,1.635.821.6,1.637,1.205,1.22.91,2.427,1.85c.515.4,1.03.8,1.543,1.206.922.735,1.84,1.489,2.753,2.248.411.34.825.674,1.233,1.023q1.987,1.682,3.942,3.437c.164.149.325.3.488.452q1.713,1.553,3.4,3.162c.437.416.869.844,1.3,1.265q1.262,1.228,2.51,2.482c.48.484.957.975,1.434,1.465q1.131,1.168,2.248,2.357c.475.506.951,1.011,1.421,1.525q1.12,1.218,2.221,2.462c.439.493.88.983,1.316,1.48.815.934,1.619,1.881,2.419,2.832.338.4.68.794,1.015,1.2q1.734,2.089,3.425,4.232c.179.227.353.46.532.689q1.611,2.058,3.178,4.165.686.923,1.366,1.853.663.908,1.321,1.826c.509.71,1.011,1.429,1.511,2.147.43.617.861,1.233,1.285,1.855.347.507.687,1.021,1.029,1.53q1.588,2.37,3.123,4.779c.2.319.411.633.612.953q1.752,2.783,3.419,5.616.6,1.008,1.177,2.021c.4.686.793,1.371,1.181,2.061.425.752.84,1.507,1.255,2.262.38.694.763,1.386,1.136,2.083.316.59.623,1.183.934,1.775q.9,1.713,1.773,3.439.48.952.951,1.907.676,1.37,1.33,2.747.491,1.029.973,2.058.565,1.218,1.111,2.44c.33.734.659,1.466.98,2.2.328.75.647,1.5.966,2.256s.649,1.528.962,2.293.63,1.553.939,2.332c.3.754.6,1.508.89,2.265.31.8.609,1.607.907,2.411.276.744.554,1.488.82,2.232.315.877.617,1.759.921,2.639.24.7.487,1.408.719,2.112.313.946.613,1.892.911,2.838.207.656.419,1.313.621,1.968.33,1.092.644,2.183.956,3.275.172.6.355,1.2.52,1.8l27.126,15.662q1.534.886,3.051,1.85l.2.122c.988.628,1.971,1.285,2.947,1.959.335.231.668.475,1,.713q.979.692,1.95,1.412c.4.3.791.6,1.186.9q.877.673,1.747,1.367.638.513,1.271,1.039.829.684,1.648,1.39.649.559,1.295,1.129.8.713,1.6,1.447.644.59,1.282,1.191.807.765,1.6,1.552c.394.385.789.772,1.181,1.167.551.555,1.095,1.122,1.638,1.689.36.376.722.749,1.078,1.131.629.672,1.249,1.361,1.865,2.049.251.28.5.552.754.835q1.3,1.48,2.572,3c.135.161.263.328.4.489q1.07,1.3,2.117,2.627,1.341,1.709,2.638,3.462l.035.046c1.224,1.659,2.406,3.36,3.565,5.076.272.4.549.807.817,1.214.419.633.829,1.272,1.237,1.912" transform="translate(-180.804 549.908)" fill="none" clip-rule="evenodd"/></clipPath><clipPath id="aa"><path d="M394.959-117.215l-.023.149c-.091.574-.189,1.143-.294,1.7-.094.507-.2,1.007-.3,1.5s-.222,1-.343,1.5q-.212.873-.448,1.72c-.123.443-.247.881-.38,1.313-.207.678-.43,1.339-.66,1.993-.125.353-.245.712-.375,1.057-.419,1.1-.862,2.165-1.344,3.187-.375.794-.766,1.571-1.179,2.319v0q-.63,1.139-1.321,2.2c-.093.145-.191.281-.285.423q-.524.79-1.077,1.538c-.149.2-.3.4-.455.6q-.526.678-1.078,1.319c-.143.164-.28.333-.424.493-.506.567-1.025,1.115-1.564,1.637l-.236.217q-.7.669-1.439,1.286c-.179.149-.36.294-.542.439-.42.338-.849.662-1.286.976-.181.128-.358.261-.541.385-.609.418-1.227.817-1.863,1.187l17.416-10.121.044-19.028" transform="translate(-377.5 117.215)" fill="none" clip-rule="evenodd"/></clipPath><clipPath id="ac"><path d="M399.357-378.851l-183.862-104.3c-2.518-1.454-4.567-.287-4.575,2.607a10.024,10.024,0,0,0,4.545,7.874l183.861,104.3c2.518,1.453,4.567.286,4.576-2.608a10.02,10.02,0,0,0-4.545-7.873" transform="translate(-210.92 483.78)" fill="none" clip-rule="evenodd"/></clipPath><clipPath id="ae"><path d="M399.357-328.822l-183.862-104.3c-2.518-1.453-4.567-.286-4.575,2.608a10.02,10.02,0,0,0,4.545,7.873l183.861,104.3c2.518,1.454,4.567.285,4.576-2.608a10.024,10.024,0,0,0-4.545-7.874" transform="translate(-210.92 433.75)" fill="none" clip-rule="evenodd"/></clipPath><clipPath id="ag"><path d="M399.357-278.791,215.495-383.1c-2.518-1.454-4.567-.285-4.575,2.608a10.02,10.02,0,0,0,4.545,7.873l183.861,104.3c2.518,1.454,4.567.286,4.576-2.607a10.022,10.022,0,0,0-4.545-7.874" transform="translate(-210.92 383.721)" fill="none" clip-rule="evenodd"/></clipPath><clipPath id="ai"><path d="M399.357-228.761l-183.862-104.3c-2.518-1.454-4.567-.286-4.575,2.607a10.022,10.022,0,0,0,4.545,7.874l183.861,104.3c2.518,1.454,4.567.286,4.576-2.608a10.022,10.022,0,0,0-4.545-7.873" transform="translate(-210.92 333.69)" fill="none" clip-rule="evenodd"/></clipPath><clipPath id="ak"><path d="M399.357-178.731l-183.862-104.3c-2.518-1.454-4.567-.286-4.575,2.607a10.024,10.024,0,0,0,4.545,7.874l183.861,104.3c2.518,1.453,4.567.286,4.576-2.608a10.02,10.02,0,0,0-4.545-7.873" transform="translate(-210.92 283.66)" fill="none" clip-rule="evenodd"/></clipPath><clipPath id="am"><path d="M79.371-403.852c-.427-.226-.852-.446-1.276-.663-.329-.166-.66-.348-.988-.51-.527-.261-1.047-.495-1.571-.74-.376-.179-.754-.361-1.128-.532-.154-.071-.311-.15-.464-.218q-1.571-.7-3.121-1.323l-.01-.005q-1.586-.634-3.149-1.185c-.136-.048-.269-.086-.4-.132-.378-.13-.75-.245-1.125-.369-.533-.175-1.069-.362-1.6-.522-.265-.08-.523-.14-.786-.217-.461-.134-.92-.257-1.379-.38-.353-.094-.712-.206-1.064-.293-.37-.092-.732-.159-1.1-.245-.459-.105-.917-.211-1.372-.3-.243-.05-.489-.116-.73-.162-.432-.085-.852-.137-1.28-.211-.528-.092-1.057-.186-1.581-.261-.185-.027-.374-.068-.558-.092-.437-.059-.862-.083-1.294-.131-.564-.063-1.128-.13-1.687-.173-.163-.013-.331-.039-.495-.05-.382-.027-.749-.019-1.127-.036-.665-.032-1.33-.062-1.986-.067-.184,0-.374-.019-.556-.018-.727,0-1.447.025-2.16.061l-.274.019c-.542.03-1.083.063-1.617.112-.339.031-.672.08-1.009.118-.253.031-.509.057-.762.091-.921.122-1.835.265-2.73.443l-.082.021c-.247.049-.483.118-.727.172-.744.166-1.484.339-2.21.543-.355.1-.7.221-1.05.33-.464.145-.935.275-1.39.435l-.338.139c-.7.257-1.386.547-2.067.841-.331.144-.671.272-1,.425-1,.466-1.973.969-2.921,1.52l-9.055,5.261c.948-.55,1.925-1.052,2.92-1.519.328-.153.668-.281,1-.425.681-.3,1.364-.585,2.066-.841.568-.208,1.147-.393,1.728-.576.349-.109.7-.229,1.051-.33.725-.2,1.465-.378,2.208-.542.244-.054.48-.122.727-.172.922-.188,1.862-.338,2.812-.465.252-.032.509-.059.762-.089.866-.1,1.74-.181,2.626-.233l.274-.018c.894-.045,1.8-.049,2.717-.042.655.005,1.319.035,1.985.066.54.026,1.077.045,1.623.089s1.122.109,1.686.172c.615.067,1.229.134,1.853.222.523.076,1.052.17,1.58.261.667.116,1.335.234,2.008.374.456.1.915.2,1.373.306q1.075.247,2.163.537c.459.122.917.247,1.379.38.79.229,1.585.478,2.384.74.374.123.748.236,1.124.367q3.521,1.216,7.148,2.862c.375.171.753.356,1.128.533.849.4,1.7.815,2.559,1.251q.636.324,1.276.662c1.136.6,2.274,1.211,3.421,1.874l9.055-5.262q-1.247-.719-2.485-1.39c-.313-.17-.623-.32-.937-.484" transform="translate(-18.156 412.692)" fill="none" clip-rule="evenodd"/></clipPath><clipPath id="ao"><path d="M487.52-43.78c-.006-.179-.018-.357-.024-.537-.014-.383-.036-.766-.054-1.15-.023-.451-.036-.9-.063-1.349-.023-.346-.058-.692-.083-1.038-.03-.4-.06-.811-.1-1.217-.023-.267-.039-.532-.064-.8-.055-.576-.127-1.155-.193-1.734-.037-.335-.071-.671-.112-1.007l-.037-.334q-.2-1.573-.45-3.154l-.012-.067c-.023-.152-.054-.3-.077-.453-.144-.883-.293-1.766-.46-2.652-.028-.158-.064-.316-.1-.474-.081-.42-.171-.84-.257-1.262-.1-.513-.2-1.025-.312-1.539-.062-.285-.135-.572-.2-.856-.1-.459-.211-.915-.319-1.372-.086-.353-.161-.707-.249-1.061-.1-.423-.224-.845-.333-1.269-.119-.461-.238-.921-.364-1.381-.062-.227-.116-.454-.177-.681-.167-.6-.352-1.2-.529-1.808-.113-.392-.222-.782-.342-1.174l-.1-.333q-.5-1.623-1.041-3.245l-.014-.039-.1-.279q-.488-1.441-1-2.882c-.054-.15-.114-.3-.17-.452-.132-.358-.27-.717-.4-1.077-.2-.514-.382-1.03-.582-1.544-.126-.328-.263-.653-.393-.979q-.237-.6-.48-1.2c-.12-.292-.231-.583-.352-.874-.242-.582-.5-1.16-.746-1.741-.131-.307-.26-.613-.393-.919l-.143-.331q-.671-1.52-1.38-3.029l-.063-.131c-.134-.285-.276-.567-.411-.85-.373-.78-.743-1.558-1.129-2.333-.06-.121-.126-.24-.186-.361-.317-.631-.646-1.255-.973-1.883-.263-.506-.518-1.019-.788-1.522l-.153-.272q-1.309-2.442-2.711-4.834c-.08-.134-.15-.275-.23-.409-.238-.406-.491-.8-.732-1.206-.393-.653-.784-1.3-1.186-1.951-.36-.577-.726-1.15-1.093-1.722-.407-.638-.816-1.274-1.235-1.905-.137-.209-.268-.424-.409-.633s-.277-.387-.411-.586c-1.16-1.716-2.339-3.416-3.563-5.075h0l-.024-.032q-1.3-1.763-2.648-3.476l-.117-.153c-.66-.84-1.335-1.665-2.011-2.486-.13-.157-.254-.32-.385-.475l-.023-.031q-1.2-1.44-2.427-2.838l-.125-.139c-.247-.281-.5-.552-.749-.829-.52-.583-1.038-1.169-1.567-1.738l-.3-.316c-.356-.382-.717-.753-1.077-1.128-.4-.415-.787-.838-1.187-1.246-.15-.152-.3-.3-.453-.446-.389-.393-.782-.779-1.177-1.165-.339-.331-.673-.676-1.015-1-.2-.186-.4-.364-.591-.55q-.638-.6-1.282-1.191c-.3-.274-.588-.558-.888-.827-.235-.211-.477-.411-.712-.619q-.644-.572-1.294-1.129c-.263-.226-.522-.464-.786-.686-.286-.243-.579-.47-.867-.708q-.632-.524-1.267-1.035c-.221-.177-.438-.364-.66-.538-.36-.284-.727-.552-1.089-.831-.393-.3-.788-.608-1.185-.9-.162-.121-.32-.249-.482-.367-.489-.361-.984-.7-1.476-1.05-.331-.235-.66-.477-.993-.707l-.261-.185q-1.326-.908-2.667-1.761l-.024-.015-.191-.117c-.811-.513-1.623-1.015-2.441-1.5-.206-.121-.411-.239-.618-.358l-27.117-15.657-.112-.4c-.128-.463-.272-.925-.4-1.388-.315-1.095-.627-2.189-.961-3.284-.039-.131-.073-.261-.113-.392-.162-.528-.342-1.055-.509-1.583-.3-.943-.595-1.887-.907-2.83-.062-.186-.117-.371-.179-.556-.175-.522-.366-1.042-.545-1.564-.3-.877-.6-1.756-.917-2.632-.084-.23-.158-.46-.242-.69-.186-.515-.389-1.029-.581-1.546-.3-.8-.6-1.607-.906-2.41-.1-.248-.184-.5-.28-.746-.2-.507-.41-1.014-.612-1.52-.31-.777-.619-1.553-.938-2.329-.105-.256-.2-.513-.308-.768-.213-.511-.439-1.018-.655-1.528-.319-.752-.637-1.5-.965-2.251-.111-.254-.215-.51-.326-.764-.215-.483-.441-.962-.658-1.444-.366-.811-.731-1.62-1.106-2.428-.125-.271-.244-.545-.371-.816-.2-.42-.406-.835-.606-1.255q-.653-1.37-1.326-2.738c-.158-.321-.307-.645-.466-.966s-.326-.627-.484-.942q-.871-1.727-1.773-3.441c-.2-.373-.382-.75-.578-1.123-.117-.218-.242-.436-.358-.655-.373-.7-.753-1.385-1.133-2.076-.415-.757-.831-1.513-1.255-2.265-.388-.69-.785-1.376-1.182-2.062-.286-.5-.565-1-.857-1.5-.1-.177-.216-.349-.321-.527q-1.671-2.831-3.416-5.613c-.2-.321-.411-.637-.614-.957q-1.532-2.411-3.123-4.777c-.177-.265-.344-.536-.52-.8-.167-.245-.34-.487-.509-.732-.423-.62-.852-1.235-1.28-1.85-.5-.721-1.007-1.441-1.519-2.156q-.651-.913-1.314-1.819c-.292-.4-.576-.8-.87-1.2-.164-.221-.335-.434-.5-.655q-1.571-2.11-3.184-4.173c-.141-.18-.276-.366-.418-.546l-.109-.134q-1.69-2.143-3.425-4.232l-.159-.2c-.281-.339-.573-.667-.857-1-.8-.951-1.606-1.9-2.419-2.83-.127-.144-.249-.294-.375-.439-.31-.351-.627-.69-.938-1.038q-1.106-1.243-2.224-2.464c-.2-.217-.393-.442-.594-.658-.272-.293-.551-.573-.824-.865q-1.122-1.193-2.255-2.363c-.27-.276-.532-.565-.8-.84-.207-.211-.42-.411-.628-.621-.831-.841-1.67-1.666-2.513-2.487-.312-.3-.618-.619-.931-.921-.121-.114-.245-.224-.366-.339q-1.7-1.617-3.417-3.178c-.14-.129-.277-.262-.419-.389l-.054-.047q-1.954-1.759-3.943-3.439l-.266-.231c-.32-.271-.646-.523-.967-.79-.913-.761-1.831-1.513-2.754-2.248-.188-.15-.371-.31-.559-.457-.324-.256-.654-.495-.979-.746-.807-.626-1.616-1.246-2.429-1.851-.269-.2-.532-.414-.8-.612s-.559-.392-.835-.594q-1.149-.832-2.3-1.635c-.334-.234-.663-.48-1-.71-.226-.156-.456-.3-.683-.452-.749-.507-1.5-1-2.257-1.492-.387-.251-.768-.516-1.156-.763-.182-.116-.369-.222-.552-.338-.726-.459-1.457-.9-2.187-1.34-.433-.261-.861-.537-1.3-.791-.311-.184-.624-.366-.937-.546q-1.528-.883-3.046-1.7l-.09-.048q-1.81-.977-3.6-1.864l-.211-.109c-.266-.13-.527-.244-.791-.373-.862-.417-1.722-.826-2.577-1.214-.161-.073-.325-.157-.487-.23-.259-.116-.515-.215-.775-.328q-1.175-.516-2.343-.994c-.238-.1-.479-.209-.717-.3-.185-.075-.366-.135-.55-.207q-1.266-.5-2.521-.949c-.257-.093-.516-.2-.772-.29l-.248-.081q-1.771-.619-3.521-1.152l-.1-.035q-1.4-.424-2.792-.793l-.094-.338c-.137-.5-.294-.994-.436-1.493-.391-1.371-.784-2.742-1.2-4.115-.041-.134-.077-.27-.118-.4-.193-.627-.406-1.255-.6-1.882-.36-1.141-.718-2.279-1.1-3.419-.067-.2-.126-.4-.193-.6-.211-.627-.439-1.251-.654-1.877-.364-1.056-.726-2.112-1.1-3.167-.09-.251-.172-.5-.262-.754-.229-.628-.475-1.254-.708-1.881-.355-.957-.709-1.91-1.077-2.864-.105-.275-.2-.552-.31-.826-.242-.622-.5-1.238-.748-1.86-.369-.924-.736-1.85-1.116-2.772-.117-.285-.226-.57-.344-.856-.257-.62-.533-1.237-.8-1.856-.382-.9-.762-1.8-1.154-2.691-.123-.285-.24-.57-.366-.854-.258-.586-.533-1.167-.8-1.75-.434-.966-.87-1.93-1.317-2.892-.14-.3-.274-.61-.416-.913-.238-.509-.492-1.012-.735-1.52q-.775-1.628-1.57-3.248c-.18-.364-.348-.732-.531-1.1-.193-.388-.4-.772-.6-1.161q-1.012-2.008-2.061-4c-.23-.439-.447-.884-.68-1.321-.154-.289-.316-.576-.471-.866-.434-.808-.877-1.612-1.319-2.418q-.744-1.357-1.5-2.707c-.452-.8-.912-1.6-1.372-2.4-.316-.549-.623-1.1-.943-1.648-.139-.236-.288-.464-.427-.7q-2-3.388-4.083-6.719c-.2-.308-.4-.612-.591-.919q-1.877-2.96-3.827-5.862c-.206-.307-.4-.623-.606-.93s-.442-.633-.659-.952q-.767-1.122-1.544-2.233-.883-1.266-1.777-2.522-.792-1.108-1.593-2.2c-.328-.448-.648-.9-.978-1.35-.2-.271-.41-.532-.61-.8q-1.844-2.474-3.736-4.9c-.182-.233-.357-.474-.54-.707l-.152-.186q-2.014-2.555-4.082-5.044l-.177-.22c-.334-.4-.678-.785-1.012-1.183-.953-1.13-1.908-2.256-2.875-3.363-.145-.167-.286-.34-.433-.506-.369-.42-.748-.822-1.118-1.238q-1.314-1.478-2.644-2.93c-.231-.251-.455-.51-.686-.759-.324-.351-.659-.686-.985-1.033q-1.334-1.422-2.684-2.814c-.315-.325-.622-.66-.938-.983-.249-.254-.506-.5-.757-.748q-1.478-1.494-2.978-2.945c-.369-.36-.73-.734-1.1-1.088-.148-.141-.3-.275-.447-.415q-1.983-1.894-4-3.719c-.182-.166-.36-.34-.543-.5l-.073-.064q-2.322-2.091-4.684-4.087l-.3-.265c-.373-.315-.754-.61-1.129-.923-1.095-.911-2.193-1.813-3.3-2.693-.218-.175-.433-.361-.653-.533-.384-.3-.776-.587-1.163-.888q-1.44-1.118-2.891-2.2c-.316-.235-.627-.486-.943-.718s-.664-.468-.994-.707q-1.364-.991-2.739-1.948c-.394-.275-.781-.565-1.176-.835-.27-.185-.542-.353-.812-.537-.894-.605-1.792-1.194-2.693-1.779-.454-.294-.9-.608-1.361-.9-.217-.138-.437-.263-.654-.4-.866-.545-1.737-1.072-2.608-1.6-.51-.307-1.015-.633-1.528-.934q-.555-.328-1.111-.649c-1.115-.644-2.225-1.262-3.331-1.863l-.285-.159c-.164-.09-.326-.167-.491-.256q-1.863-1-3.713-1.923c-.152-.075-.306-.162-.457-.236l-.2-.092q-2.02-.994-4.016-1.894c-.13-.058-.26-.125-.388-.182-.166-.073-.329-.136-.495-.209-1.337-.592-2.671-1.163-3.993-1.693l-.058-.026-.014-.005c-1.377-.551-2.743-1.059-4.1-1.544-.157-.057-.317-.122-.475-.177-.119-.044-.236-.076-.356-.117q-1.991-.694-3.957-1.295l-.242-.08c-.144-.042-.284-.074-.427-.117-1.386-.412-2.763-.8-4.13-1.14l-.139-.039-.04-.009c-1.439-.359-2.861-.668-4.276-.948-.137-.028-.277-.067-.414-.094s-.271-.048-.407-.072c-.37-.071-.737-.135-1.1-.2-.487-.086-.973-.17-1.457-.247-.373-.059-.743-.113-1.114-.167-.267-.039-.538-.083-.806-.121-.193-.026-.384-.044-.577-.067-.429-.055-.856-.105-1.282-.153s-.872-.1-1.307-.136-.845-.076-1.267-.108c-.235-.019-.471-.044-.707-.06-.182-.013-.362-.017-.545-.027-.478-.031-.953-.053-1.427-.073-.4-.017-.79-.032-1.185-.042-.473-.013-.943-.018-1.412-.021-.253,0-.511-.012-.763-.012-.122,0-.242.008-.365.009-.636.006-1.267.026-1.895.047-.274.01-.549.015-.82.028q-1.343.066-2.665.181l-.031,0-.139.015c-.946.087-1.88.2-2.808.328-.276.037-.552.078-.829.121q-1.189.177-2.359.4c-.145.028-.293.045-.438.074l-.131.031c-1.187.238-2.354.516-3.509.822-.2.054-.411.108-.614.164q-1.7.47-3.343,1.034l-.244.077c-.188.066-.369.14-.555.208q-.727.262-1.443.542-.453.177-.9.362c-.475.2-.946.4-1.414.609-.285.127-.57.253-.853.385-.5.233-1,.479-1.492.728-.236.119-.477.234-.712.356q-1.083.567-2.142,1.177l-9.055,5.262q1.056-.613,2.143-1.177c.235-.123.474-.236.71-.356.493-.249.989-.495,1.49-.73.284-.131.57-.258.856-.384.469-.209.938-.414,1.413-.609.3-.123.6-.245.9-.362q.717-.281,1.443-.542c.266-.1.531-.193.8-.284,1.1-.379,2.212-.722,3.343-1.037l.614-.163c1.154-.307,2.321-.585,3.509-.822.189-.037.38-.071.57-.105q1.17-.223,2.357-.4c.276-.041.551-.082.829-.12.928-.128,1.863-.24,2.808-.326l.17-.019c.881-.078,1.769-.136,2.665-.181.271-.013.547-.018.82-.028.628-.023,1.259-.041,1.9-.048.374,0,.75,0,1.127,0,.469,0,.939.008,1.413.019.392.01.788.027,1.183.044q.711.029,1.427.072.624.038,1.251.089t1.268.109c.433.04.868.086,1.305.135s.853.1,1.282.152c.459.058.92.122,1.382.189.371.054.741.108,1.114.168.483.076.97.159,1.456.245.369.064.736.128,1.106.2.274.051.547.111.821.166,1.415.281,2.838.591,4.276.949l.179.048c1.367.342,2.745.727,4.132,1.14.222.065.443.128.667.2,1.31.4,2.63.832,3.957,1.294l.832.3c1.361.486,2.727.993,4.1,1.544l.067.03c1.325.531,2.659,1.1,4,1.694.293.13.586.258.88.392q2,.9,4.017,1.892c.218.108.437.221.655.33q1.846.923,3.712,1.923c.259.14.518.274.779.415,1.106.6,2.216,1.22,3.33,1.863.884.51,1.76,1.053,2.64,1.584s1.74,1.05,2.605,1.594c.676.425,1.346.866,2.018,1.3.9.583,1.8,1.172,2.69,1.777.664.45,1.326.911,1.987,1.372q1.374.958,2.74,1.948.969.705,1.936,1.425,1.451,1.083,2.888,2.2c.608.471,1.215.942,1.82,1.422q1.657,1.322,3.3,2.693c.478.4.958.784,1.435,1.187q2.359,2,4.682,4.085c.211.189.418.388.627.579q2.01,1.823,3.989,3.709c.519.495,1.032,1,1.548,1.5q1.5,1.457,2.974,2.942.856.863,1.7,1.737,1.347,1.389,2.676,2.807c.561.6,1.122,1.194,1.678,1.8q1.33,1.447,2.639,2.925c.519.581,1.039,1.159,1.553,1.747.967,1.107,1.923,2.233,2.875,3.363.394.469.8.929,1.19,1.4q2.066,2.49,4.082,5.043c.233.3.459.6.691.9q1.892,2.42,3.736,4.9.8,1.073,1.588,2.153.8,1.1,1.59,2.2.9,1.258,1.782,2.53.775,1.11,1.542,2.228c.427.624.845,1.256,1.265,1.885q1.946,2.9,3.823,5.853c.2.312.4.618.6.929q2.089,3.324,4.08,6.714.694,1.175,1.375,2.359c.459.794.916,1.588,1.366,2.386.509.9,1.009,1.809,1.507,2.716.441.8.883,1.606,1.316,2.414.389.727.768,1.457,1.151,2.185q1.046,1.995,2.061,4,.568,1.125,1.128,2.255.8,1.621,1.571,3.252c.387.809.772,1.617,1.15,2.428q.669,1.443,1.317,2.894c.391.867.782,1.734,1.163,2.6.392.894.772,1.792,1.154,2.69s.767,1.808,1.14,2.713c.38.922.748,1.847,1.115,2.772.357.9.714,1.79,1.06,2.688.366.949.719,1.9,1.073,2.853.328.883.656,1.764.974,2.648.376,1.048.737,2.1,1.1,3.151.285.831.577,1.66.852,2.492.378,1.134.735,2.273,1.093,3.41.242.764.491,1.526.725,2.291.418,1.371.811,2.744,1.2,4.116.173.61.361,1.219.529,1.829q1.44.382,2.9.827,1.748.53,3.523,1.152c.338.118.678.248,1.018.371q1.256.453,2.523.949c.42.166.843.338,1.265.511q1.168.478,2.343.993c.42.185.84.367,1.263.559.854.389,1.714.8,2.576,1.214.334.162.665.315,1,.482q1.788.89,3.6,1.863,1.563.846,3.137,1.752c.748.432,1.488.889,2.23,1.337s1.462.881,2.188,1.34c.572.36,1.14.732,1.707,1.1.755.491,1.508.985,2.259,1.492.563.382,1.123.772,1.682,1.161q1.154.806,2.3,1.635.823.6,1.639,1.206,1.218.91,2.424,1.849c.515.4,1.032.8,1.544,1.206q1.384,1.1,2.751,2.246c.412.343.826.678,1.236,1.024q1.985,1.684,3.942,3.439c.159.143.315.293.473.437q1.723,1.561,3.417,3.177c.435.416.865.841,1.3,1.263q1.264,1.229,2.514,2.485c.479.483.955.973,1.43,1.463q1.133,1.168,2.251,2.359c.475.507.952,1.014,1.422,1.526.746.811,1.485,1.634,2.221,2.462.438.492.879.98,1.314,1.479.815.931,1.617,1.88,2.419,2.83.338.4.681.8,1.016,1.2q1.734,2.089,3.426,4.232c.177.224.349.455.525.68q1.613,2.064,3.184,4.174.688.921,1.366,1.851.663.91,1.321,1.826.765,1.071,1.516,2.153.642.919,1.278,1.846c.348.51.69,1.025,1.034,1.539q1.586,2.363,3.118,4.771c.2.321.414.637.615.958q1.75,2.779,3.416,5.613c.4.672.79,1.349,1.179,2.025s.791,1.367,1.178,2.056c.427.753.842,1.51,1.258,2.266.38.692.762,1.385,1.136,2.081.315.588.622,1.182.933,1.774q.9,1.713,1.772,3.439.482.954.953,1.909.676,1.368,1.328,2.744.491,1.029.973,2.061.565,1.216,1.113,2.44c.329.732.658,1.465.979,2.2.329.752.649,1.506.969,2.26s.646,1.525.961,2.289.628,1.552.938,2.328c.3.757.6,1.512.893,2.27.308.8.608,1.607.906,2.411.276.743.552,1.485.82,2.229.315.879.617,1.759.92,2.639.242.707.488,1.412.722,2.117.312.944.61,1.889.908,2.833.207.656.42,1.313.622,1.969.333,1.1.65,2.2.964,3.3.168.591.348,1.182.511,1.773l27.118,15.656c1.025.592,2.044,1.214,3.058,1.856l.191.117c.991.63,1.975,1.287,2.952,1.962.331.23.662.471.993.707.655.464,1.309.933,1.959,1.417.4.3.789.6,1.183.9.585.451,1.17.906,1.75,1.371q.636.511,1.267,1.035c.555.457,1.1.922,1.655,1.394q.648.559,1.291,1.125.806.717,1.6,1.45.642.592,1.278,1.191.809.767,1.607,1.553c.393.387.788.772,1.177,1.164.552.556,1.1,1.124,1.642,1.693.358.375.719.746,1.074,1.128.631.673,1.253,1.362,1.871,2.053.249.277.5.55.749.83q1.3,1.48,2.575,3.008c.128.154.253.315.382.47.719.874,1.432,1.752,2.133,2.645q1.332,1.7,2.62,3.439l.053.071c1.224,1.66,2.4,3.358,3.564,5.075.274.4.55.808.82,1.217.418.632.826,1.268,1.235,1.907.366.572.732,1.143,1.092,1.723.4.644.791,1.3,1.185,1.948.322.538.647,1.077.964,1.619q1.4,2.392,2.711,4.833c.32.595.628,1.193.939,1.792.326.628.656,1.255.974,1.886q.669,1.334,1.309,2.681c.139.288.283.576.419.866q.815,1.734,1.583,3.487c.135.308.265.619.4.928q.561,1.3,1.1,2.608.243.6.479,1.194.5,1.258.975,2.523c.135.361.274.722.406,1.082q.609,1.663,1.172,3.33l.1.28q.607,1.808,1.152,3.62c.118.387.226.773.34,1.161.244.833.484,1.666.709,2.5.125.46.243.919.362,1.379.2.775.394,1.552.581,2.327q.164.69.321,1.379.268,1.195.51,2.391c.087.421.176.843.257,1.263q.3,1.574.558,3.14c.023.146.051.292.076.437.188,1.19.351,2.375.5,3.557.041.337.075.671.112,1.007.1.847.184,1.692.257,2.535.036.4.067.809.1,1.213q.087,1.2.145,2.391c.018.383.04.767.054,1.149.04,1.129.067,2.253.063,3.37l-.014,4.919c0,1.173-.035,2.32-.086,3.452-.014.317-.04.626-.058.94-.046.777-.1,1.549-.164,2.307-.04.438-.089.867-.135,1.3-.069.641-.143,1.276-.229,1.9-.063.462-.132.916-.2,1.37q-.137.863-.294,1.706-.143.757-.3,1.5c-.109.506-.222,1.007-.343,1.5-.141.582-.292,1.154-.448,1.719-.123.442-.247.881-.38,1.313-.207.68-.43,1.341-.66,2-.126.352-.245.709-.375,1.055-.418,1.1-.862,2.166-1.344,3.187-.373.79-.761,1.56-1.17,2.3l-.008.014c-.42.762-.862,1.5-1.322,2.208-.091.143-.189.279-.283.419-.349.527-.708,1.042-1.078,1.54-.149.2-.3.4-.455.6q-.526.678-1.078,1.319c-.143.163-.279.331-.424.492q-.759.852-1.562,1.638l-.235.216q-.7.667-1.44,1.286c-.179.15-.361.294-.542.441q-.632.5-1.286.974c-.181.13-.358.262-.542.388-.608.416-1.226.817-1.862,1.186l9.055-5.262c.636-.369,1.253-.768,1.862-1.186.184-.125.361-.258.542-.387q.655-.47,1.286-.975c.181-.146.364-.29.543-.441q.736-.617,1.439-1.286l.234-.216c.537-.522,1.057-1.07,1.564-1.637.145-.161.281-.329.423-.492q.551-.644,1.079-1.322c.153-.2.306-.393.455-.594q.555-.75,1.078-1.542c.094-.14.191-.275.283-.419l.086-.123q.644-1.012,1.236-2.085l.006-.013q.588-1.068,1.124-2.2l.048-.109c.482-1.023.926-2.089,1.344-3.187l.114-.274c.1-.252.17-.525.259-.781.231-.654.455-1.316.662-2,.055-.179.123-.346.176-.528.074-.254.132-.527.2-.784.157-.567.307-1.14.45-1.723.057-.236.126-.46.181-.7.059-.26.1-.533.161-.8q.158-.744.3-1.5c.049-.26.109-.507.154-.771.054-.3.091-.624.14-.934.072-.454.141-.907.2-1.37.032-.234.075-.459.1-.7.049-.393.082-.8.125-1.2.046-.43.1-.859.135-1.3.015-.176.04-.343.054-.52.048-.586.076-1.19.109-1.787.019-.315.045-.623.059-.942l.014-.234q.064-1.493.072-3.036v-.181l.014-4.919c0-.939-.011-1.885-.039-2.833" transform="translate(-87.124 459.614)" fill="none" clip-rule="evenodd"/></clipPath><clipPath id="aq"><path d="M192.878-439.915c48.568,28.04,89.908,86.942,106.082,145.581A103.915,103.915,0,0,1,324.1-283.659c40.947,23.64,75.806,73.335,89.412,122.776l27.118,15.656c34.672,20.019,62.683,68.534,62.569,108.376l-.015,4.919c-.113,39.842-28.305,55.909-62.979,35.89L62.942-213.857C28.279-233.872.268-282.387.381-322.228l.014-4.92c.005-2.045.1-4.01.247-5.917-.134-2.287-.217-4.553-.211-6.8.14-49.567,35.222-69.569,78.367-44.658,4.793-65.017,54.087-90.03,114.08-55.393" transform="translate(-0.38 455.518)" fill="none" clip-rule="evenodd"/></clipPath><clipPath id="as"><path d="M562.187-240.984a2.071,2.071,0,0,1-.576.03H561.6a2.788,2.788,0,0,1-.632-.137l-.01,0a3.789,3.789,0,0,1-.689-.317l-14.327-8.271-.114-.064-.146-.076-.143-.068-.141-.059-.139-.051-.022-.008-.008,0-.108-.036-.141-.039-.14-.031-.146-.024-.1-.01h-.017l-.037,0-.154,0-.177.008-.191.028-.005,0-.008,0-.208.056-.281.128L516.4-234.176a1.7,1.7,0,0,1,.488-.188l.009,0a1.945,1.945,0,0,1,.565-.028h.015a2.7,2.7,0,0,1,.633.139h.006a4.07,4.07,0,0,1,.705.328l14.329,8.272.109.06.139.072.137.066.137.058.138.051.028.009.01,0,.1.032.14.039.14.032.15.023.1.012h.013l.037,0,.161.005.176-.009.2-.028h.005l.009,0,.225-.062.277-.128,27.121-15.76a1.7,1.7,0,0,1-.5.19l-.009,0" transform="translate(-516.396 250.163)" fill="none" clip-rule="evenodd"/></clipPath><clipPath id="au"><path d="M644.862-168.55l0-.159-.006-.163-.013-.164-.019-.164-.024-.175-.008-.049,0-.01-.021-.117-.036-.18-.042-.184-.049-.186-.054-.182-.059-.184-.037-.105,0-.013-.021-.06-.064-.171-.069-.17-.072-.171-.078-.17-.081-.17-.118-.229v-.005c-.066-.121-.134-.239-.2-.356l-.217-.34-.191-.27-.072-.1-.015-.021-.065-.086-.128-.159-.131-.154-.134-.146-.135-.141-.141-.14-.1-.1-.009-.009-.037-.033-.152-.131-.15-.123-.153-.118-.152-.108-.15-.1-.154-.094-.035-.021-14.327-8.271a5.349,5.349,0,0,1-.681-.473l-.017-.014a6.659,6.659,0,0,1-.627-.585l-.01-.013a7.728,7.728,0,0,1-.576-.691h0a8.492,8.492,0,0,1-.495-.757l-.022-.04a8.045,8.045,0,0,1-.4-.794l-.005-.01a7.775,7.775,0,0,1-.311-.839l0-.01a6.359,6.359,0,0,1-.2-.845v0a5.107,5.107,0,0,1-.068-.83l.222-78.434c0-.122,0-.243-.005-.366s-.009-.262-.018-.394-.019-.263-.032-.4-.026-.265-.044-.4-.036-.272-.058-.409l0-.013v-.005c-.019-.13-.042-.262-.067-.394s-.055-.281-.087-.424-.064-.283-.1-.427-.073-.287-.113-.432l-.1-.33-.009-.028-.021-.071c-.042-.14-.087-.279-.135-.42s-.094-.276-.144-.414-.1-.266-.15-.4-.1-.263-.158-.393l-.127-.3-.009-.022-.03-.069c-.058-.131-.118-.262-.18-.393s-.136-.284-.206-.427c-.082-.163-.166-.325-.252-.487s-.19-.342-.288-.513l-.05-.09-.063-.112c-.193-.328-.4-.65-.605-.965-.163-.244-.331-.482-.5-.717l-.006-.009,0-.005c-.118-.161-.238-.317-.358-.473-.1-.128-.208-.258-.314-.384s-.208-.247-.313-.367-.209-.234-.315-.349l-.06-.062-.024-.027-.248-.26-.34-.337c-.118-.113-.236-.224-.357-.331s-.239-.213-.361-.315l-.181-.148-.04-.033-.139-.114c-.118-.093-.238-.182-.357-.272s-.234-.168-.352-.249l-.344-.227-.343-.211-.08-.046L567.017-309.3l-.259-.145-.331-.171-.215-.1-.049-.023-.064-.03-.325-.139-.328-.123-.055-.017-.05-.017-.22-.072-.335-.092-.161-.036-.067-.015-.105-.023q-.177-.035-.355-.058l-.215-.022-.075-.008-.071-.008c-.13-.009-.257-.012-.382-.012l-.164.006-.127.006-.13.006a3.9,3.9,0,0,0-.466.068l-.009,0-.105.028a4.406,4.406,0,0,0-.455.125l-.033.017a3.816,3.816,0,0,0-.624.288L534.124-294.1a3.951,3.951,0,0,1,.622-.288,4.13,4.13,0,0,1,.49-.141l.1-.03a4.655,4.655,0,0,1,.606-.074l.129-.006a5.2,5.2,0,0,1,.615.012l.075.009a5.56,5.56,0,0,1,.673.1l.069.014c.233.053.471.119.714.2l.05.015c.253.089.51.191.771.311l.049.022c.265.123.533.261.806.418l48.83,28.193a12.407,12.407,0,0,1,1.615,1.119l.04.033a15.665,15.665,0,0,1,1.486,1.389l.027.028a18.248,18.248,0,0,1,1.362,1.641l.006.009a19.42,19.42,0,0,1,1.172,1.792l.051.092a19.31,19.31,0,0,1,.953,1.885l.01.027a17.993,17.993,0,0,1,.735,1.991l.009.028a15.475,15.475,0,0,1,.462,2.007v.008a12.251,12.251,0,0,1,.159,1.975l-.222,78.433,0,.154.008.164.014.166.017.167.026.172v.01l.028.162.036.179.042.179.047.182.041.143,0,.01.008.027.057.177.06.175.064.167.066.166.054.127.005.012.012.026.076.164.086.181.107.206.122.217.021.037.027.046c.08.137.164.272.253.4l.217.31.153.2.132.163.131.154.134.148.024.024.012.013.1.108.144.143.152.14.152.132.076.063.017.013.059.049.15.114.148.105.145.1.144.09.033.018,14.329,8.274a5.564,5.564,0,0,1,.981.726l.009.009a7.014,7.014,0,0,1,.839.925l.014.018a8.252,8.252,0,0,1,.685,1.066h0a7.862,7.862,0,0,1,.506,1.142l.005.013a6.869,6.869,0,0,1,.3,1.137l0,.01a4.919,4.919,0,0,1,.068,1.074v.009a2.546,2.546,0,0,1-.653,1.691l-50.5,51.032a1.668,1.668,0,0,1-.347.27l27.119-15.76a1.661,1.661,0,0,0,.347-.27l50.5-51.033.254-.317.132-.24.08-.188.063-.189.042-.163.033-.167.024-.158.017-.159.005-.108v-.01l0-.041,0-.157" transform="translate(-534.124 310.411)" fill="none" clip-rule="evenodd"/></clipPath><clipPath id="aw"><path d="M594-268.839c4.481,2.586,8.105,8.863,8.09,14.024l-.222,78.432a7.516,7.516,0,0,0,3.408,5.9l14.329,8.274c2.79,1.611,4.392,6.165,2.753,7.821l-50.5,51.032a2.218,2.218,0,0,1-2.78.024,7.252,7.252,0,0,1-2.772-3.23L516.255-215.643c-1.624-3.538,0-6.233,2.788-4.621l14.329,8.272c1.886,1.088,3.425.213,3.43-1.955l.222-78.434c.015-5.159,3.663-7.238,8.144-4.652L594-268.839" transform="translate(-515.609 298.144)" fill="none" clip-rule="evenodd"/></clipPath><clipPath id="ay"><path d="M199.2-559.784l-.006-.123v-.037l-.013-.161-.018-.164-.024-.167-.03-.17-.008-.042,0-.015-.024-.116-.041-.175-.046-.18-.053-.18-.042-.131,0-.014-.072-.207-.066-.175-.068-.171-.075-.172-.049-.109L148.5-671.372l-.026-.057-.086-.177-.1-.2-.17-.3-.158-.25-.057-.091-.068-.108-.2-.276-.143-.188-.13-.161-.107-.125-.006-.006-.017-.019-.132-.146-.137-.147-.146-.144-.152-.14-.154-.135-.154-.125-.152-.117-.149-.105-.146-.1-.144-.087-.033-.019-.108-.06-.14-.073-.14-.065-.139-.059-.128-.049h0l-.008,0-.139-.045-.141-.039-.143-.033-.148-.023-.049-.005-.018,0-.086-.008-.161-.006-.172.009-.161.023h-.014l-.018,0-.235.063-.279.13-27.118,15.76a1.657,1.657,0,0,1,.532-.2l.013,0a2.073,2.073,0,0,1,.579-.015l.018,0a2.761,2.761,0,0,1,.627.148h0a3.859,3.859,0,0,1,.657.306,6.127,6.127,0,0,1,1.517,1.281l.005.008a7.827,7.827,0,0,1,.644.858l.058.09a8.374,8.374,0,0,1,.542.989l44.536,97.047-14.029,8.153a1.741,1.741,0,0,0-.524.511l-.067.066-.128.234-.005.013-.005.012-.072.171-.06.18-.045.176-.017.077,0,.019-.014.071-.024.164-.017.164-.01.162,0,.166v.01l-.222,78.433c0,.31-.017.605-.042.893l-.008.076q-.04.393-.112.758l-.019.1a6.575,6.575,0,0,1-.175.676l-.04.119a5.848,5.848,0,0,1-.226.581l-.027.06a4.742,4.742,0,0,1-.322.587,4.415,4.415,0,0,1-.563.7l-.152.146a3.92,3.92,0,0,1-.685.522l27.119-15.761a3.863,3.863,0,0,0,.685-.522l.152-.147a4.432,4.432,0,0,0,.563-.7l.009-.01a5,5,0,0,0,.306-.555l.009-.021.024-.059c.057-.125.113-.249.162-.383l.067-.2.039-.118.037-.109c.039-.134.075-.272.108-.415l.031-.152.019-.1.03-.149c.022-.126.041-.256.058-.388l.023-.221.008-.077.009-.093c.01-.126.019-.253.024-.383s.008-.26.009-.393v-.023l.171-60.117,20.227-11.755a1.6,1.6,0,0,0,.353-.281l.1-.117.15-.186.055-.1.033-.059.044-.077.086-.206.064-.193v-.006l.042-.166.035-.172.024-.164.009-.085,0-.018.005-.058.01-.163,0-.157v-.159" transform="translate(-116.188 675.071)" fill="none" clip-rule="evenodd"/></clipPath><clipPath id="ba"><path d="M130.033-662.331a7.224,7.224,0,0,1,2.766,3.226l50.057,109.078c1.625,3.539-.006,6.24-2.8,4.629l-14.317-8.267c-1.9-1.095-3.425-.213-3.432,1.955l-.222,78.432c-.014,5.161-3.673,7.233-8.153,4.647l-48.82-28.187c-4.491-2.591-8.116-8.87-8.1-14.031l.222-78.432a7.517,7.517,0,0,0-3.407-5.9L79.5-603.456c-2.79-1.612-4.392-6.177-2.753-7.833L127.258-662.3a2.207,2.207,0,0,1,2.775-.027" transform="translate(-76.086 662.803)" fill="none" clip-rule="evenodd"/></clipPath></defs><g transform="translate(-0.38 675.071)"><g transform="translate(32.446 -190.252)" clip-path="url(#a)"><g transform="translate(-366.583 -710.826)" clip-path="url(#b)"><path d="M20.34-302.7H692.729V91.686H20.34Z" transform="translate(339.82 1025.101)" fill="rgba(103,103,103,0.69)"/></g></g><g transform="translate(249.585 -469.612)" clip-path="url(#c)"><g transform="translate(-583.721 -449.465)" clip-path="url(#d)"><path d="M189.355-520.147h77.483v28.825H189.355Z" transform="translate(387.943 963.189)" fill="#6f7abe"/></g></g><g transform="translate(338.189 -529.893)" clip-path="url(#e)"><g transform="translate(-672.326 -389.184)" clip-path="url(#d)"><path d="M258.323-567.068H671.606V-85.107H258.323Z" transform="translate(407.58 949.829)" fill="#353a67"/></g></g><g transform="translate(23.216 -524.631)" clip-path="url(#g)"><g transform="translate(-357.353 -394.447)" clip-path="url(#d)"><path d="M13.155-562.972h719.2V45.276H13.155Z" transform="translate(337.774 950.995)" fill="#353a67"/></g></g><g transform="translate(0.38 -393.082)" clip-path="url(#i)"><g transform="translate(-334.517 -525.996)" clip-path="url(#d)"><path d="M-4.62-460.577H511.051V20.358H-4.62Z" transform="translate(332.713 980.15)" fill="#f6efe9"/></g></g><g transform="translate(341.841 -569.548)" clip-path="url(#k)"><g transform="translate(-675.978 -349.53)" clip-path="url(#d)"><path d="M261.165-597.934H545.673V19.517H261.165Z" transform="translate(408.389 941.04)" fill="#f6efe9"/></g></g><g transform="translate(381.18 -484.592)" clip-path="url(#m)"><g transform="translate(-715.317 -434.486)" clip-path="url(#d)"><path d="M291.786-531.806h205.83v128.883H291.786Z" transform="translate(417.108 959.869)" fill="#f3c7b7"/></g></g><g transform="translate(381.18 -420.316)" clip-path="url(#o)"><g transform="translate(-715.317 -498.761)" clip-path="url(#d)"><path d="M291.786-481.776h205.83v128.882H291.786Z" transform="translate(417.108 974.114)" fill="#f3c7b7"/></g></g><g transform="translate(381.18 -356.041)" clip-path="url(#q)"><g transform="translate(-715.317 -563.036)" clip-path="url(#d)"><path d="M291.786-431.746h205.83v128.882H291.786Z" transform="translate(417.108 988.359)" fill="#f3c7b7"/></g></g><g transform="translate(381.18 -291.767)" clip-path="url(#s)"><g transform="translate(-715.317 -627.31)" clip-path="url(#d)"><path d="M291.786-381.716h205.83v128.883H291.786Z" transform="translate(417.108 1002.603)" fill="#f3c7b7"/></g></g><g transform="translate(381.18 -227.492)" clip-path="url(#u)"><g transform="translate(-715.317 -691.585)" clip-path="url(#d)"><path d="M291.786-331.686h205.83V-202.8H291.786Z" transform="translate(417.108 1016.848)" fill="#f3c7b7"/></g></g><g transform="translate(283.044 -548.938)" clip-path="url(#w)"><g transform="translate(-617.181 -370.14)" clip-path="url(#d)"><path d="M215.4-581.892h284.12V43.784H215.4Z" transform="translate(395.358 945.608)" fill="#353a67"/></g></g><g transform="translate(232.175 -514.271)" clip-path="url(#y)"><g transform="translate(-566.312 -404.806)" clip-path="url(#d)"><path d="M175.8-554.908H459.68V-14.417H175.8Z" transform="translate(384.085 953.291)" fill="#5f71a0"/></g></g><g transform="translate(484.876 41.621)" clip-path="url(#aa)"><g transform="translate(-819.013 -960.699)" clip-path="url(#d)"><path d="M372.5-122.215h30.307v42H372.5Z" transform="translate(440.089 1076.49)" fill="#6f7abe"/></g></g><g transform="translate(270.866 -429.314)" clip-path="url(#ac)"><g transform="translate(-605.003 -489.763)" clip-path="url(#d)"><path d="M205.92-488.78H411.75V-359.9H205.92Z" transform="translate(392.659 972.119)" fill="#f6efe9"/></g></g><g transform="translate(270.866 -365.04)" clip-path="url(#ae)"><g transform="translate(-605.003 -554.037)" clip-path="url(#d)"><path d="M205.92-438.75H411.75v128.883H205.92Z" transform="translate(392.659 986.364)" fill="#f6efe9"/></g></g><g transform="translate(270.866 -300.766)" clip-path="url(#ag)"><g transform="translate(-605.003 -618.312)" clip-path="url(#d)"><path d="M205.92-388.721H411.75v128.883H205.92Z" transform="translate(392.659 1000.609)" fill="#f6efe9"/></g></g><g transform="translate(270.866 -236.49)" clip-path="url(#ai)"><g transform="translate(-605.003 -682.588)" clip-path="url(#d)"><path d="M205.92-338.69H411.75v128.882H205.92Z" transform="translate(392.659 1014.854)" fill="#f6efe9"/></g></g><g transform="translate(270.866 -172.215)" clip-path="url(#ak)"><g transform="translate(-605.003 -746.862)" clip-path="url(#d)"><path d="M205.92-288.66H411.75v128.882H205.92Z" transform="translate(392.659 1029.099)" fill="#f6efe9"/></g></g><g transform="translate(23.217 -337.986)" clip-path="url(#am)"><g transform="translate(-357.354 -581.091)" clip-path="url(#d)"><path d="M13.156-417.692H90.639v28.824H13.156Z" transform="translate(337.775 992.36)" fill="#353a67"/></g></g><g transform="translate(111.822 -398.268)" clip-path="url(#ao)"><g transform="translate(-445.959 -520.81)" clip-path="url(#d)"><path d="M82.124-464.614H495.406V17.347H82.124Z" transform="translate(357.411 979)" fill="#353a67"/></g></g><g transform="translate(0.38 -393.006)" clip-path="url(#aq)"><g transform="translate(-334.517 -526.072)" clip-path="url(#d)"><path d="M-4.62-460.518H511.05V20.417H-4.62Z" transform="translate(332.713 980.166)" fill="#f6efe9"/></g></g><g transform="translate(663.319 -129.181)" clip-path="url(#as)"><g transform="translate(-997.456 -789.897)" clip-path="url(#d)"><path d="M511.4-255.163h59.151v37.825H511.4Z" transform="translate(479.636 1038.636)" fill="#5f71a0"/></g></g><g transform="translate(686.094 -206.583)" clip-path="url(#au)"><g transform="translate(-1020.232 -712.495)" clip-path="url(#d)"><path d="M529.124-315.411H652.709V-91.743H529.124Z" transform="translate(484.684 1021.482)" fill="#5f71a0"/></g></g><g transform="translate(662.307 -190.824)" clip-path="url(#aw)"><g transform="translate(-996.444 -728.254)" clip-path="url(#d)"><path d="M510.609-303.144H630.863V-95.008H510.609Z" transform="translate(479.412 1024.975)" fill="#f6efe9"/></g></g><g transform="translate(149.161 -675.071)" clip-path="url(#ay)"><g transform="translate(-483.298 -244.007)" clip-path="url(#d)"><path d="M111.188-680.071h95.861v223.344H111.188Z" transform="translate(365.687 917.654)" fill="#f6efe9"/></g></g><g transform="translate(97.642 -659.311)" clip-path="url(#ba)"><g transform="translate(-431.779 -259.767)" clip-path="url(#d)"><path d="M71.086-667.8H191.348V-459.67H71.086Z" transform="translate(354.269 921.147)" fill="#5f71a0"/></g></g></g></svg>