<svg xmlns="http://www.w3.org/2000/svg" xmlns:xlink="http://www.w3.org/1999/xlink" width="403" height="156" viewBox="0 0 403 156"><defs><clipPath id="b"><rect width="403" height="156"/></clipPath></defs><g id="a" clip-path="url(#b)"><g transform="translate(9.128 74.52)"><path d="M2.128-19.912a21.669,21.669,0,0,1,1.444-7.9,19.247,19.247,0,0,1,4.18-6.536,20.346,20.346,0,0,1,6.612-4.484,21.86,21.86,0,0,1,8.74-1.672A20.946,20.946,0,0,1,34.238-37.7a17.96,17.96,0,0,1,6.878,7.372l-9.956,3.04a8.944,8.944,0,0,0-3.42-3.382,9.565,9.565,0,0,0-4.712-1.178,9.7,9.7,0,0,0-4.1.874,10.088,10.088,0,0,0-3.306,2.432,11.265,11.265,0,0,0-2.2,3.762,14.2,14.2,0,0,0-.8,4.864,13.614,13.614,0,0,0,.836,4.864,12.26,12.26,0,0,0,2.242,3.8A9.851,9.851,0,0,0,19-8.778a9.525,9.525,0,0,0,4.028.874,9.766,9.766,0,0,0,5.054-1.368,7.693,7.693,0,0,0,3.23-3.344l9.956,3.04A16.737,16.737,0,0,1,34.5-2.128,21.258,21.258,0,0,1,23.18.76,21.86,21.86,0,0,1,14.44-.912,20.051,20.051,0,0,1,7.828-5.434,20.064,20.064,0,0,1,3.61-12.046,21.27,21.27,0,0,1,2.128-19.912ZM46.664-55.48H56.848v42.712a5.027,5.027,0,0,0,1.064,3.42,3.823,3.823,0,0,0,3.04,1.216,7.629,7.629,0,0,0,2.014-.3,13.622,13.622,0,0,0,2.09-.76l1.368,7.752A19.7,19.7,0,0,1,61.636.076,26.121,26.121,0,0,1,56.7.608q-4.788,0-7.41-2.546T46.664-9.2ZM88.464.76a21.86,21.86,0,0,1-8.74-1.672A19.63,19.63,0,0,1,73.15-5.434a19.961,19.961,0,0,1-4.142-6.574,21.462,21.462,0,0,1-1.444-7.828,21.669,21.669,0,0,1,1.444-7.9,19.961,19.961,0,0,1,4.142-6.574,19.63,19.63,0,0,1,6.574-4.522,21.86,21.86,0,0,1,8.74-1.672,21.586,21.586,0,0,1,8.7,1.672,19.725,19.725,0,0,1,6.536,4.522,19.961,19.961,0,0,1,4.142,6.574,21.669,21.669,0,0,1,1.444,7.9,21.462,21.462,0,0,1-1.444,7.828,20.282,20.282,0,0,1-4.1,6.574A19.219,19.219,0,0,1,97.2-.912,21.86,21.86,0,0,1,88.464.76Zm-10.412-20.6a13.875,13.875,0,0,0,.8,4.826,11.792,11.792,0,0,0,2.2,3.762,9.851,9.851,0,0,0,3.306,2.47,9.7,9.7,0,0,0,4.1.874,9.7,9.7,0,0,0,4.1-.874,9.851,9.851,0,0,0,3.306-2.47,11.708,11.708,0,0,0,2.2-3.8,14.2,14.2,0,0,0,.8-4.864,13.964,13.964,0,0,0-.8-4.788,11.708,11.708,0,0,0-2.2-3.8,9.851,9.851,0,0,0-3.306-2.47,9.7,9.7,0,0,0-4.1-.874,9.36,9.36,0,0,0-4.1.912,10.313,10.313,0,0,0-3.306,2.508,11.708,11.708,0,0,0-2.2,3.8A13.964,13.964,0,0,0,78.052-19.836ZM127.528.76q-6.156,0-9.348-3.952t-3.192-11.7V-39.824h10.184V-17.1q0,9.2,6.612,9.2a10.461,10.461,0,0,0,5.738-1.786,12.833,12.833,0,0,0,4.522-5.434v-24.7h10.184V-11.7a3.579,3.579,0,0,0,.57,2.28,2.5,2.5,0,0,0,1.862.76V0a21.511,21.511,0,0,1-2.546.38q-1.026.076-1.862.076A7.335,7.335,0,0,1,145.806-.8a4.94,4.94,0,0,1-2.014-3.458l-.228-3.192a16.971,16.971,0,0,1-6.84,6.156A20.582,20.582,0,0,1,127.528.76Zm50.54,0a18.081,18.081,0,0,1-7.6-1.6,17.921,17.921,0,0,1-6-4.408,20.6,20.6,0,0,1-3.914-6.574,22.934,22.934,0,0,1-1.406-8.094,23.783,23.783,0,0,1,1.33-8.056A21.144,21.144,0,0,1,164.16-34.5a16.99,16.99,0,0,1,5.624-4.408,16.059,16.059,0,0,1,7.144-1.6,15.1,15.1,0,0,1,7.942,2.128,15.415,15.415,0,0,1,5.51,5.548V-55.48h10.184V-11.7a3.773,3.773,0,0,0,.532,2.28,2.365,2.365,0,0,0,1.824.76V0a23.085,23.085,0,0,1-4.332.532A7.06,7.06,0,0,1,194.1-.836a5.02,5.02,0,0,1-1.976-3.572L191.9-6.916a14.446,14.446,0,0,1-5.966,5.738A16.956,16.956,0,0,1,178.068.76Zm2.66-8.664a9.562,9.562,0,0,0,2.964-.494A10.445,10.445,0,0,0,186.5-9.8a12.31,12.31,0,0,0,2.318-2.128,8.842,8.842,0,0,0,1.558-2.66v-9.5a11.12,11.12,0,0,0-1.71-3.078,12.657,12.657,0,0,0-2.508-2.432,13.087,13.087,0,0,0-2.964-1.634,8.423,8.423,0,0,0-3.078-.608,9.152,9.152,0,0,0-4.218.988,10.014,10.014,0,0,0-3.306,2.7,12.979,12.979,0,0,0-2.128,3.914,13.891,13.891,0,0,0-.76,4.56,12.569,12.569,0,0,0,.836,4.636,12.068,12.068,0,0,0,2.28,3.724,10.381,10.381,0,0,0,3.458,2.508A10.653,10.653,0,0,0,180.728-7.9ZM210.672,7.752a19.648,19.648,0,0,0,2.508.57,13.667,13.667,0,0,0,2.052.19,4.356,4.356,0,0,0,1.824-.38,3.906,3.906,0,0,0,1.52-1.33,12.984,12.984,0,0,0,1.368-2.622q.684-1.672,1.444-4.18L205.656-39.824h10.488L226.936-8.816l9.576-31.008h9.576L229.368,7.9a14.259,14.259,0,0,1-4.94,6.84,13.892,13.892,0,0,1-8.664,2.66,16.473,16.473,0,0,1-2.47-.19,15.8,15.8,0,0,1-2.622-.646Z" transform="translate(-2.128 55.48)" fill="#868686"/><path d="M49.78-13.832a12.264,12.264,0,0,1-1.444,6.08,12.558,12.558,0,0,1-3.952,4.294A18.677,18.677,0,0,1,38.532-.874,27.85,27.85,0,0,1,31.464,0H5.168V-53.96h30.02a10.648,10.648,0,0,1,5.092,1.216,12.713,12.713,0,0,1,3.876,3.154,14.454,14.454,0,0,1,2.47,4.408,15.046,15.046,0,0,1,.874,5.054,14.566,14.566,0,0,1-1.938,7.3,12.237,12.237,0,0,1-5.814,5.168A13.961,13.961,0,0,1,47.082-22.8,14.256,14.256,0,0,1,49.78-13.832ZM37.088-16.34A6.463,6.463,0,0,0,35.644-20.6,4.533,4.533,0,0,0,32-22.344H17.632v11.78H31.464a5.46,5.46,0,0,0,4.028-1.6A5.653,5.653,0,0,0,37.088-16.34ZM17.632-43.32v11.172H29.868a5.447,5.447,0,0,0,3.648-1.368,5.306,5.306,0,0,0,1.6-4.256,5.641,5.641,0,0,0-1.406-4.1,4.551,4.551,0,0,0-3.382-1.444ZM75.164.76A23.315,23.315,0,0,1,66.082-.912a19.781,19.781,0,0,1-6.726-4.522,19.091,19.091,0,0,1-4.142-6.612,22.285,22.285,0,0,1-1.406-7.866,22.285,22.285,0,0,1,1.406-7.866,19.091,19.091,0,0,1,4.142-6.612,20.237,20.237,0,0,1,6.726-4.56,22.859,22.859,0,0,1,9.082-1.71,22.583,22.583,0,0,1,9.044,1.71A20.331,20.331,0,0,1,90.9-34.39a19.569,19.569,0,0,1,4.18,6.612,21.763,21.763,0,0,1,1.444,7.866,22.285,22.285,0,0,1-1.406,7.866,19.091,19.091,0,0,1-4.142,6.612A19.781,19.781,0,0,1,84.246-.912,23.314,23.314,0,0,1,75.164.76ZM66.272-19.912A11.031,11.031,0,0,0,68.78-12.35,8.128,8.128,0,0,0,75.164-9.5a8.026,8.026,0,0,0,3.5-.76,8.386,8.386,0,0,0,2.774-2.128A10.214,10.214,0,0,0,83.3-15.694a12.59,12.59,0,0,0,.684-4.218,11.031,11.031,0,0,0-2.508-7.562,8.047,8.047,0,0,0-6.308-2.85,8.276,8.276,0,0,0-3.534.76,8.276,8.276,0,0,0-2.812,2.128,10.214,10.214,0,0,0-1.862,3.306A12.59,12.59,0,0,0,66.272-19.912ZM109.288-39.9l7.22,11.248.76,1.444.76-1.444L125.172-39.9h12.464L123.8-19.912,137.94,0H125.476l-7.524-11.172-.684-1.444-.684,1.444L109.06,0H96.6l14.136-19.912L96.9-39.9Z" transform="translate(243.872 55.48)" fill="#106bac"/></g><g transform="translate(67 4.738)"><path d="M0,0H90.262V90.262H0Z" fill="none"/><path d="M72.774,26.716a28.179,28.179,0,0,0-52.653-7.522,22.556,22.556,0,0,0,2.445,44.98H71.457a18.751,18.751,0,0,0,1.316-37.459Z" transform="translate(0 11.044)" fill="#d5d5d5"/></g><path d="M-1962.931,60.175h-40.5A22.591,22.591,0,0,1-2026,37.609a22.5,22.5,0,0,1,5.815-15.115,22.465,22.465,0,0,1,14.305-7.3,28.33,28.33,0,0,1,10.193-10.982A28.091,28.091,0,0,1-1980.87,0a28.105,28.105,0,0,1,9.735,1.725,28.025,28.025,0,0,1,8.261,4.768,28.207,28.207,0,0,1,6.174,7.2,28.035,28.035,0,0,1,3.473,9.023,18.8,18.8,0,0,1,12.411,5.858,18.571,18.571,0,0,1,5.078,12.8,18.755,18.755,0,0,1-4.9,12.66,18.755,18.755,0,0,1-12.032,6.052V49.706h6.836L-1957.8,34.512l-11.965,15.194h6.836V60.174Z" transform="translate(2131 9.782)" fill="#1293d6"/></g></svg>